<?xml version="1.0" standalone="no"?>
<!DOCTYPE svg PUBLIC "-//W3C//DTD SVG 1.1//EN" "http://www.w3.org/Graphics/SVG/1.1/DTD/svg11.dtd" >
<svg xmlns="http://www.w3.org/2000/svg">
<metadata></metadata>
<defs>
<font id="sarcasticrobotregular" horiz-adv-x="1284" >
<font-face units-per-em="2048" ascent="1536" descent="-512" />
<missing-glyph horiz-adv-x="500" />
<glyph horiz-adv-x="2048" />
<glyph horiz-adv-x="2048" />
<glyph unicode="&#xd;" horiz-adv-x="2048" />
<glyph unicode=" " />
<glyph unicode="!" d="M289 -68q0 23 12 44t28.5 36.5t42 30.5t44 24t42.5 19q6 3 9 4q56 14 78 25q1 2 19 15l18 13h14q3 -21 22 -67q6 -12 17 -23.5t17.5 -23.5t6.5 -33q0 -19 -5.5 -36.5t-12 -28.5t-18 -29.5t-17.5 -28.5l-10 -41q-10 -17 -54 -36t-67 -19h-8q-30 7 -51 18q-6 0 -22 6l-17 6 q-5 4 -25 25t-24 29q-7 6 -23 36t-16 35zM518 506v18q0 53 27 144q40 156 88 321q0 2 6 14.5t6 14.5q2 6 13.5 67t13.5 68q0 1 6 12.5t6 12.5v41q0 3 13 34.5t14 34.5q1 4 5 52t5 53l27 55q3 4 6.5 19t3.5 20q4 10 16 67t12 66q2 6 4.5 19t5 23.5t3.5 12.5q0 1 6 13.5 t6 13.5q1 5 0 47t0 47q1 7 17 23t22 18q8 4 47 4t43 -4q8 -3 28 -24t23 -29v-49q0 -4 0.5 -20.5t0 -25t-1.5 -22.5t-3.5 -25.5t-7.5 -21.5l-39 -51q-2 -5 -7 -33.5t-5 -34.5q-9 -44 -21.5 -92t-32 -116.5t-24.5 -88.5l-25 -82q-3 -10 -32 -137.5t-35 -142.5q0 -8 -10.5 -50 t-23 -87t-13.5 -50q-1 -6 0 -42.5t0 -39.5q-3 -7 -25.5 -46.5t-28.5 -49.5q-8 -15 -11 -20.5t-11 -15.5t-17 -13.5t-22 -3.5q-12 0 -16 2t-11 12z" />
<glyph unicode="&#x22;" d="M289 909l96 375q3 11 11.5 75t9.5 89v125q0 4 15 37t23 45q25 43 91 43h8q41 -34 41 -43v-166q-4 0 -12.5 -8t-8.5 -11q-4 -12 -20.5 -82t-18.5 -83q-79 -267 -80 -271q-3 -28 -4 -57.5t-2 -54t-18.5 -40.5t-54.5 -16q-6 0 -21 1l-16 1q-7 3 -22 19t-17 22zM698 807 q5 5 13 21t8 22q2 6 10 71t10 72q1 6 19.5 44t19.5 40v41q0 19 21 103v104q0 9 9 92.5t9 93.5v62q12 30 49.5 46.5t69.5 16.5q26 0 42.5 -21.5t16.5 -49.5q0 -69 -36.5 -179.5t-43.5 -142.5q-43 -286 -57 -436q-11 -18 -31.5 -30.5t-38.5 -12.5l-10 2q-39 23 -80 41z" />
<glyph unicode="#" d="M92 635q3 16 26.5 45t31.5 29h256q2 0 10.5 11.5t9.5 18.5q0 1 0.5 9t1 18.5t0.5 15.5q0 3 -1 20.5t-1 20.5q-15 0 -68.5 7.5t-70.5 11.5q-30 10 -55 37.5t-25 58.5l2 8q7 11 30.5 35.5t28.5 28.5q5 2 36 6t65 7.5t37 4.5q40 10 67 55.5t29 92.5q2 17 2 80.5t-2 82.5 q19 9 28.5 42.5t12.5 39.5q4 9 19 25t20 18q33 2 47 2h26.5t19 -2.5t15.5 -8t6.5 -16t3.5 -26.5q0 -71 -38 -176q-4 -10 -16 -36t-17.5 -44.5t-5.5 -38.5q8 0 76 -3.5t79 -2.5q17 0 80 21q39 226 39 227l18 61v43q7 14 35.5 38t42.5 24q6 0 29 -8t33 -13q27 -15 39 -84 q-27 -63 -42 -100t-32.5 -92.5t-26.5 -106.5h158q2 0 9.5 -11.5t10.5 -18.5q21 -35 21 -41v-64q-2 -6 -10 -18.5t-11 -12.5h-217l-18 -30q-1 -3 -7 -19t-10 -28t-4 -15q-1 -7 3 -58t4 -54q8 0 55.5 17t56.5 13q6 -4 21 -37t18 -47q0 -5 -7 -29t-11 -34q-17 -32 -78 -39 q-108 -22 -119 -23q-20 -31 -22.5 -75t4.5 -81t3.5 -80t-24.5 -73q-32 -39 -41 -43q-12 -3 -50.5 -8.5t-47.5 -5.5v57l20 103q0 1 -0.5 27.5t-0.5 49.5t1 27q0 2 9.5 20.5t9.5 20.5q1 4 -1 22l-1 19h-215q-22 0 -31.5 -58.5t-10 -129t-16 -129t-49.5 -58.5l-8 2 q-12 6 -34.5 22t-24.5 19q-6 8 -13.5 48t-7.5 55q0 1 21 43l18 82l21 43v40q-34 0 -197 21q-14 3 -33 16.5t-26 26.5q-4 4 -9 13.5t-8 17.5t-2 8zM518 717q2 0 12.5 1t12.5 1q20 2 63.5 7t77.5 9t35 4q41 8 60.5 57.5t19.5 100.5q0 12 -5.5 19t-16 9.5t-18.5 3.5t-22 0 t-16 -1q-135 0 -197 -64q3 0 11 -8t8 -14q0 -3 -9.5 -30t-9.5 -30q0 -5 -3 -32.5t-3 -32.5z" />
<glyph unicode="$" d="M35 416v35q0 5 14 12q64 41 123 41h4q28 -45 55 -71.5t70 -51.5h10q7 0 13.5 5.5t8.5 8.5t9 15q7 10 27 46.5t24 47.5q2 3 12.5 33.5t12.5 33.5q7 15 27 46.5t26 48.5q3 10 7.5 41t4.5 38q0 6 -4.5 22t-7.5 19q-1 0 -13 6.5t-14 8.5q-75 65 -127 186q0 3 -6.5 20.5 t-9.5 20.5q0 3 -9.5 14t-12.5 13l-15 41v14l15 25l12 41q2 4 12 14.5t14 11.5q25 25 101 82q3 2 32.5 13.5t32.5 13.5q96 49 152 55q21 0 141 12l51 105q1 3 13.5 21.5t13.5 21.5q0 4 6 33t8 34q0 4 4.5 27.5t6.5 28.5l6 29q6 30 8 36q1 0 11 1t11 1q117 0 154 -84v-4 q0 -12 -6 -31t-6 -30q0 -2 1 -8t1 -7t5 -12.5t5 -13.5q0 -9 -34 -25.5t-40 -30.5q-3 -3 -15 -25t-13 -28l-23 -39l-2 -6q0 -17 12 -20q26 -12 87 -24t112 -28t72 -43l24 -40q3 -11 -12 -41q-3 -2 -36 -25.5t-42 -28.5q-1 0 -4.5 -1t-5.5 -1q-17 0 -35 5.5t-38 14t-32 11.5 q-5 0 -31.5 5.5t-29.5 6.5q-1 0 -14.5 6.5t-14.5 6.5l-18 1q-18 1 -23 1q-6 0 -25 -1t-20 -1q-14 -21 -14 -25v-16l-27 -39q-13 -24 -23.5 -50.5t-22 -61t-17.5 -50.5q-2 -2 -6 -13t-4 -14q-2 -2 -2 -16q0 -10 2 -10q1 -4 21.5 -14.5t27.5 -12.5l127 -133q2 -3 18.5 -26 t18.5 -29l16 -29q56 -56 61 -66q2 -4 0.5 -54t-0.5 -54q0 -3 7.5 -27t7.5 -26q-7 -45 -27 -107q-1 -2 -12 -14.5t-12 -14.5q-4 -3 -14.5 -26t-10.5 -27q-67 -53 -90 -65q-19 -13 -64.5 -20.5t-64.5 -22.5q-6 0 -47.5 -1t-48.5 -1q-16 0 -58 1l-41 1q-78 26 -98 26h-53 q-4 0 -10 -9t-10 -20l-5 -10l-39 -123v-12l-24 -53q0 -4 -6.5 -28t-6.5 -25t-16 -8t-22 -9h-66l-51 70q0 1 -1 12t-1 13q0 5 1 17l1 11l13.5 27t12.5 28l15 54q0 9 24 65q2 2 7.5 14t5.5 15l1 5q1 5 1 9l-2 11q-3 12 -27 28h-25q-1 1 -7 3t-11.5 4.5t-7.5 4.5 q-33 33 -113 123q-14 16 -14 60zM430 1055q6 -2 16.5 -11.5t10.5 -15.5v-41q2 -4 17 -20t20 -19l38 -14q1 -1 8 -4.5t12.5 -6.5t6.5 -3q3 0 6.5 5.5t3.5 8.5l115 242h-22q-38 0 -76 -13q-85 -39 -116 -64q-23 -20 -40 -44zM494 336q0 -13 14 -21q10 -5 51 -12q63 -14 76 -14 h65q39 0 61.5 1.5t54.5 13.5t52 36q6 11 20.5 33t16.5 22q1 2 0 20.5t0 20.5q0 1 5 13.5t5 13.5q0 16 -10 41q-4 9 -12.5 29.5t-14.5 33t-16 29.5t-22 29q-1 2 -18.5 14.5t-18.5 13.5q-2 0 -13.5 12t-13.5 13q-3 3 -17.5 11t-34.5 18.5t-26 13.5l-36 12q0 -3 -6.5 -20.5 t-6.5 -20.5q0 -2 -6.5 -8t-7.5 -6l-37 -80q-1 -7 -13.5 -41.5t-15.5 -40.5q-2 -10 -11 -36t-13 -29q-1 -5 -12 -29.5t-24 -51t-15 -30.5v-4z" />
<glyph unicode="%" d="M31 920q0 6 20 143q10 90 27 124q13 26 33 42q5 5 65.5 44.5t91.5 57.5q4 5 19.5 14t17.5 9q2 2 51 2q48 0 50 -2q4 -1 58 -20.5t60 -20.5h39l117 -41q2 -2 19 -12.5t20 -10.5q8 -2 10 -2q1 0 5 1t5 1q2 0 10.5 5t18 11t10.5 7q2 1 16.5 5t27.5 8t14 5q19 11 46.5 35.5 t50 36.5t52.5 12q45 0 67.5 -18.5t22.5 -63.5q0 -61 -22 -104q-5 -7 -92 -145t-103 -166q-19 -38 -22 -41q-3 -6 -39.5 -42.5t-38.5 -39.5l-19 -43q-4 -4 -21.5 -32t-37 -57.5t-21.5 -33.5q-3 -7 -30.5 -67t-53.5 -115.5t-32 -65.5l-41 -64q-8 -17 -18.5 -48t-19 -52 t-21.5 -43t-33.5 -33.5t-47.5 -11.5q-34 0 -45.5 17.5t-11.5 56.5v33q40 50 75 101t71 117.5t54.5 102t61 124.5t54.5 114q17 35 40 72.5t53 84.5t44 70q9 13 32 36t35.5 43t12.5 44q0 20 -2 22q-19 -11 -35.5 -16t-26 -5.5t-33.5 -0.5q-26 0 -71.5 12t-67.5 12q-1 0 -10 -1 t-10 -1q-1 -8 -10 -89t-9 -99q-8 -53 -42 -102t-68 -78t-86 -66q-6 -4 -21.5 -13t-17.5 -9l-29 -1q-29 -1 -39 -1l-51 2q-6 2 -31 31.5t-28 31.5q-7 5 -21 10t-24 12t-15 19q-12 27 -35 83t-24 63zM185.5 914.5q0.5 -5.5 2.5 -18.5t7.5 -21.5t13.5 -16.5q7 -10 30 -25.5 t29 -15.5q1 0 16.5 7t34 17.5t25.5 16.5q3 0 12 8t11 11q39 78 39 84q4 25 11 95.5t7 90.5q-39 23 -80 41q-6 2 -8 2l-8 -2q-83 -35 -112.5 -84t-29.5 -146q0 -3 -0.5 -20.5t0 -23zM719 215v21q5 22 15.5 51t25.5 67.5t18 46.5q0 1 9.5 32.5t18.5 59.5t13 33q3 6 33.5 38.5 t44.5 43.5q1 2 19 12l18 9q7 5 21 16t20.5 15t19 8t27.5 4q45 0 129 -23q55 -17 77.5 -75.5t22.5 -129.5q0 -206 -139 -354q-2 -2 -29 -20t-30 -21q-1 -1 -15 -16.5t-27.5 -29t-17.5 -15.5q0 -2 -26 -2q-31 0 -33 2q-10 3 -40 19t-36 22q-16 11 -61.5 59.5t-57.5 65.5 q-3 6 -11 28.5t-9 32.5zM897 236q0 -26 26.5 -54t51.5 -28q3 0 19 8t20 12q14 13 44.5 44.5t33.5 37.5q22 35 22 147v15v15t-0.5 13.5t-2 13t-4.5 10t-7.5 9t-11 4.5t-15.5 2q-48 0 -98 -28.5t-60 -75.5v-64q-2 -4 -10 -30.5t-8 -30.5v-20z" />
<glyph unicode="&#x26;" d="M156.5 -463.5q-0.5 3.5 0.5 9.5t1 8q0 4 1 14l1 10q0 7 8 39v35q0 3 6 14t13.5 24.5t9.5 18.5q12 8 12 10t15.5 53t15.5 52q4 4 13 21t11 22q2 3 8 11t9 11.5t9 9.5t11 9.5t11.5 7t14.5 5t17 1.5l6 2l19 -8q40 -24 53 -37q-4 -4 -21 -47q0 -3 -12 -31.5t-14 -33.5 q-1 -2 -5 -20.5t-7.5 -35.5t-4.5 -18q-11 -15 -18 -32t-12.5 -38t-10.5 -33l-32 -36l-41 -41q-4 2 -6 2h-9q-7 1 -21.5 3.5t-25.5 4.5t-12 2q-7 1 -10 4.5t-3.5 7zM190 328q0 18 3 32.5t10 33t10 28.5q10 55 23 84q14 44 22 51q23 23 25 23l55 86l70 71q1 2 12 9l10 6l1 13 q1 13 1 17q0 35 -23.5 71t-23.5 60q0 30 17 65.5t40 61.5q68 90 104 121q18 15 34 25q67 37 116 59q44 25 58 25q5 1 35 -2.5t34 -3.5v43q4 7 16 22t17 23l43 90q0 3 5.5 19.5t6.5 17.5q2 3 16.5 23t18.5 24q1 2 4 19t4 18l37 49q2 3 6 11.5t6.5 12.5t7.5 10t11 9t14 4 q0 4 37 4q33 0 33 -4q2 -2 10.5 -20.5t11.5 -26.5v-62q-22 -44 -22 -49q-12 -33 -12 -35q-16 -40 -31 -65q-32 -48 -35 -64q0 -1 -5 -10t-5 -10q-22 -44 -23 -47q-3 -1 -12.5 -11.5t-11.5 -13.5q-2 0 -2 -10q0 -12 2 -12q0 -1 6 -6.5t6 -6.5q87 -136 90 -143l25 -49v-14 q0 -11 -7.5 -31.5t-3.5 -40.5q-9 -6 -35 -20t-34 -17q-18 -6 -23 -6q0 19 -12 67q-1 2 -17 12.5t-18 12.5q-50 36 -78 121h-96l-67 -25q-2 0 -24.5 -14t-33.5 -23l-35 -22q-5 -5 -16.5 -14t-20 -15.5t-8.5 -7.5q-43 -51 -45 -61q-2 -13 -2 -17q0 -37 21 -80t49 -71l57 -47 q23 -29 23 -101q0 -25 -13 -47q-3 -5 -6.5 -8.5t-9 -4.5t-8.5 -1.5t-11 0t-10 0.5h-34l-11 14q-19 11 -25 12.5t-26 1.5q-3 0 -16 -1t-15 -1q-4 -3 -25.5 -20t-41 -33t-23.5 -20q-3 -3 -18 -24t-17 -23q-24 -24 -24 -27q-3 -3 -12 -29t-9 -31q-1 -1 -4.5 -6.5t-7 -10.5 t-4.5 -5v-6q0 -62 31 -132t76 -106h116q18 4 70.5 18t64.5 19q17 19 42 34t47 15q18 0 35.5 -10t26.5 -20t26 -31v-12q-13 -26 -13 -35v-27q-3 -3 -17 -12t-20 -10q-18 -7 -66.5 -21t-60.5 -14q-14 -4 -71.5 -9.5t-77.5 -5.5l-23 -12h-125q-6 0 -17 22.5t-17 24.5 q-3 2 -29.5 13.5t-28.5 13.5q-2 1 -4.5 9t-4.5 17.5t-3 10.5q-1 2 -12.5 15.5t-21.5 26.5t-11 17v37q0 1 -6 11.5t-6 11.5q-11 58 -11 135z" />
<glyph unicode="'" d="M502 709q71 338 80 374q0 3 9 30.5t9 31.5q9 70 21 82q0 8 1 51.5t1 50.5q0 17 -1 62l-1 45q-3 22 -18 93.5t-21 90.5q5 14 34.5 46t42.5 38l19 1q18 1 24 1t19.5 -0.5t24.5 -1t12 -0.5q8 -2 13 -8.5t6.5 -16.5t1.5 -17.5t-0.5 -17t-0.5 -10.5q0 -46 -18 -127t-21 -114 l-20 -185l-21 -84v-22q-2 -33 -6.5 -109t-8 -135t-3.5 -65q-15 -131 -21 -146q-1 -4 -16 -20t-22 -21q-2 -2 -21 -2q-18 0 -18 2q-22 15 -47.5 46t-32.5 57z" />
<glyph unicode="(" d="M274 625q0 3 19 41v20q7 35 20.5 78t21.5 65t31 79t27 67q23 61 39 102t39.5 97t44.5 96.5t48.5 89.5t56 86.5t63 77t75 73t85.5 62.5l57 41h12q24 0 48 -43t24 -72q0 -27 -4 -31q-1 -5 -29 -33l-30 -30q-268 -320 -295 -350q-18 -24 -30.5 -49.5t-26 -61.5t-21.5 -55 q-10 -25 -36 -81t-40.5 -90.5t-27.5 -85t-13 -93.5v-23q18 -111 80 -248q0 -2 8 -20.5t8 -20.5q0 -1 21 -104q1 -2 19.5 -20.5t19.5 -20.5q0 -1 4.5 -11.5t9 -19.5t6.5 -10q10 -10 59.5 -53.5t59.5 -50.5q59 -55 59 -103q0 -22 -19 -42.5t-40 -20.5q-10 0 -21 3t-23 9.5 t-21.5 12.5t-22.5 16t-19 15t-18 15.5t-14 12.5q-19 18 -57 57.5t-42 46.5q-12 16 -96 205l-5 6q-6 5 -11 9.5t-6 6.5q-13 34 -24.5 71t-18.5 62t-18 69.5t-17 66.5q-4 14 -11.5 47.5t-7.5 36.5z" />
<glyph unicode=")" d="M356 -186q-1 1 7 17t14 24q10 18 48 73.5t50 71.5q1 2 19.5 20.5t19.5 20.5q9 11 80 125q24 47 76 158t59 131q2 6 11.5 62t11.5 63q0 3 6.5 11.5t9.5 8.5l41 268q-22 23 -25 119t-16 129q-2 7 -96 209q0 1 -4.5 5t-10 8t-6.5 5l-98 148q-15 21 -39 33.5t-42.5 18 t-34.5 28t-21 63.5q0 1 -0.5 9.5t-1 19t-0.5 14.5q0 38 21 60t59 22h20q4 -2 20.5 -10t35 -18t24.5 -13q7 -3 16 -22q3 -3 20.5 -40.5t20.5 -41.5q2 -5 31 -43t29 -39q7 -7 18 -41v-23q2 -3 20 -21t19 -20q23 -29 58.5 -92t60.5 -94q7 -26 22.5 -121.5t18.5 -128.5 q0 -2 0.5 -34.5t1 -71.5t0.5 -56t-0.5 -53t-1 -64.5t-0.5 -29.5q-2 -8 -30 -91.5t-30 -94.5l-41 -166q-1 -9 -8.5 -33.5t-9.5 -28.5q-2 -3 -11 -12t-20 -19l-10 -10q-1 -2 0 -21t0 -22q0 -2 -7.5 -19.5t-8.5 -21.5q-1 -1 -6.5 -5t-10.5 -8.5t-6 -6.5q-1 -1 -4.5 -11 t-7.5 -19t-6 -11q-53 -95 -60 -102q-2 -3 -28.5 -31t-28.5 -33q-17 -22 -41 -72.5t-39 -70.5q-20 -25 -59 -25q-29 0 -60 25q-8 5 -22.5 21t-16.5 20z" />
<glyph unicode="*" d="M217 1118q0 26 11.5 42.5t34 22.5t38 7.5t41.5 1.5q53 0 55 -2q4 -2 29.5 -30.5t28.5 -31.5q9 -7 39 -23t38 -18q4 -4 33 -4t29 4q2 2 9.5 27t8.5 35q19 185 19 270q5 4 29.5 31t29.5 31h10q46 0 68.5 -43t22.5 -95v-28q-1 -4 -20.5 -50.5t-20.5 -52.5q-1 -14 5.5 -71.5 t6.5 -67.5q2 0 13 -3.5t16 -2.5q26 12 65 44.5t76.5 56.5t73.5 24q12 0 17.5 -1t11 -6t9.5 -16q5 -13 13 -44t8 -38q0 -4 -8 -19.5t-13 -20.5q-12 -15 -42 -47.5t-37 -36.5h-39q-38 -9 -88 -37t-50 -56q0 -8 2 -14t7 -12t8.5 -9t12 -9t11.5 -9q39 -19 39 -20 q2 -3 10.5 -40.5t10.5 -41.5q0 -3 18.5 -31.5t18.5 -32.5q2 -2 2 -30q0 -67 -43 -84q-3 1 -28.5 4t-27.5 8q-2 3 -15 9t-13 9l-23 23q0 31 -45.5 99.5t-68.5 68.5q-21 0 -52 -23l-137 -125q-1 -1 -6.5 -5.5t-9.5 -8.5t-4 -6q-4 -6 -19.5 -30.5t-22.5 -34.5t-23 -29t-28 -28 t-30 -16.5t-37 -7.5q-37 0 -37 64v20q6 14 29 54.5t30 50.5q21 26 64 66t79 80t56 81v19q-36 27 -101.5 66.5t-112 76t-83.5 86.5q-2 8 -2 10z" />
<glyph unicode="+" d="M51 559q6 9 28.5 33.5t31.5 28.5q25 12 157 41q80 14 156 20h119q28 0 98 20q-9 287 21 437q3 4 17.5 11t20.5 7q14 0 52.5 -7t44.5 -11q7 -3 15.5 -19t6.5 -22q-8 -21 -23 -84.5t-16 -83.5q-6 -24 -6 -121q0 -68 6 -86l17 -21q26 2 110 2t107 -2q26 -1 74 -5.5t85 -9 t39 -5.5l19 -20q2 -2 -5.5 -43t-13.5 -60q-4 -11 -28.5 -26t-30.5 -15h-391q0 -4 -2 -21.5t-2 -21.5l22 -63v-19q-4 -27 -13.5 -103.5t-19.5 -127.5t-28 -101q-1 -4 -17 -12t-22 -8q-2 0 -18 8t-21 12q-18 13 -27 33.5t-10.5 35.5t-1.5 44q0 50 19.5 147.5t19.5 147.5 q0 28 -9.5 38.5t-35.5 10.5h-33q-3 -1 -94 -21.5t-102 -21.5l-51 -1q-51 -1 -68 -1q-8 0 -58.5 1t-58.5 1q-42 14 -59 43q-6 6 -14.5 22.5t-6.5 18.5z" />
<glyph unicode="," d="M213 -496q0 19 12 37l66 80q8 10 24.5 35t31.5 43.5t30 26.5q3 2 27 9t26 9q2 0 17 15.5t20 21.5q3 3 7.5 14.5t4.5 14.5q6 6 27 39t24 42q1 1 29 66v12q-7 34 -14 41q-1 4 -25.5 46t-25.5 48q-1 2 -12.5 33.5t-14.5 36.5l-51 51l-39 70v4q0 24 24 37t29 24l14 41 q4 8 23 27q3 0 7.5 12.5t4.5 16.5h15l24 -15q12 -5 30 -11.5t30.5 -12.5t27.5 -17q10 -8 30 -28.5t21 -24.5q1 -2 1.5 -8.5t0 -13t-0.5 -12.5l-1 -7q15 -123 41 -190q1 -3 18.5 -45t18.5 -47q3 -5 8 -40t5 -42q1 0 6.5 -12t5.5 -15q2 -2 2 -43q0 -37 -2 -37q0 -3 -14.5 -19 t-22.5 -22q-1 -1 -12.5 -6.5t-12.5 -7.5q-31 -24 -65 -55t-79 -74.5t-60 -57.5q-4 -5 -16.5 -17.5t-22.5 -23t-11 -12.5l-14 -28q-65 -84 -129 -84q-4 0 -13.5 0.5t-17 1t-8.5 0.5q-3 2 -22.5 29t-26.5 40v4z" />
<glyph unicode="-" d="M213 600l2 12q19 37 72 50q66 0 213 -19q3 0 29 -4t28 -4q38 0 150 16q6 2 69 2q4 3 25 11t24 8q28 7 83.5 9t76.5 5q1 0 9.5 4t9.5 4q4 2 4 0q14 -2 36 -32.5t21 -45.5q-2 -6 -2 -14l-19 -84q0 -4 -8 -12q-6 -2 -25.5 -2.5t-25.5 0.5q-3 0 -28.5 3t-28.5 3 q-7 1 -42 -0.5t-36 -1.5q-2 0 -20.5 -2t-20.5 -2h-96q-1 0 -11.5 -5t-11.5 -5q-2 0 -19.5 3t-19.5 3q-5 1 -53 1t-53 1q-13 0 -57.5 6.5t-57.5 9.5q-16 -8 -22 -8q-7 -3 -34 -3.5t-34 1.5q-1 0 -10 1.5t-20.5 3t-16.5 1.5q-32 8 -49 8q-2 5 -17 36.5t-14 41.5z" />
<glyph unicode="." d="M240 156q0 26 7.5 44.5t15 25.5t27.5 20.5t29 21.5q2 1 19.5 20.5t19.5 20.5q21 2 27 2q48 0 95.5 -23.5t74.5 -62.5q9 -10 24 -34t15 -27q1 -2 -9 -20.5t-10 -20.5q0 -1 -4.5 -22t-8.5 -39t-7 -21q-10 -11 -47.5 -44t-50.5 -40q0 -2 -27 -2q-69 0 -129.5 64.5 t-60.5 136.5z" />
<glyph unicode="/" d="M98 -33q1 4 14.5 22.5t30 38.5t17.5 21q12 37 18 43q1 2 19 20t20 21q1 3 10.5 22.5t18 38t10.5 21.5q75 93 80 104l18 41q5 9 77.5 121.5t80.5 128.5q49 92 193.5 370t181.5 353q3 13 18 53t21 50l39 84q2 5 10 52t10 52q0 1 9 10t10 11l20 41q4 0 29 1t30 1 q2 0 18.5 0.5t23 0t19 -2.5t21.5 -7.5t17 -13.5q4 -20 4 -63q0 -54 -4 -62q-3 -8 -50 -64t-49 -59q-184 -283 -237 -375q2 -2 2 -9.5t-2 -10.5q-17 -45 -39 -82q-2 -3 -20 -21t-19 -20q-2 -3 -6 -16.5t-7.5 -28t-4.5 -16.5q-23 -52 -56 -108t-63 -79q-2 -2 -19.5 -11 t-19.5 -11q-2 -1 0 -5t5 -8.5t3 -5.5h12q0 -34 -8 -52.5t-25 -37t-26 -35.5q-5 -8 -40 -83t-40 -83l-20 -20q-3 -8 -28.5 -61.5t-29.5 -63.5q-5 -12 -21 -58.5t-32.5 -88t-37 -86.5t-43.5 -72t-44 -27q-2 0 -10.5 5t-18 11t-10.5 7q-1 0 -15.5 4t-27 8t-14.5 6q-7 9 -16 41 t-7 43z" />
<glyph unicode="0" d="M8 -29l2 19l39 53q1 1 5 13.5t5 13.5q31 38 39 55l78 78q2 4 11.5 16.5t17 23.5t8.5 15v14q-2 12 -19.5 52.5t-17.5 42.5q-8 13 -32 42t-35 52t-11 53v14q0 5 7.5 53.5t7.5 53.5v55q0 8 24 80q2 2 7.5 13t5.5 14v28q3 8 10 21t16.5 27t11.5 18q28 57 39 94q1 2 6.5 26.5 t6.5 26.5t7 5t11.5 6t5.5 4q2 0 15 26q87 118 102 135q126 136 141 148q1 2 11 7.5t22 12t14 7.5h21q17 0 32.5 -4t33 -12t28.5 -11l70 -14q16 -11 22 -13q3 -3 32.5 -22t31.5 -21h26q3 0 27 -12q10 -6 26.5 -21t31 -24.5t30.5 -9.5q12 0 12 2q26 26 27 26q8 8 20 12t19 15 q8 17 28 48t21 34q29 45 41 54q18 14 61 14l37 -3q9 -1 12.5 -8t4 -18t0.5 -12q0 -3 5 -14t7 -13v-8q0 -21 -41 -62q-4 -1 -31 -23.5t-30 -27.5q-6 -6 -27.5 -46t-24.5 -50q-3 -1 -26.5 -25t-26.5 -28v-13q1 -3 12.5 -13.5t14.5 -12.5q1 -1 0 -13.5t0 -13.5t7.5 -10.5 t12.5 -18.5t6 -12v-53q0 -6 12 -42.5t13 -39.5t6 -27t6 -26q0 -3 6.5 -14t8.5 -13v-8q0 -16 -7.5 -35.5t-19.5 -24.5q1 -11 1 -47t-1 -47q0 -2 -5 -26t-5 -29q-3 -6 -9 -45t-6 -47q0 -1 -7 -8t-7 -9v-51q-12 -12 -12 -14q-2 -3 -11.5 -31.5t-15.5 -34.5l-190 -202 q-39 0 -76 -56q-140 -37 -154 -39q-1 0 -23 -1t-28 -1q-10 0 -31 1t-22 1l-139 54q-8 3 -31.5 20.5t-43 33t-20.5 15.5t-5 -1t-5 -1q-54 -43 -61 -55q-2 -2 -19 -32.5t-20 -33.5l-51 -82q-1 -1 0 -12.5t0 -13.5q-1 -1 -7 -8t-11 -12.5t-7 -6.5h-39q-42 0 -60 21.5t-18 68.5z M240 557q0 -43 26.5 -88.5t63.5 -75.5l10 13q19 24 69 83t74 91q3 7 23.5 42.5t25.5 41.5q3 0 14 11t13 15q3 3 31.5 39.5t32.5 40.5q82 82 102 107q32 48 39 55q9 11 44 47.5t46 46.5q4 4 18 10t21 17q-2 12 0 14l22 39l7 12q7 11 8 15q-15 0 -51 12q-1 0 -6.5 7t-6.5 7 q-17 8 -61.5 25t-67.5 30l-39 27h-14q-1 -1 -5.5 -7.5t-9.5 -12.5t-7 -7h-52l-11 -6q-11 -7 -15 -8q-12 -8 -35.5 -28t-26.5 -27q-21 -17 -66 -63.5t-50 -55.5q-37 -74 -37 -82q-50 -84 -68 -106q-4 -11 -16 -40t-22 -53t-11 -28q0 -2 -2.5 -26t-5.5 -54t-4 -43v-37z M418 258q23 -11 56 -31.5t58 -28.5t66 -8q19 0 39.5 2.5t35.5 5.5t36.5 10t33.5 11t36.5 13.5t35.5 13.5q15 0 51 12q5 2 26 20t23 19q5 5 17.5 26t21.5 27q1 1 7.5 5t13 7.5t6.5 4.5q1 1 6.5 24.5t5.5 28.5l15 41q0 6 5 39.5t7 40.5q0 3 5 13.5t7 12.5v56l27 94v39 q0 54 -15 94q-12 12 -12 14q-2 4 -2 6q0 19 14 33l-36 82q-7 -4 -34 -33.5t-30 -31.5l-90 -82q-1 -2 -7.5 -7t-6.5 -6q-4 -5 -56 -72.5t-59 -74.5q-5 -7 -26 -29.5t-25 -25.5q-4 -4 -14.5 -21.5t-10.5 -21.5q-15 -20 -58 -81.5t-69 -92.5q-12 -13 -49.5 -58.5t-42.5 -50.5 q-1 -1 -5.5 -12t-6.5 -13v-14z" />
<glyph unicode="1" d="M263.5 970.5q-0.5 5.5 0 18.5t0.5 19q0 36 7 56t30 54l12 10h37q26 8 49.5 24t47.5 42t37 41.5t36 46.5q9 12 20.5 30.5t16.5 22.5t19 8.5t40 4.5h11.5h10.5t8.5 -0.5t8 -1t7 -2.5t8.5 -4.5t8 -6.5q2 -2 12.5 -11.5t18 -17t8.5 -10.5q1 -1 0 -17.5t0 -19.5q4 -22 20 -53 v-254l15 -14v-37q0 -115 -35 -203q10 -13 10 -20q-2 -6 -2 -8q-1 -3 -4.5 -30t-3.5 -34v-164q0 -2 -4 -10.5t-8 -18.5t-5 -12v-37q0 -2 -6 -19t-6 -19q-1 -12 2.5 -75t3.5 -69q6 0 34.5 2t33.5 2q108 -11 121 -14q27 0 63 -12q1 0 5.5 -5.5t4.5 -7.5t-1.5 -14.5t-2.5 -18.5 t-3.5 -18t-5.5 -19t-8 -15t-12 -12.5t-16 -6.5q-17 1 -72.5 1t-72.5 -1q-51 0 -303 -37l-60 -12q-2 0 -12.5 -6t-11.5 -6h-25l-24 24q-6 9 -30 39.5t-30 36.5q5 8 23 28t24 23q15 13 33 16t42 0t34 -2q14 1 74 13l61 12v27q0 7 5 44t5 44q1 5 10.5 55.5t17.5 96t9 55.5v176 l12 67l15 23q2 2 2 63q0 64 -2 66q0 3 -7.5 25t-7.5 24q0 16 2.5 97.5t2.5 94.5h-41l-181 -192q-45 -39 -75 -39l-11 2q-1 0 -8.5 8t-16.5 17l-12 12q-6 10 -9 19.5t-3.5 15z" />
<glyph unicode="2" d="M96 76q0 12 6.5 33t6.5 36q0 11 -5.5 32t-5.5 32q0 17 15.5 31.5t19.5 27.5q4 5 20 58.5t17 54.5q4 6 23 26t26 23q48 39 115 39q19 0 47.5 -13.5t44.5 -13.5h12q5 9 36 42t34 38q1 1 8.5 4t13 5.5t5.5 3.5q2 2 6.5 12.5t5.5 11.5q1 2 12 6.5t12 5.5q4 6 25 27l86 141 q10 19 37 52q30 40 63 102.5t33 95.5v6q-3 2 -12.5 18.5t-9.5 20.5q-2 2 -12 29.5t-17 32.5q-32 37 -88.5 57.5t-110.5 20.5h-6q-65 -13 -72 -13q-20 -8 -52 -34t-60 -31l-107 -115q3 -3 3 -18t-3 -19q-4 -7 -23.5 -22t-25.5 -17q-5 6 -37 29t-37 47v53q0 2 -6 24t-6 27v23 q0 2 5.5 8t6.5 6q4 4 20 27.5t17 24.5l193 141l74 24q4 1 25 8t24 7h20q20 0 54.5 -13t45.5 -16q13 0 59 -3.5t50 -6.5q4 -1 38 -18.5t38 -18.5q1 -1 17 -7.5t18 -6.5q1 0 15 -13t32 -29t26 -22q18 -17 31.5 -58.5t15.5 -45.5q0 -6 1.5 -44t1.5 -44q0 -10 -0.5 -31.5 t-1.5 -39.5t-1 -19l-20 -64q-8 -11 -36.5 -60t-37.5 -67q-12 -12 -12 -14q-2 -2 -8 -19l-6 -18q-1 -5 -62 -66q-10 -24 -12 -26l-37 -37q-3 -4 -36.5 -54.5t-59.5 -72.5l-49 -39q-2 -3 -23.5 -24.5t-23.5 -26.5v-6q0 -12 7.5 -25.5t16.5 -19.5l111 -78q35 -9 49 -11 q14 -4 40.5 -9t49 -11.5t43.5 -17.5q1 -1 6 -7.5t10 -12t6 -5.5q2 0 19 5.5t18 6.5q2 1 15.5 3.5t28.5 5.5t18 4q23 6 68.5 41.5t82.5 35.5l6 -2q48 -29 74 -65q-13 -5 -29.5 -49.5t-21.5 -51.5q-10 -14 -41.5 -28t-40.5 -23q-2 -1 -7.5 -11.5t-6.5 -10.5q0 -3 -49 -19 q-9 0 -44.5 -5t-39.5 -5h-33q-28 0 -54 8.5t-68 30t-50 25.5q-15 7 -53.5 17t-57.5 21q-25 16 -68.5 47.5t-79.5 54.5t-71 38l-35 -25q-17 -12 -32 -49.5t-17 -40.5q0 -2 -10 -6t-14 -4q-1 -1 -10.5 -4t-17.5 -6t-9 -5l-17 -17t-27.5 -28t-17.5 -18h-16q-12 0 -18.5 0.5 t-12 4.5t-7.5 5.5t-8.5 12t-10.5 16.5q-11 10 -11 12q-2 19 -2 27z" />
<glyph unicode="3" d="M111 1319v4q5 5 23 30.5t24 35.5q7 9 16.5 16t16.5 11.5t20 8.5t18.5 6t22.5 4t20 2t22.5 1.5t20.5 1.5h148q6 0 52 -5.5t54 -7.5q27 -1 90 9.5t84 11.5q27 -27 37 -27h6q12 0 19 13h170q14 14 22 14q2 2 62 2q71 0 110 -16q0 -3 1 -22t1 -23l-2 -46q-2 -9 -12.5 -41.5 t-11.5 -35.5l-86 -86l-10 -29q-2 -1 -23.5 -23t-28.5 -26q-16 -15 -71 -64t-84 -77q-27 -24 -70 -79.5t-61 -74.5q31 0 131 -10q0 -2 59 -27q11 -6 33.5 -20.5t28.5 -18.5l3 -3q4 -3 6.5 -5.5t2.5 -3.5q5 -10 41 -70t43 -74q1 -1 12 -22q37 -114 37 -117v-12q0 -21 -12 -25 l24 -26l1 -15q1 -16 1 -22q0 -47 -26 -117q-1 -1 -6 -18.5t-5 -20.5l-26 -24q-10 -25 -49 -90q-2 -3 -35.5 -31.5t-36.5 -32.5q-25 -22 -61 -37.5t-81 -29.5t-65 -23q-4 -2 -30 -12.5t-27 -10.5t-19 -1t-24 -1q-70 0 -123 21.5t-117 68.5l-121 89q-5 0 -12 14 q-86 112 -86 221v8q37 53 88 53q15 0 24 -1t21 -4.5t18 -12t7 -22.5q1 -3 0 -37.5t0 -38.5q8 -39 50.5 -84t82.5 -70q1 -1 44 -23.5t54 -27.5l37 -12h10q20 1 63 11t48 13q5 2 20.5 13t16.5 14q22 10 24 12q8 5 48 38t46 40q32 16 39 23q17 20 27 60.5t10 72.5q0 24 -7 84 t-5 92q-58 65 -103.5 96t-109.5 31h-31q-2 0 -24.5 -7.5t-24.5 -7.5q-3 0 -36 -5t-36 -5q-1 -2 -12 -7t-12 -5q-4 -4 -47 -4q-35 0 -39 4q-5 0 -19.5 15t-17.5 22v78q2 7 11.5 26t15.5 25q110 105 290 329q4 6 25 27q9 8 60.5 49t72.5 66l-10 12q-12 -1 -44.5 -1t-41.5 1 q-3 0 -24 6.5t-25 7.5q-1 0 -12.5 5.5t-12.5 5.5h-86q-19 1 -60 -3.5t-63 -2.5q-5 5 -10.5 8.5t-13.5 4.5t-12.5 1.5t-15 0t-13.5 -0.5q-5 0 -24 -1l-19 -1q-20 0 -100.5 -10.5t-106.5 -16.5q-19 0 -49 -10h-11q-36 24 -36 84z" />
<glyph unicode="4" d="M51 772q9 15 41 58.5t43 70.5v12q0 1 7.5 13.5t16 28t11.5 22.5q31 36 39 63q0 14 10 54q1 0 3.5 4t6 10t4.5 8q30 57 89 156.5t79 136.5q13 17 13 29v12l22 49l39 51q18 27 37 27q2 0 12 -5t11 -5q29 -24 40 -45t11 -54q0 -46 -15 -84q-53 -83 -157 -268 q-8 -14 -55 -111.5t-78 -142.5l-13 -14v-23q11 -5 62 -14h22q2 0 13 -7t12 -7h8q13 0 36.5 14t35.5 14q14 0 49 -13.5t41 -14.5h12q38 -1 113.5 -7t115.5 -6h10h12.5t9.5 1.5t11.5 4t8.5 7.5q2 20 34 155q26 93 50 154l26 37v39q0 18 11 51l6 6q6 6 11.5 11t6.5 7 q10 18 12 37.5t-0.5 36.5t0.5 43q1 10 15 38t8 48q9 2 27.5 7t33 7.5t27.5 2.5q30 0 57 -39q0 -4 2 -23t2 -22q0 -5 -1 -16.5t-2 -20.5t-1 -10q0 -3 -8 -20t-17 -36t-10 -22q-19 -43 -42.5 -118.5t-30.5 -94.5q-2 -8 -25 -54l-22 -36v-27q-1 -4 -14 -47.5t-13 -69.5l2 -10 l62 -25q0 -1 0.5 -8t1 -16t0.5 -14q0 -7 -1 -29t-1 -23q0 -3 -6.5 -12.5t-8.5 -11.5q-10 -18 -49 -18.5t-47 -20.5q-1 -4 -7.5 -20t-11 -29.5t-4.5 -16.5q-1 -4 -26 -127q-5 -26 -18 -122t-29 -146q-4 -13 -24 -90t-23 -92q-23 -57 -27 -62q-3 -4 -24 -25t-23 -24 q-3 -4 -9.5 -7.5t-11.5 -5.5l-6 -1l-59 63v39q2 6 7 45t5 45v25q0 2 5 12.5t5 11.5q13 39 13 41q4 5 21.5 46.5t17.5 42.5q0 2 6 30t6 33v25q0 11 10 55.5t22 97t15 66.5q0 1 3 9t6.5 18t4.5 12q0 2 -3 27t-3 30q-28 0 -78 -4t-87 -3t-74 11h-365q-2 0 -16.5 11t-18.5 18 q-44 35 -84 100z" />
<glyph unicode="5" d="M135 90v10q0 38 9.5 58.5t39.5 31.5q11 3 13 3l12 -3q124 -17 217 -38l51 -13q1 0 7 -0.5t14 -1t12 -0.5l25 2q3 1 14 14t12 13q2 0 13 5.5t12 6.5q4 2 20 20l15 19q8 9 21 33.5t15 30.5q3 8 12 45t9 43q2 8 7 52.5t5 51.5q2 4 2 57q0 5 -5 16t-10.5 19t-6.5 8 q0 5 -15 26t-20 26q-1 4 -12.5 20t-14.5 19q-12 15 -40 45.5t-33 33.5q-61 20 -72 17l-47 6h-33q-27 0 -82 -6t-84 -6l-18 2q-12 0 -49 22q-15 11 -15 33v20q0 1 7.5 30t7.5 34v61q0 8 6 60t6 57v15q1 14 1.5 31t0.5 24q0 6 -0.5 20t-1 25t-0.5 12q-1 5 -14 52t-13 51v12 q0 31 15 53q12 25 59 90q20 -2 85 -2t85 2q34 0 278 39h123q59 0 109 10q52 13 61 13h13q5 0 96 -13q12 -6 17.5 -19t6 -21.5t0.5 -26.5q0 -25 12.5 -154.5t10.5 -159.5q-1 -10 -7.5 -38t-6.5 -39q-17 0 -40 -11.5t-36 -11.5q-14 0 -19 8t-16 8q-4 0 -4 2q-8 3 -22.5 17.5 t-16.5 19.5q-2 0 -2 23q0 27 2 29q2 6 11.5 25.5t13.5 25.5q-4 5 -5 78.5t-4 78.5q-4 6 -6 8.5t-5 4t-4.5 1.5t-7.5 -0.5t-11 -0.5h-25q-5 0 -53 -6.5t-49 -6.5l-123 -12l-23 -7q-23 -7 -26 -7q-177 -20 -195 -25q-13 -3 -55.5 -18t-53.5 -21q0 -1 -12 -37l-1 -16 q0 -17 -0.5 -38t-0.5 -32t1 -46l1 -35q0 -2 6 -18.5t6 -18.5q0 -4 5.5 -27.5t7.5 -26.5q1 -1 10.5 -2.5t21.5 -3.5t17 -4q8 -3 32.5 -7.5t26.5 -4.5q8 -3 55 -8.5t56 -5.5l51 -25q1 -3 15.5 -7.5t19.5 -4.5q12 -12 50.5 -48.5t54.5 -54t38.5 -50.5t34.5 -66q1 -2 3 -17.5 t4 -29.5t3 -15q0 -4 3 -12.5t7 -17.5t5 -11q20 -115 0 -242q-3 -2 -9 -13t-6 -15q-1 -2 0 -42t0 -44q-1 -2 -20.5 -18.5t-22.5 -20.5q-3 -3 -24 -24.5t-39 -39.5t-25 -24q-58 -60 -124.5 -82.5t-157.5 -22.5q-5 0 -18.5 0.5t-25 1t-12.5 0.5q-4 0 -35 11t-36 14 q-4 2 -33.5 9t-40.5 16q-3 2 -24 26.5t-23 26.5q-3 0 -15 4.5t-12 7.5z" />
<glyph unicode="6" d="M98 463v33q0 68 25 135q12 24 12 26v52q0 3 3.5 11t8 16t9 15.5t4.5 8.5q1 1 3 12.5t4 24t3 14.5l39 51q2 4 12 38t12 38q8 22 19 42t26.5 39t26 31t32 34t30.5 32q46 52 84 105q10 22 12 24q3 4 23.5 13.5t25.5 9.5q3 1 13 14.5t10 15.5q21 14 59 28t51 20l37 28h10 q28 -14 37 -14q16 -3 68.5 -8t109.5 -10.5t68 -6.5q36 -17 62 -43.5t59 -70.5l22 -39v-13q-1 -4 -3.5 -17t-4.5 -23t-2 -13q-11 -24 -57 -24l-4 2q-6 0 -24.5 8.5t-25.5 13.5q-11 7 -31.5 20.5t-33 21.5t-31 15.5t-35.5 8.5l-29 1q-29 1 -40 1q-5 0 -34 -1t-34 -1 q-15 -10 -54 -24.5t-57 -29.5q-49 -39 -57 -51q-2 -1 -19 -25l-18 -24q-5 -6 -37 -39.5t-36 -36.5q-44 -55 -50 -65v-6q-15 -15 -19 -40t-15 -30q-2 -4 -25.5 -38t-24.5 -40l-26 -61q-2 -13 -11 -50t-16.5 -68.5t-7.5 -37.5q0 -1 -0.5 -11t-1 -23t-0.5 -19t0.5 -18t1 -21 t0.5 -10q4 -17 18 -46.5t17 -29.5h18q0 4 -3 25.5t-3 25.5q2 2 8 13t6 12q0 6 5.5 38t7.5 37q1 4 10.5 20.5t11.5 18.5q5 11 14 34t17 39.5t18 29.5q35 45 97.5 87t109.5 42q2 0 18.5 -6t18.5 -6h84q152 -9 268 -105q4 -2 13.5 -12t21.5 -23t15 -16q2 -1 4.5 -6t4.5 -11.5 t3 -7.5q0 -3 8 -30.5t10 -30.5q12 -61 19 -78v-39q-1 -1 1 -12.5t4.5 -24.5t2.5 -14q0 -52 4 -53l-12 -103q0 -1 -3 -5.5t-6 -9.5t-4 -7q-19 -24 -45 -46t-45 -33.5t-55 -32.5t-51 -30l-35 -28q-3 0 -25.5 -5t-25.5 -5q-4 -2 -36 -13.5t-36 -11.5h-74q-1 0 -11 -7t-11 -7 h-12q-100 0 -158 26q-1 1 -19 6.5t-20 6.5q-19 26 -23 28q-10 4 -61.5 30.5t-58.5 31.5q-60 60 -62 63l-10 39v39l-27 25q0 2 -5 12t-7 12q-41 70 -59 154v26zM401 182q3 0 13 -4.5t10 -5.5q37 -25 39 -25q3 -3 27.5 -8.5t33.5 -5.5h60q2 0 8 -5.5t6 -8.5h84l84 28h74 q28 6 60 49t32 72q0 14 2.5 24.5t7.5 24t8 25.5q0 1 4 20t4 25q0 5 -10 29l-10 24q-8 23 -37 76q0 1 -6 6.5t-8 5.5l-47 27q-6 3 -29.5 7.5t-30.5 4.5h-162q-39 -18 -57.5 -27.5t-45.5 -33.5t-40 -55q-2 -2 -6 -24.5t-6 -25.5q-1 -1 -12.5 -18.5t-12.5 -20.5v-10 q0 -12 6.5 -33.5t6.5 -29.5q0 -23 -6 -36t-21 -29t-23 -27v-15z" />
<glyph unicode="7" d="M35 -6q0 1 5 9t11 17.5t8 12.5q1 3 7 8.5t8 5.5l69 25l123 12l23 14q1 0 24 5.5t27 7.5q3 1 11.5 12t10.5 14q2 2 13.5 31.5t13.5 32.5q4 9 24.5 52t24.5 48q23 54 23 66q1 2 1 10v16v15l-1 8q1 7 22.5 45t26.5 45l12 39q14 35 23.5 61t12.5 34.5t12.5 28t31.5 60.5 q18 29 48.5 85t37.5 69l27 37q8 10 8 14q1 1 7 18.5t7 18.5q2 5 17.5 32t19.5 31l12 51v25l25 29q0 13 12 37q3 9 11.5 40t16.5 50t19 37h-36q-43 0 -134 -13h-59q-10 -4 -20 -6.5t-23 -3t-21.5 -1t-26 0t-26.5 0.5h-24q-3 0 -18 -6t-17 -8q-10 0 -61.5 -11t-61.5 -14 q-1 -1 -15.5 -10.5t-32 -22t-24.5 -18.5q-20 -13 -27.5 -19t-14.5 -19.5t-7 -33.5q0 -9 7.5 -24t7.5 -23l-3 -6q-12 -48 -12 -53v-37q0 -3 -3 -11t-6.5 -17t-4.5 -11q0 -18 -12 -78q0 -1 -11 -12v-27q-8 -14 -45 -14q-18 0 -18 2q-17 21 -21 29q-5 4 -14.5 15t-17.5 21 l-7 11v28q0 1 7.5 12t7.5 13v39q0 1 5 24t5 27v47q0 24 -5 70t-5 67q0 7 5 19t5 20t-5 28t-5 32q0 15 17 48.5t28 37.5q2 1 18 3.5t29.5 5.5t15.5 5q1 0 18 12.5t19 12.5q1 0 10.5 0.5t21.5 1t17 0.5l35 -2l25 -25q1 0 8.5 -1t17.5 -2t15 -1q7 0 30.5 2t24.5 2 q26 -10 248 23q8 0 91 5t91 5h107q13 1 42.5 9t38.5 9l33 -1q33 -1 37 -1h49q1 0 11.5 -7t11.5 -7t12 7t12 7h15q37 0 37 -80q0 -15 -7.5 -26.5t-16 -17.5t-25 -10.5t-25.5 -5.5t-25 -3q-1 0 -20 0.5t-34.5 0.5t-18.5 -1q-11 -2 -34 -11t-26 -14q-8 -4 -14 -39v-63 q0 -2 -12 -19t-13 -20t-18.5 -32t-18.5 -32l-10 -12l-84 -178q-42 -71 -63 -117q-11 -10 -11 -12q-1 -2 -29 -61t-34 -66q-14 -13 -22.5 -44t-22.5 -50q0 -4 -4.5 -20t-7.5 -19q0 -2 -11 -19t-12 -20l-37 -115q-5 -14 -25 -63t-33 -88.5t-13 -63.5q6 0 24.5 5.5t36.5 12 t20 7.5q49 12 50 12q3 0 51 -24q37 -37 37 -39q0 -1 0.5 -9.5t1 -19.5t0.5 -16q0 -3 -1 -22t-1 -21q-14 -22 -56 -33t-81 -19.5t-46 -25.5q-117 -13 -122 -13h-13q-12 0 -31.5 6.5t-27.5 6.5h-15q-14 -2 -81 -19t-74 -18q-1 0 -13.5 -7t-13.5 -7q-27 -3 -39 -3q-5 0 -19 1 l-13 2q-27 18 -35 24q-1 1 -5 4.5t-7 6t-3 3.5q0 2 -5 18.5t-5 18.5z" />
<glyph unicode="8" d="M61 362q0 9 7 37q1 4 3 15l3 16q0 3 5.5 18t8.5 19q24 138 62 231q1 2 2.5 11.5t3.5 17.5t4 10v-2q8 10 37.5 40.5t38.5 37.5q19 14 57 14l8 70q4 28 4 37l10 14q0 9 4 41q4 41 9 51l4 9h-2l6 18v29l22 57q3 10 14 31.5t17 29.5q3 7 14.5 23.5t16.5 19.5q6 5 8 7 q3 1 18 19t15 20q25 30 76 51v-2l26 12h-4q4 4 4 12q67 43 182 58h19l16 22h27q57 0 92.5 -11t63.5 -50l28 -47l33 -54v2q18 -31 26.5 -68.5t9.5 -59.5t1 -74v-33q0 -4 -1 -30t-1 -44v-59l-10 -21v-18l-19 -23l-14 -18l-2 -4q0 -17 28 -41q15 -12 25 -29v4q6 -6 16 -57 q1 -2 2 -4.5t1.5 -3.5t0.5 -2q8 -11 28 -52t26 -59v-115q0 -4 12 -24q0 -1 1 -4t1 -4v-37q0 -115 -31 -172l-10 -19l-10 -10l4 2q-33 -48 -61 -76l-33 -37l-33 -45q-8 -14 -41 -28q-30 -12 -37 -19q-2 -6 -6 -10l-18 -12l8 2q-15 -6 -21 -8l-14 -7q-4 -4 -8 -6h2 q-35 -12 -41 -14q-15 -10 -25 -10l-14 2q-13 -3 -35 -25q-72 -14 -158 -20h-30l-17 -6h2q-27 -9 -34 -9q-5 0 -41 9q-24 6 -33 6h-43q-10 1 -37.5 15.5t-32.5 19.5q-8 8 -65 58.5t-82 70.5q-14 18 -33 65l-8 19l-15 8v39l-10 20q-4 10 -12 37.5t-8 30.5v35l-6 18v-2 q-7 18 -7 24zM209 330q8 -19 14 -29l6 -12l19 -70l4 -20q0 -2 17.5 -21t25.5 -24q7 -16 49 -58q17 -17 35 -26l8 -7h289q27 10 57 13q50 8 66 20q103 66 138 98q60 54 79 117q12 36 12 51q0 3 4 19l6 22v39l-10 19v59q0 8 -4.5 32t-7.5 28q0 9 -23 47q-4 10 -13 26.5 t-16 30.5l-8 14q-3 1 -7 4.5t-7 4.5l-27 14q-4 1 -22 31l-2 2q-64 75 -148 75h-8q-21 0 -51 -6q-36 -4 -39 -4q-7 -14 -20.5 -22.5t-24 -11.5t-31.5 -7l-24 -6h2l-74 -31h-22q1 0 -1.5 -1.5t-7 -4.5t-6.5 -4l-78 -47q-12 -6 -16 -6q-1 -1 -8 -4l-4 -2q-1 -2 -4 -4l-4 -2 q-78 -106 -113 -326v-10zM358 684q7 7 7 10zM420 938l10 -12l2 10q-4 0 -8 1zM432 936h14l21 2q9 1 32 14t29 19h230q1 0 3.5 -1.5t7.5 -4l9 -4.5q3 -3 15 -3q1 -1 20 -6l25 -4q36 -24 77 -37q5 0 9 7l4 20l6 35q2 4 2 8q1 11 3 32.5t3.5 37.5t1.5 18v109l-8 18q0 3 -2 4 l-8 27q-22 76 -56 76q-6 0 -16 -19q-16 -22 -20 -24h-11q-22 0 -43 6q-5 1 -17 2t-20 2t-8 2l-8 -2l-21 -7q-9 -2 -12 -3h2q-26 -11 -34 -11h-31q-35 -33 -51 -45q-12 -12 -15 -12q-1 -1 -2 -2.5t-2 -2.5t-2 -1h2q-32 -26 -44 -36t-31 -34.5t-25 -48.5z" />
<glyph unicode="9" d="M210.5 931.5q-0.5 10.5 0 30t0.5 25.5t1 44.5t1 45.5q12 17 19 56.5t18 56.5l47 78q1 2 13 13t12 13v25q1 3 10 10.5t22.5 17.5t16.5 13q1 1 12.5 5.5t22.5 9.5t14 7l22 39q1 1 12 7t13 8q41 10 61 22q12 12 13 12q54 17 147 17h57q6 0 20 -6.5t17 -10.5q2 0 4.5 -8 t5 -16.5t3.5 -9.5q4 -4 34.5 -42.5t38.5 -47.5q1 -2 35.5 -37t36.5 -41q3 -3 14 -24.5t13 -26.5q6 -12 29 -48t30 -53q9 -27 11.5 -55.5t1 -68.5t-0.5 -56q0 -4 6.5 -43.5t6.5 -44.5v-47q0 -30 -5 -63.5t-9.5 -55.5t-18.5 -63.5t-18.5 -53.5t-24 -61t-21.5 -53 q-27 -57 -34 -91q-4 -5 -14.5 -47t-12.5 -55q-2 -9 -25 -78q-20 -8 -24 -12q-21 -17 -41.5 -43t-49.5 -72t-32 -51q0 -1 -12 -25q-41 -47 -156 -153q-6 -6 -49.5 -36t-61.5 -40q-3 -4 -17 -11.5t-32 -16.5l-22 -11q-2 -2 -19 -7t-18 -5l-17.5 17.5t-28 28.5t-16.5 17 q0 2 -5 12.5t-5 12.5v14q28 24 94 101q13 13 27 41q5 5 16.5 9.5t26 8t16.5 4.5l25 27h25q1 1 9 10.5t16 18t11 10.5q2 2 7 4.5t11 4.5t7 3q1 0 5 5t5 5q34 51 51 68q7 10 16.5 29t19 34t22.5 27q16 26 58.5 114t51.5 113q2 4 7.5 21.5t11.5 36.5t6 20q4 6 19.5 39t17.5 39 q1 1 0 5.5t-2.5 9t-1.5 5.5q-2 0 -15 3.5t-18 2.5q-1 -1 -17.5 -7t-17.5 -7q-60 -12 -63 -12q-22 0 -109 10t-121 16q-36 4 -72.5 29.5t-60.5 57.5q-1 1 -6 14t-6 14q-9 8 -57.5 59t-53.5 56q-5 12 -7.5 25.5t-3.5 30.5t-1.5 27.5zM393 1036q0 -5 0.5 -17t1 -21.5t0.5 -10.5 q0 -2 6.5 -12.5t6.5 -11.5v-66q1 -2 17 -19.5t17 -19.5q1 0 13 -17.5t12 -19.5q11 -16 32.5 -21.5t40.5 -3.5t38 -1q65 -13 94 -13q1 0 20.5 -1t26.5 -1q34 0 83 11t66 30l2 2l-2 11q-1 11 2 27t6 28.5t3 13.5q0 4 -5 36.5t-6 33.5q0 21 -14 119q-1 5 -10.5 20.5t-21.5 32.5 t-15 22q0 3 -12 11l-74 53q-16 10 -70 37q-2 2 -37 2q-34 0 -58.5 -13.5t-50 -35t-50.5 -31.5q-10 -13 -33.5 -57.5t-26.5 -55.5l-1 -17q-1 -18 -1 -24z" />
<glyph unicode=":" d="M297 135q0 9 15 41t24 43q8 14 39.5 47.5t38.5 36.5q37 2 51 2q8 0 23.5 -0.5t28.5 -0.5l13 -1q28 -4 73.5 -66t45.5 -90q0 -1 -1 -6t-1 -6q0 -9 -16 -41q-6 -6 -25.5 -27t-35 -37t-19.5 -18q-9 -6 -39 -13.5t-39 -6.5q-9 2 -46.5 17.5t-51.5 23.5q-10 4 -33.5 21 t-26.5 22q-6 4 -13 28.5t-5 30.5zM303 948q0 34 2.5 54.5t17 42.5t42.5 30q64 25 98 25q130 0 158 -66q5 -15 12 -54.5t6 -47.5q0 -1 -10.5 -16t-25 -36.5t-21.5 -31.5q-19 -19 -23 -19q0 -2 -59 -2q-58 0 -58 2q-3 0 -33.5 16t-43.5 25q-11 6 -35.5 22.5t-24.5 18.5 q-2 2 -2 37z" />
<glyph unicode=";" d="M141 -408q3 4 37.5 49t40.5 54q24 28 139 143q121 136 121 221q0 3 -1 16l-1 13q-3 5 -40 41t-40 41q-3 6 -18 69.5t-21 96.5q-2 16 -2 22q0 22 6 36t20.5 21t24.5 9.5t31 5.5q3 1 27.5 -4.5t28.5 -7.5q10 -3 33 -27t26 -35q5 -10 30 -94.5t29 -91.5q1 -2 30 -39t30 -43 q4 -4 4 -41q0 -27 -4 -43q-115 -115 -137 -143q-15 -20 -133.5 -164t-122.5 -148q-37 -43 -82 -43q-32 0 -48 29.5t-8 56.5zM303.5 872q-0.5 10 0.5 31.5t1 26.5q0 7 14 63q9 0 28.5 8.5t27.5 14.5q2 1 12 19l10 18q36 36 49 39q67 11 140 -68l1 -14q1 -14 1 -17v-12 q0 -66 -11.5 -93t-66.5 -67q-4 -4 -38.5 -19.5t-51.5 -19.5h-23q-21 9 -71 39q-11 10 -16.5 25.5t-6 25.5z" />
<glyph unicode="&#x3c;" d="M170 539q0 5 8 29.5t12 33.5q8 15 19 21q70 20 80 20q222 193 491 434q12 11 35.5 54.5t42.5 50.5q2 1 20 0t21 0q1 0 10.5 5.5t18 10t10.5 4.5q26 0 53 -33t27 -59q0 -1 -1 -6t-1 -6q-14 -57 -19 -62q-4 -4 -38.5 -21.5t-40.5 -19.5q-51 -31 -146.5 -103.5 t-146.5 -103.5q-1 0 -6 -1t-7 -1q-10 0 -14.5 4.5t-13.5 18.5q-1 -32 -23 -65.5t-43 -53t-61 -50t-49 -38.5q-3 -3 -8 -7t-7 -5.5t-4.5 -5t-3 -7t-0.5 -8.5q0 -19 29.5 -41.5t64.5 -47t43 -44.5q2 -2 22 -11.5t21 -10.5q4 -3 18.5 -30.5t18.5 -31.5q4 -2 42.5 -10t39.5 -8 q5 -5 47 -33q32 -32 45 -35q2 -1 15.5 -19t32 -37t34.5 -24q16 2 22.5 0.5t20 -9.5t17.5 -9q49 -16 59 -23q15 -7 28 -50.5t13 -63.5l-2 -8q-7 -7 -30 -23t-28 -18q-2 0 -17.5 7.5t-22.5 12.5l-60 41q-7 7 -49 42.5t-49 39.5q-15 11 -55.5 38.5t-63.5 45.5q-1 1 -10 11.5 t-17.5 19.5t-11.5 10q-3 2 -28.5 10t-28.5 10q-4 2 -32 22t-55 38.5t-32 21.5q-30 17 -81.5 39.5t-88 45.5t-66.5 61q-4 6 -12 22t-8 19z" />
<glyph unicode="=" d="M190 891q0 5 11 19t16 18q5 5 29 10t33 4q42 -5 178.5 -14.5t173.5 -9.5q3 -1 82 8l41 16q9 0 51.5 3.5t46.5 4.5q6 0 31 5t32 8q2 0 20.5 7t20.5 7q6 0 35.5 -12t40.5 -19q10 -6 14 -16.5t3.5 -17.5t-3.5 -23.5t-4 -20.5q0 -11 -3.5 -29t-6.5 -18q0 -3 -17 -18t-26 -19 q-26 -15 -64 -22t-65 -7.5t-72.5 1.5t-58.5 2q-94 -5 -200.5 -3t-206.5 15q-40 5 -84 42t-48 79zM227 319q0 87 60 97q145 9 413 18h97q11 2 42 10.5t38 12.5l20 20h18q20 -20 23 -20q10 -3 56.5 -3t58.5 3q-29 -16 -37 -46t-13 -59t-26 -41q-38 -15 -62 -20h-57 q-2 0 -21 -6t-37 -10.5t-22 -4.5q-11 -1 -71 -1t-131 0.5t-74 0.5q-4 0 -47.5 -10t-48.5 -10q-1 0 -13.5 -0.5t-27.5 -1t-21 -0.5q-25 0 -41.5 2t-36 8t-29.5 21.5t-10 39.5z" />
<glyph unicode="&#x3e;" d="M219 963q-2 2 21 41q2 4 18 20q55 41 59 41t35 -16t45 -25q8 -6 71 -36t71 -36l106 -57q12 0 58 -32t61 -36l65 -30q1 -1 25 0t25 0q18 -12 60 -24t76.5 -21t62.5 -32.5t28 -57.5q0 -12 -2 -22.5t-3.5 -18t-8 -16.5t-8.5 -12.5t-12.5 -12t-13 -10.5t-16 -11.5 t-16.5 -11.5q-10 -6 -62 -41.5t-57 -38.5q-17 -13 -142.5 -111t-150.5 -118q-4 -3 -49 -41.5t-51 -40.5h-41l-37 -41q-4 -3 -21 -12.5t-18 -10.5q-3 -1 -15 -13.5t-17 -12.5l-27 -15q-9 1 -31.5 17t-27.5 24q-5 5 -5 31q0 28 5 33q7 11 36.5 43t40.5 39q2 1 20.5 0t20.5 0 t117 81q235 189 354 334q-38 17 -106 43t-123.5 50t-103.5 51q-1 1 -10 11.5t-17.5 19.5t-11.5 10q-4 2 -21 2t-37.5 -1t-21.5 -1l-60 20l-77 41q-11 10 -34 34t-26 30z" />
<glyph unicode="?" d="M186 92v10q15 37 23 41q4 7 30 31.5t35 30.5q21 14 45 20h109q17 -8 21 -12q4 0 17 -8t15 -10q18 -12 26.5 -58.5t8.5 -81.5q0 -5 -1 -20l-1 -15q0 -3 -4.5 -15.5t-5.5 -12.5v-43l-45 -41q-1 -1 -14.5 -4.5t-16.5 -3.5q-34 0 -90 8q-1 0 -41 20q-44 24 -67.5 52t-30.5 71 v23q-13 16 -13 18zM188 1518v94q0 3 10.5 11t23.5 17.5t16 12.5q7 3 19.5 13t21.5 18t10 8q13 7 41.5 12t50 11t25.5 18q68 14 225 14q5 0 41 0.5t52 0t43 -4t46 -10.5q12 -3 43 -19t35 -22q7 -4 32.5 -31t30.5 -35q6 -7 27.5 -47t24.5 -49q4 -4 20.5 -26.5t17.5 -26.5 q0 -2 3.5 -23.5t7 -47t4.5 -36.5v-121q0 -2 -7.5 -13t-7.5 -13l-12 -56q-13 -39 -36.5 -79t-56 -86.5t-48.5 -73.5l-51 -97l-13 -12q-3 -2 -27.5 -15t-47 -25t-25.5 -15q-4 -1 -15.5 -9.5t-23.5 -18.5t-14 -11q-3 -2 -44 -26t-44 -27q-46 -35 -51 -41q-27 -27 -29 -27 q-2 -6 -11 -31t-16.5 -47.5t-9.5 -29.5q-1 -2 0 -27t0 -29q-4 -14 -24.5 -26.5t-36.5 -12.5q-62 0 -93 39q-12 24 -12 27t6 22.5t6 22.5q6 16 16.5 57.5t10.5 46.5v56q6 8 12 12q12 12 43.5 42t56 54t27.5 27q35 32 110 75.5t95 57.5q117 81 205 242q6 9 16.5 29.5 t10.5 23.5v94q0 1 -7.5 14t-7.5 15q0 1 7.5 11.5t7.5 12.5v15l-117 121l-13 26q-17 26 -39.5 33.5t-58.5 7.5h-55q-8 -1 -62.5 -12.5t-66.5 -13.5q-5 -2 -31.5 -14t-30.5 -15q-17 -7 -90 -25q-9 -3 -25 -9t-25.5 -9.5t-23.5 -6.5t-26 -3q-23 0 -39 14q-5 3 -16 14t-11 13z " />
<glyph unicode="@" d="M86 485q0 41 16 103q9 31 15 67v31l8 27q0 4 4 16q4 21 8 25l13 6q4 0 4 8v23q8 12 8 14t4 22l6 27l31 72h-2q39 88 96 198l16 25l43 57v-2q4 10 20 30.5t19 22.5l39 23h-4l19 16q48 53 57 58q6 0 16 10q86 37 193 37l26 -2q21 0 45 -6l37 -7h37q5 -6 49 -20l21 -10 q69 -32 108 -80l29 -45q66 -119 78 -203q13 -81 18 -154v-18q-6 -4 -8 -6q1 0 4 -6l4 -13v-51q0 -10 4 -84q3 -53 9 -98q-4 -4 -12.5 -17.5t-8.5 -17.5l-39 -92l-18 -53q0 -10 -15 -25l-16 -18h2q-8 -21 -10 -23q-20 -20 -25 -30l-6 -7v2q-2 -2 -8 -8.5t-8.5 -9t-8 -8.5 t-8.5 -9t-8.5 -8t-9 -8t-8.5 -7t-9 -6.5t-8.5 -5.5t-9.5 -5q-45 0 -49 -4l-33 -17l-29 -14h-10l-16 18l-25 -4q-8 0 -20 12l-15 19l-18 20h2q-29 23 -37 35l-10 21l-29 30l-30 -4q-16 -4 -23 -4q-1 -1 -5.5 -4t-9 -5.5t-7.5 -2.5h4q-37 -16 -103 -16l-47 2q-7 0 -49 28 q-14 8 -35 56l-16 32v144l24 86q9 29 45 55l27 51q6 3 23 19t22 22l33 27l45 51q10 8 12 10l33 15h63q40 -13 48 -13h22l10 -10l3 1.5t7.5 -4t10.5 -7.5t11.5 -9t10.5 -8q26 -19 29 -26q12 -16 22.5 -67.5t10.5 -80.5q0 -68 -35 -88h2q-3 -4 -29 -12q4 -9 4 -37 q0 -19 -4 -65l-6 -66v-43q11 -11 17 -14q19 -15 32 -15l5 1q4 1 10 1q3 1 11 6.5t18 12.5t16 10h-2q80 65 108 172l21 84v-2q0 2 8 18q10 15 10 17v8q0 70 -6 143l-4 47q0 5 -8 97v8q-9 29 -32.5 88.5t-33.5 73.5q-2 4 -16 18h2q-20 13 -55 44t-64.5 49t-58.5 18h-54 l-32 -17l-9 -2q-112 -33 -151 -75q-4 -3 -20.5 -22.5t-18.5 -23.5q-4 -2 -16 -13t-13 -15q-10 -10 -24 -32t-30.5 -51t-18.5 -32q-5 -7 -18 -42.5t-42 -86.5q-7 -10 -28 -72q-11 -30 -15 -34l-12 -27q-2 -6 -4 -10q-7 -12 -12 -49l-5 -25l-4 -20q-22 -90 -22 -138 q0 -108 6 -157l20 -70q1 0 2 -2.5t2.5 -5.5t2.5 -4h-2q4 -8 4 -13l26 -59q7 -10 27.5 -32.5t28.5 -28.5h-5q2 -1 6.5 -5.5t6.5 -5.5l6 -2l100 -51q35 -3 59.5 3t34.5 13t27 23l12 10l27 17q-4 0 5 4q4 2 11 4q3 2 4 2h2l46 -19q3 -3 10.5 -21t7.5 -28q-2 0 -2 -12.5 t-1.5 -26t-4.5 -16.5q-5 -1 -14.5 -10t-16.5 -18t-6 -9q-1 0 -7 -4.5t-13.5 -10t-10.5 -7.5l-37 -13l-118 -18q-9 5 -71.5 21.5t-66.5 17.5q-38 8 -86 39q3 0 -2 10v-4l-14 18q0 3 -2.5 9.5t-3.5 9.5h2l-4 6l-39 59l-27 58l-2 4v-2l-20 61v-2l-9 27l3 -4q-3 36 -3 59 q-1 -1 -2 1t-2.5 7t-1.5 6h2l-4 13q-2 20 -2 58.5t2 55.5l-10 17q0 3 -1 15t-1 15zM205 31v2v-2zM436 518q0 -18 3.5 -28t13 -14t16 -4.5t23.5 -0.5h8q32 0 61 16l60 43h2q10 8 12 13l14 10l23 51q10 29 16 33l-4 -2q2 2 17.5 9.5t21.5 8.5q-7 7 -10 17l-4 16l-4 21l-3 18 q-2 1 -10 5.5t-10 4.5h-25q-78 0 -139 -45q-22 -13 -45 -41q-8 -24 -8 -33t-16 -45h2l-13 -24q-2 -23 -2 -29zM664 104h2h-2z" />
<glyph unicode="A" d="M23 76l32 37l23 49q0 6 33 39q10 13 15.5 28t7.5 24l1 9q7 14 23 78l32 49q1 3 0 20.5t0 18.5q1 3 6.5 12t11 17.5t5.5 9.5q2 6 17 39.5t18 36.5q7 21 63 129q5 8 16.5 27t17.5 32.5t11 32.5q4 4 23 100q1 1 6.5 13t5.5 14q2 1 5.5 24.5t4.5 24.5q0 3 5.5 14t7.5 13 q0 5 9.5 38t12.5 39q6 12 31 37q5 3 13.5 18t8.5 21q8 12 25.5 51.5t20.5 51.5q1 1 5.5 17.5t4.5 19.5l14 14q2 3 10.5 24.5t10.5 24.5v12q6 13 12 13q32 16 76 16q11 0 22 -9.5t17 -19.5t15.5 -28.5t12.5 -22.5q13 -8 15 -10q0 -7 8 -40t12 -38q5 -16 30.5 -75.5 t35.5 -76.5l10 -12q34 -103 35 -104l22 -37q17 -46 33 -105q10 -30 10 -51l35 -49q20 -59 31 -76q0 -5 4.5 -20t7.5 -19l20 -53l15 -57q3 -1 13.5 -30t24 -69t29 -79t31.5 -63.5t27 -18.5q0 -9 8 -43.5t12 -46.5q1 -3 16.5 -19.5t16.5 -19.5q1 -1 3 -13.5t4.5 -28t4.5 -22.5 v-12q-5 -11 -17 -31.5t-15 -21.5h-66q-3 0 -86 13t-94 13h-99q-23 3 -46 29t-23 51q0 28 16 47t42.5 27t47.5 11t43 3q18 0 47 -7t43 -7h9q-6 24 -31 57.5t-29 40.5q0 9 -10 29v10l-47 117q-17 9 -21 49l-333 -25h-56l-24 -12l-99 -10q-8 -1 -24 -4t-28.5 -5.5t-14.5 -2.5 q-8 -4 -23 -27q-3 -11 -9 -67t-13 -72q-3 -6 -18.5 -30t-25 -44t-9.5 -37q6 0 32 -2t31 -2q60 12 90 12h4q27 0 44.5 -32.5t17.5 -63.5v-4q-39 -49 -45 -51q-1 -3 -35 -8t-53 -5h-89q-15 0 -61 5t-61 8q-5 5 -17.5 13.5t-15.5 8.5q-2 3 -16.5 13t-16.5 16q-22 55 -22 78z M432 571h328l82 25q8 19 12 27v12q-9 34 -34 76t-34 73q-2 4 -13 39t-13 39q0 3 -7 17t-12 20q-3 4 -13.5 53t-14.5 54q0 1 -5.5 5t-5.5 5q-5 10 -22 78q-6 12 -33 39q-19 -14 -29.5 -30t-20 -44t-17.5 -43q-13 -8 -15 -10q0 -21 -6 -27q-7 -18 -24 -102q0 -1 -10.5 -18 t-10.5 -19v-54q0 -3 -11 -18t-14 -18q0 -5 -4.5 -28t-5.5 -24q0 -2 -5.5 -7t-6.5 -5q-35 -80 -35 -115z" />
<glyph unicode="B" d="M66 1178v12q13 26 26 39q9 15 37 43h66q26 1 177 16t169 17q5 0 19.5 4.5t17.5 6.5h102q182 0 270 -24q13 -6 44 -17t34 -11l100 -80l15 -15l-15 -24q0 -1 15 -31v-27q0 -38 -17 -87.5t-39 -86.5q-1 -3 -8 -11.5t-15 -15.5t-16.5 -15t-9.5 -9q-4 -7 -30 -34.5t-33 -32.5 q-20 -27 -25 -41q8 -6 43 -22t45 -19q3 0 19.5 -7t17.5 -10q5 0 27 -17t26 -22q2 -2 14 -13t17 -13q0 -4 7.5 -18.5t7.5 -18.5q0 -8 3 -39.5t3 -32.5v-59q-3 -4 -3.5 -30t-2.5 -30q-1 -1 -14 -29t-13 -30q-22 -67 -29 -70q-1 -3 -24.5 -25.5t-24.5 -25.5l-63 -57 q-3 -5 -18.5 -14t-31.5 -16.5t-33 -15t-18 -7.5q-6 -2 -37.5 -20t-33.5 -19q-1 0 -8 -7t-9 -8q-5 -5 -61 -14h-39q-2 0 -19 -5.5t-20 -6.5q-1 0 -18.5 5.5t-36 10.5t-21.5 4q-20 -12 -24 -12q-1 0 -25.5 -7t-26.5 -9l-10 -13q-10 -12 -14 -12l-25 12q-12 2 -14 2 q-10 0 -21.5 -14t-21.5 -14q-14 0 -35 13t-33 13q-28 0 -80.5 -6t-78.5 -6h-23q-2 0 -11.5 10.5t-22.5 24.5t-17 18l-13 27v4q0 81 25 90q38 -2 72 -2q94 0 159 16q0 5 1.5 39t1.5 39q0 58 -7.5 171t-7.5 169v10q12 60 12 80v58q2 3 6.5 26t4.5 27v106q0 1 6 44t8 53 q1 1 6.5 18.5t5.5 20.5q2 8 2 12q0 33 -14 53h-4q-15 0 -125 -17.5t-125 -17.5l-16 2q-6 4 -20.5 19.5t-18.5 23.5q-12 17 -12 54zM489 463q0 -33 13 -62v-200q0 -2 5.5 -7.5t6.5 -5.5l14 -1q14 -1 19 -1l31 2l24 13q4 2 45 -2.5t43 -3.5q9 2 53.5 18t51.5 20q9 3 25 7 t24 6.5t18.5 9.5t18.5 18q0 2 15.5 12t32 21t17.5 12q1 3 17.5 22t17.5 21q0 2 8.5 17.5t9.5 15.5q1 3 1 25t1 24q2 1 3 11t2 23t4 18q1 4 -1.5 13.5t-4.5 18.5l-3 9q0 15 -38.5 34.5t-85 38t-56.5 27.5q-116 -45 -229 -45h-14q-3 -3 -17.5 -8.5t-19.5 -5.5q-1 0 -13 7 t-14 7l-4 2q-1 0 -4 -1t-4 -1q-13 -73 -13 -129zM506 762q12 0 16 4q1 0 5 6t5 6q27 12 70 22t66 19q1 0 11.5 6.5t12.5 8.5q3 0 26.5 6t26.5 6q2 0 31 9.5t29 10.5q31 6 56.5 22t33.5 34q5 5 14 19t16.5 24.5t10.5 11.5q1 1 0 22t0 23l10 10q11 9 19.5 17.5t9.5 11.5 q2 14 2 18v4.5v5v4.5t-0.5 5t-1 4.5t-1.5 4t-2.5 3t-3.5 2.5t-5 2q-2 1 -22.5 7t-44.5 13t-34 11q-11 0 -39 6l-28 6l-21 1q-20 0 -45 0.5t-37 0.5q-6 0 -50 -1t-50 -1q-12 -12 -14 -12q-54 -115 -68 -299q-4 -24 -4 -84z" />
<glyph unicode="C" d="M125 410v200q0 3 2.5 16.5t5.5 29.5t4 22q57 239 166 338l39 24q3 2 50 27.5t52 28.5q1 0 7 6t6 8h37q3 0 14.5 5t13.5 7l142 54h12q12 1 27 1.5t22 0.5q11 0 44 -1t34 -1q4 0 23.5 -4.5t27.5 -8.5q1 -1 12 -6.5t13 -5.5q12 -5 32 -11t31 -10t26 -13t27 -21q13 6 13 18v8 q-2 12 -7.5 75t-5.5 73v14q3 6 11.5 19t16.5 22.5t9 9.5q6 6 37 6q33 0 39 -6q4 0 23.5 -19.5t27.5 -31.5v-14q-1 -6 -5.5 -33.5t-7 -39.5t-8 -33.5t-13 -37.5t-17.5 -30l-4 -242l-2 -41v-229q-23 -29 -31 -41q-9 -11 -13 -13t-18 -2q-32 0 -45 15q-3 1 -7.5 13.5t-4.5 14.5 q-3 4 -12 13t-13 16.5t-4 17.5q0 9 8.5 26.5t8.5 27.5q0 12 -8.5 24t-8.5 23q0 1 1 7t1 7q20 80 27 94l12 13v14q-20 34 -51.5 60t-56 38.5t-72.5 34.5l-53 17h-4q-12 0 -27.5 -1.5t-33.5 -9t-21 -18.5q-11 1 -51 -4t-54 -8q-142 -73 -178 -95q-12 -12 -12 -14l-12 -27h-15 l-12 -14q-4 -9 -19.5 -42t-27.5 -60.5t-14 -32.5q-3 -4 -15 -44.5t-14 -49.5q0 -3 -5 -20.5t-7 -20.5v-27q24 -100 24 -121l39 -92l14 -43q23 2 25 0q2 0 4.5 -5.5t4.5 -13t3 -8.5q88 -92 181 -94h145h30h35t33.5 0.5t37 1.5t33.5 3t35.5 5t30.5 7q3 0 23.5 7.5t46 17 t35.5 12.5q2 2 12.5 8t11.5 6q13 2 15 2q1 0 6 -1t6 -1q12 -3 31.5 -13.5t19.5 -13.5v-121q0 -10 -16 -15t-37 -7t-25 -4l-12 -7q-13 -7 -24 -12.5t-13 -5.5q-45 -18 -63 -18h-90q-3 0 -11.5 -5.5t-17.5 -12t-10 -7.5q-29 -2 -35 -2q-21 0 -52 7t-48 7q-8 0 -25 -7t-35 -7 l-22 2q-2 1 -13 13t-12 12h-53q-120 15 -127 18q-6 0 -64 51q-1 1 -13.5 14.5t-24.5 25.5t-15 14q0 1 -11 6.5t-13 5.5q0 1 -11.5 18.5t-15.5 24.5q-15 43 -76 160q3 17 3 32q0 33 -15 50z" />
<glyph unicode="D" d="M-16 928q0 6 2.5 29t5.5 26q6 12 31 38.5t32 27.5q2 2 16 2t31 -1l17 -1q53 5 159.5 26t182.5 21q37 0 74 -3.5t91.5 -11.5t73.5 -10q5 -9 25 -16q11 -2 59.5 -13t55.5 -14q1 0 13 -6t13 -6q2 -2 16 -5t29 -6t17 -4q1 -1 4.5 -3.5t6.5 -5t3 -3.5q43 -43 78 -53l176 -191 q-4 0 -13.5 -10t-11.5 -16q-2 0 -2 -37q0 -20 7.5 -53.5t7.5 -50.5v-7q-13 -52 -13 -82q-1 -2 0 -25.5t0 -27.5q-1 -2 -6 -16t-10.5 -29.5t-7.5 -21.5l-51 -107q-9 -17 -28 -29t-50 -23.5t-37 -14.5l-53 -27q-11 -12 -13 -14l-24 -13l-115 -43q-154 -38 -360 -51h-62 q-67 -10 -78 -14q-10 -3 -47.5 -21t-66.5 -18q-37 0 -51 12q0 1 -6.5 20t-8.5 21q0 1 -10 6.5t-12 5.5q-15 17 -15 52v18q0 2 8 10t17.5 17t11.5 12q14 10 33 15t41 7t31 5l12 12q3 3 19.5 8.5t19.5 5.5h63l154 12l-39 56q-24 40 -24 41q-1 3 0 33.5t0 33.5q0 5 -6.5 46.5 t-6.5 45.5v82q-10 192 -16 244q-32 63 -37 107q-26 -11 -37.5 -13.5t-31 -3.5t-38.5 -4h-26q0 -1 -11.5 -6.5t-13.5 -5.5q-6 -4 -26 -9.5t-23 -5.5l-16 -1q-16 -1 -21 -1t-18 1l-12 1q-2 0 -13.5 6t-23.5 13.5t-13 7.5zM514 922q0 -111 31 -148v-325q0 -3 9.5 -23.5 t14.5 -28.5q2 -3 27 -21t27 -22q2 -8 2 -12q0 -2 -1 -6.5t-1 -5.5q-1 -2 -7 -5l-12 -6t-6 -4q-12 -51 -14 -67v-15h14q5 3 43 16t45 13h39q8 1 79.5 26.5t74.5 26.5q1 1 30.5 7t32.5 8q22 15 78 80q-5 12 8 43t14 36v68q0 3 6.5 14t8.5 13v12q-1 2 -14 9l-13 7q-1 1 0 19.5 t0 19.5q0 3 -5.5 12t-11.5 18.5t-7 10.5q-34 59 -68.5 97.5t-85.5 64.5q-6 4 -59 28.5t-54 24.5q-3 1 -8.5 7t-5.5 8h-211z" />
<glyph unicode="E" d="M14 82q0 7 27 24t39 19q3 1 11 1h17.5t10.5 -1q15 5 24 14h121q46 0 66 41v148q0 6 -6.5 48t-6.5 46v29q0 3 6.5 38.5t6.5 38.5v285q0 3 -6 26.5t-7 28.5q0 1 -7.5 6t-8.5 7v6q0 13 16 33q-27 14 -53 14h-12q-2 -2 -19 -8t-20 -6q-3 -1 -43.5 -6.5t-44.5 -6.5 q-2 -2 -14 -8t-15 -6h-10q-28 14 -47 41t-19 59q0 30 29 47l47 41q6 2 42 8t38 7q12 10 12 14q4 0 26 1t26 1q6 0 18.5 -0.5t22 -1t10.5 -0.5t12.5 -7t13.5 -7h23q3 0 15 6t14 8q36 8 107 12.5t108 12.5q4 0 13 6.5t11 9.5q27 1 140 13t118 12h39q1 0 11.5 6t11.5 6 q42 14 53 14q2 1 30 14.5t33 14.5h91q24 -25 31 -63q4 -24 4 -45q0 -13 -1 -25q-2 -13 -2 -26q0 -21 4 -44l25 -53v-55q-1 -7 -3.5 -23t-4.5 -29t-2 -14q-4 -6 -23.5 -27t-27.5 -26q-5 -2 -7 -2q-18 0 -32 41q-2 6 -7.5 41t-5.5 39q-1 5 -18.5 40t-20.5 44q-3 1 -8 6.5 t-10 11.5l-6 6h-39q-48 -12 -66 -12q-5 -3 -53.5 -7.5t-60.5 -4.5q-2 -1 -25 -8.5t-24 -8.5q-6 -1 -19.5 -6t-19.5 -6q-8 -2 -52.5 -7t-52.5 -5q-8 -3 -32.5 -9t-30.5 -6q-76 -30 -76 -41l12 -229h21q18 0 38.5 3t33.5 6t39 9.5t36 8.5l17 7q16 7 20 9h191l16 -16 q0 -5 12 -41q1 0 5.5 -12.5t4.5 -14.5q0 -1 -2 -6.5t-4.5 -12t-3.5 -8.5l-28 -26q-69 -23 -101 -27q-5 -1 -45 0t-45 0q-7 -1 -56.5 -18.5t-60.5 -22.5l-88 -12v-324q12 -2 44.5 -4.5t67.5 -4.5t42 -3h78q2 0 37 -6t41 -6h32q33 0 95 11t88 13q16 1 47.5 -2.5t42.5 -3.5 q0 2 3.5 16.5t2.5 16.5q-1 4 -13.5 33.5t-13.5 33.5q-3 25 -8 97q-4 60 -4 84v8q-12 18 -12 24q0 4 4.5 20.5t7.5 20.5q23 72 74 72l28 -2q16 -3 52 -27q5 -5 7.5 -13t3.5 -20q2 -11 2 -19v-9v-12q0 -12 -1 -13v-49q0 -7 -12 -67q0 -2 -8 -14.5t-7 -14.5q0 -1 13.5 -18.5 t13.5 -18.5v-45v-12.5v-12.5t-0.5 -11t-1 -10.5t-2 -9t-3.5 -9.5l-5 -7.5t-6.5 -7t-9 -5.5t-11.5 -5h-10l-15 -12q0 -17 -5.5 -58.5t-10.5 -52.5q0 -6 -15.5 -21.5t-21.5 -15.5h-197q-4 0 -55.5 -9t-56.5 -9h-205q-3 0 -33 -6.5t-33 -6.5q-8 -1 -43.5 -1t-44.5 1 q-1 -5 -3.5 -7.5t-6.5 -3.5t-6.5 -1.5t-8 0t-7.5 0.5q-9 0 -25 6t-25 6h-10q-2 -2 -23.5 -7t-27.5 -5l-13 -1q-14 0 -30.5 -0.5t-24.5 -0.5q-5 0 -15.5 1t-16.5 1q-21 20 -75.5 22.5t-76.5 20.5q-2 0 -4.5 6t-4.5 12t-3 7q-3 3 -11 19.5t-10 21.5q-2 6 -2 8z" />
<glyph unicode="F" d="M23 1169q0 1 12 37q3 2 20.5 18t33 28.5t20.5 15.5q2 2 15.5 8.5t20.5 7.5q10 0 52 14q1 0 10 5.5t10 5.5h37q1 0 12.5 6t12.5 6q28 10 77 15t68 10h354q0 3 5 8.5t8 5.5q34 11 99 14.5t93 9.5q2 0 13 6.5t12 6.5q36 12 49 12q2 2 18 9t19 7q9 0 28 -6t19 -10q4 -1 8 -27 t4 -36q1 -3 6.5 -24t5.5 -24v-41q0 -3 -6 -37.5t-6 -37.5v-88q0 -8 13.5 -55t13.5 -54q18 -26 18 -45t-9 -45.5t-9 -52.5q-5 0 -16 -12.5t-17 -12.5q-38 0 -41 8q-2 2 -13 25t-12 24q-21 21 -24 27q-39 69 -39 176q0 25 7 78t7 78v12l-108 -12q-36 -12 -39 -12h-94l-25 -15 q-73 -16 -170 -24h-74q-2 0 -17.5 -6t-19.5 -7q-8 -5 -12.5 -14t-7 -22t-4.5 -17q0 -3 -12 -20t-13 -19q-4 -11 -7.5 -41t-16.5 -47v-229q0 -12 13.5 -25.5t25.5 -13.5h217q3 0 7.5 4.5t4.5 7.5q2 0 2 33q0 31 -2 31q0 6 -10.5 21t-16.5 18q4 5 11.5 21.5t15.5 34t10 21.5 q18 25 45 25h6l50 -12q13 -5 18 -20.5t5 -40t1 -29.5q0 -4 12 -76q37 -16 37 -39q0 -19 -14 -54t-14 -55q0 -26 19 -71t19 -70q0 -19 -12 -31t-31 -12h-4q-20 4 -36 12l-13 11q-4 9 -18.5 35.5t-18.5 29.5q-44 51 -51 51h-217q-11 0 -39.5 -9t-32.5 -15q-2 -7 -8 -37t-6 -43 q14 -19 14 -23v-39l-14 -127q0 -11 2 -75.5t2 -77.5q1 0 5 -1t5 -1q5 2 36.5 8t35.5 6h49q2 0 13 6t23 13t13 8q9 2 13 2q5 0 8.5 -0.5t7 -2t5 -2.5t5.5 -4.5t6 -5.5q8 -5 17.5 -15.5t9.5 -12.5v-88q0 -2 -15 -12t-22 -11q-18 -11 -54 -18.5t-42 -9.5q-1 0 -12.5 -6.5 t-12.5 -6.5q-22 -6 -135 -12h-33q-2 0 -18.5 -7t-19.5 -7q-86 -13 -140 -13h-30q-6 2 -25 17t-23 22q-26 39 -26 66v10q19 31 54 48.5t71 17.5l22 -3q1 0 12 -5t13 -5q5 -1 11 -0.5t14.5 1.5t9.5 1v201q13 15 13 45t13 45q-2 23 -2 107.5t2 107.5q0 8 5.5 84.5t5.5 83.5 l1 14q1 14 1 19q0 18 -6.5 56t-6.5 57v8q7 77 11 90q1 2 6.5 12t5.5 12q12 24 12 37q0 7 -1 35.5t-1 34.5q-5 0 -34.5 4.5t-35.5 3.5q-20 -5 -62.5 -34t-66.5 -29q-37 0 -53 24q-26 52 -26 53z" />
<glyph unicode="G" d="M29 739v6q0 14 6 36.5t18 56t13 36.5q72 171 153 269q57 65 78 82q1 1 18.5 6t18.5 6l14 27q10 11 21.5 19.5t19.5 12.5t25 11t24 10q2 1 25.5 14.5t47 26t28.5 14.5q8 2 52 7t50 5q60 15 64 15q2 0 12.5 -7.5t11.5 -7.5q12 -2 66.5 -12.5t64.5 -13.5q1 0 18.5 -6 t18.5 -6h51q22 -5 63 -28.5t70 -23.5q0 6 -3 64q-3 44 -3 60v7l15 68q0 3 36 12l14 1q14 1 17 1q49 0 72 -14q4 -3 9.5 -9t11.5 -12l5 -6q0 -3 -5 -20.5t-7 -20.5q-2 -6 -6 -20.5t-5.5 -19t-5.5 -15.5t-6.5 -16t-6.5 -14t-9 -17t-12 -18v-150l12 -25q-7 -29 -21.5 -116.5 t-15.5 -110.5q-2 -4 -2 -39q0 -28 2 -28q0 -3 12.5 -15t12.5 -14q0 -3 -10 -18.5t-15 -20.5q-14 -14 -45 -14q-55 0 -96 41q2 9 2 45.5t-2 46.5q0 4 -5.5 17t-8.5 16h41v75q0 10 4 35.5t8 32.5q-12 6 -12 14q-13 11 -39.5 34t-45.5 40.5t-20 17.5l-63 17q-3 0 -19.5 5 t-19.5 7q-4 1 -38.5 6t-37.5 6q-2 0 -10.5 3t-18.5 7t-12 5h-35q-80 0 -141 -27q-1 -1 -19 -15t-20 -14q-11 0 -39 -14q-36 -24 -51 -39l-154 -162q-5 -5 -31.5 -39.5t-29.5 -40.5q-6 -7 -10 -13.5t-7 -15t-4 -13.5t-4 -18t-4 -19l-22 -148l61 -217q-3 -5 -3 -20.5t3 -20.5 l5 -5q5 -4 9.5 -8t8.5 -8.5t4 -5.5q2 -3 12 -39.5t12 -39.5q1 -2 13.5 -13.5t13.5 -13.5q2 -8 12 -36.5t13 -31.5q8 -5 28 -21t21 -20l28 -41q18 -15 58.5 -29t56.5 -24h178q13 0 49.5 28t59.5 28q19 0 22 -3l37 -24q0 12 12 174v12q0 28 -8 96q-5 49 -5 81q0 13 1 24 q-6 1 -67.5 8.5t-73.5 7.5q-9 0 -56.5 -1t-56.5 -1q0 -3 -2 -14t-2 -14q12 -23 12 -25q15 -60 15 -68q0 -1 1 -12.5t1 -13.5q0 -49 -29 -68q-40 16 -63 39l-39 55q-36 90 -39 93q-1 1 -6 15t-6 15q-3 15 -3 21q0 24 27.5 61t52.5 37q25 -14 27 -14l10 14q48 34 66 43h207 q3 -2 35.5 -7t41.5 -5q6 0 55 5t58 7h12q60 -12 76 -12q78 -26 78 -115q0 -27 -2 -43t-14 -31.5t-35 -15.5q-17 0 -50 7t-49 7l-4 -2q-6 -3 -22 -18.5t-17 -20.5q-5 -5 -12 -41v-40q-2 -6 -7 -46t-5 -47q0 -19 12 -55q0 -3 5 -64.5t7 -68.5q2 -14 14.5 -40.5t12.5 -47.5v-6 q-5 -28 -14 -56q-3 -10 -26.5 -24t-33.5 -14q-17 0 -28 26q-3 1 -7 18.5t-4 20.5l-41 70q-18 -18 -38 -31.5t-36 -21t-40 -12.5t-39 -7t-45 -5t-45 -5q-6 0 -51 -15h-9q-69 0 -148.5 35t-135.5 86q-6 5 -19 18.5t-23 24t-12 11.5q-4 11 -30 67.5t-31 67.5q-1 2 -19.5 32 t-19.5 35v39q-3 18 -39 109q0 2 -6 7.5t-6 6.5l-14 68q0 3 -5.5 26.5t-5.5 26.5q-3 13 -8.5 21t-5.5 18v14q0 2 7 21t7 22l-14 25q-1 2 -5.5 30.5t-6.5 36.5z" />
<glyph unicode="H" d="M-25 28q1 10 5 31q1 1 3 4t4.5 5.5t4.5 3.5q5 5 25 15.5t22 10.5h39q10 0 43.5 5t40.5 8q-2 23 -2 102t2 102q12 48 12 76q0 1 1 6t1 6l-2 13q0 6 -6 40.5t-6 35.5q0 9 2.5 43.5t5.5 74.5t4 52q2 2 8 24.5t6 26.5q25 162 25 317q0 8 -1 52t-1 53q-3 9 -13.5 11t-20 0.5 t-15.5 0.5q-19 3 -40.5 24t-21.5 43q0 40 13 60q5 4 24 13.5t25 10.5q3 1 14.5 1h23t22.5 -1h11q12 0 99.5 5.5t95.5 5.5h27q2 0 24.5 -5.5t24.5 -5.5h8q7 1 15 1.5t15.5 0t8.5 -1.5q3 -2 18 -26t19 -37v-12q-2 -6 -18.5 -28.5t-18.5 -25.5q-9 -8 -22 -10t-25 -1t-27 -1 q-8 -1 -30 -2.5t-32 -3.5t-25.5 -7t-24.5 -16t-15 -28q-20 -243 -28 -307v-15q0 -2 -5.5 -18.5t-5.5 -18.5q0 -5 2 -32t2 -31l201 -4l133 18q6 0 15 -1q36 0 129 7q18 0 63 15q2 5 13 40t21 68t13 45q31 105 37 140q0 3 -2 24t-2 25q-1 0 -5 1t-5 1q0 -1 -10.5 -8t-12.5 -7 q-2 -2 -39 -2q-33 0 -35 2q-1 0 -5.5 5.5t-10.5 12.5t-8 9q-10 14 -23 39q-2 0 -2 16v4q0 15 1.5 18.5t11.5 10.5q5 7 19.5 17t16.5 10h48q2 0 13.5 6t12.5 6l37 14q165 34 193 37q1 0 9 0.5t18.5 1t15.5 0.5q102 0 102 -57q0 -39 -12 -74q-10 -10 -11 -10q-26 -9 -77 -15.5 t-70 -11.5q-8 -10 -10 -12q-14 -17 -25 -51q-1 -3 0 -20t0 -19q-2 -5 -11 -15t-13 -10q-2 -20 -16 -79.5t-21 -73.5q-20 -41 -23 -51v-37q0 -16 -5 -61l-5 -44l-39 -127v-78q2 -6 6 -43.5t4 -44.5v-53q0 -2 7.5 -12.5t7.5 -11.5v-25q-1 -2 -4.5 -11.5t-7 -18t-3.5 -9.5 q0 -2 5.5 -8t9.5 -6l61 14l72 27q4 2 6 2l4 -2q37 -22 37 -27v-37q0 -2 7 -13.5t7 -12.5v-27q-5 -7 -19.5 -21t-17.5 -14q-49 -16 -61 -18h-35q-2 0 -13.5 -5.5t-13.5 -5.5q-3 -1 -11.5 -4t-15 -5.5t-7.5 -2.5q-11 -2 -74 -7t-72 -5q-2 0 -18.5 -7t-18.5 -7q-81 -13 -88 -13 q-46 0 -69 80v23l-15 12q-4 12 -4 20q10 0 41 3t35 4q3 0 23.5 4.5t27.5 7.5l72 24l24 13l13 180l-13 25v163l-77 2h-62.5h-30.5q-47 0 -182 -10q-36 -2 -96.5 -17t-93.5 -18v-26q14 -28 14 -39q2 -29 2 -41q0 -6 -1 -25l-1 -20q0 -9 -6 -63.5t-8 -65.5q0 -6 1 -38t1 -38 q3 0 17 -1t16 -1q50 10 61 10h35q9 -7 27.5 -26.5t21.5 -26.5q2 -23 2 -35q0 -5 -1 -23l-1 -18q0 -3 -5 -7.5t-7 -4.5l-49 -14q-17 -2 -89 -13t-84 -12h-71q-3 0 -24.5 -7t-24.5 -7q-39 0 -109 14q-15 3 -23 13t-8 28q0 15 2 30z" />
<glyph unicode="I" d="M264 49q0 4 -1 6q0 3 2 12q1 5 4.5 8.5t9.5 6.5q74 37 90 41h61q2 0 14 6t13 6q10 1 44.5 1t45.5 -1q-33 24 -39 53l-12 160v82q0 9 -6.5 87.5t-6.5 86.5v150q0 5 6.5 53t6.5 53v68l26 176q0 3 5 33t5 34q1 4 0 21l-2 18q-6 0 -54 9t-58 8q-5 -1 -31 -19.5t-31 -23.5 q-6 -3 -12.5 -7t-11 -6t-8.5 -2l-7 2q-4 2 -10.5 8.5t-12 12.5t-10.5 12l-5 6q-5 35 -5 47q0 4 2.5 24.5t2.5 23.5q19 27 67 55.5t84 38.5q32 -3 135.5 -3t132.5 3l181 26q1 0 12 7.5t12 7.5q3 0 20 -7.5t19 -7.5q3 0 20.5 7.5t18.5 7.5q10 -9 12 -15l29 -51q0 -3 -7 -21.5 t-7 -21.5v-12q-29 -36 -39 -41l-117 -27h-39l-88 -12q0 -1 -6 -6.5t-8 -5.5q-2 -14 -25 -84q-1 -2 -5.5 -38.5t-6.5 -41.5q0 -2 -5.5 -20t-6.5 -19v-53q-10 -78 -15 -94q0 -4 -4 -21t-6 -20v-27l-14 -96q0 -1 -0.5 -15t-1 -30.5t-0.5 -22.5q0 -8 0.5 -23.5t0.5 -28.5l1 -13 q7 -22 14 -29q-2 -36 -2 -73q0 -160 39 -331h12q24 0 71.5 7.5t71.5 7.5h9q16 -1 45.5 -7t31.5 -8q18 -5 28.5 -27.5t10.5 -43.5l-2 -8q0 -7 -2 -20.5t-4.5 -23.5t-3.5 -10q-4 -6 -29 -16t-34 -10h-193q-3 0 -31 -7.5t-32 -7.5h-101q-16 0 -65 -14q-24 -12 -39 -12 q-3 0 -20 6t-19 6l-76 14q-6 3 -20 19t-17 22q-2 17 -2 25v10z" />
<glyph unicode="J" d="M41 231q0 1 2 14t4.5 29.5t3.5 24.5l15 53q12 27 41.5 89t35.5 73q10 13 38.5 44t39.5 36q13 4 88 21.5t88 21.5h54q25 -6 58.5 -22t41.5 -33v-13q4 -6 15.5 -28.5t11.5 -26.5v-147q0 -13 -5.5 -39t-9.5 -29q0 -1 -9.5 -7t-22.5 -12t-19 -8h-10q-4 1 -13.5 5t-17 6.5 t-8.5 3.5q-2 12 -2 16l2 23q1 2 12.5 20t11.5 21t-11 13.5t-13 10.5q0 5 6 29t6 26q0 4 -9.5 15.5t-14.5 13.5h-23q-110 0 -170 -84q-1 0 -4 -5.5t-6 -11.5t-4 -7q-19 -28 -23 -41q0 -5 -1 -33.5t-1 -34.5q0 -7 0.5 -23t0.5 -29l1 -13l23 -56l28 -41q5 -11 31.5 -23 t44.5 -16l64 -14l12 -12q33 -13 80 -13h8q24 6 45.5 15.5t53 27.5t42.5 23q3 2 20.5 6.5t18.5 5.5l51 41q2 3 14 15t13 14q60 106 64 174v160q0 5 6 28t8 27q1 12 6.5 69.5t5.5 65.5q0 10 -6 107.5t-6 107.5v15q2 10 7.5 34t7.5 36t4.5 32t2.5 39v15v16t-0.5 14.5t-2 15 t-3.5 12.5t-6 11.5t-9 8t-12 6t-16 1.5q-29 0 -88.5 -8t-91.5 -8q-37 0 -39 2q-4 1 -25 18.5t-26 22.5q-3 0 -27 12v6q0 15 15 35q8 10 39 41q1 1 11 3t22 4.5t16 4.5q15 3 62.5 6.5t86 11t58.5 23.5q9 1 60 8t96 12.5t61 6.5h12q45 0 88 -8.5t72 -10.5q1 0 13 0.5l24 1 t23.5 0t14.5 -1.5q4 -1 15.5 -19t11.5 -21q27 -42 27 -82v-13q-35 -55 -84 -55q-23 0 -41.5 8t-42 24t-37.5 23q-4 -1 -25 -5t-39 -7.5t-44 -6.5t-46 -3q0 -15 3 -173q3 -123 3 -170v-20q0 -5 -6 -46.5t-6 -45.5q-1 -4 -1 -22t0.5 -38.5t0.5 -21.5q-2 -5 -6 -33t-4 -34 q-1 -23 -1 -106.5t1 -108.5q-4 -3 -10 -13.5t-6 -13.5v-41q0 -3 -12 -27t-13 -28q-1 -1 0 -19t0 -20q-2 -2 -17.5 -29t-19.5 -39q-5 -5 -26 -38.5t-25 -41.5q-4 -3 -14 -25t-13 -30q-1 -1 -24.5 -5.5t-26.5 -6.5q-4 -2 -34.5 -27.5t-43.5 -38.5q0 -2 -6 -8t-8 -6 q-10 -7 -60 -23t-67 -18l-19 -1q-19 0 -42 -0.5t-33 -0.5q-8 0 -49 1t-48 1q-6 4 -103.5 41t-113.5 67l-39 80q-1 2 0 19.5t0 19.5t-6.5 8.5t-10.5 13t-5 7.5q-3 3 -9.5 13.5t-6.5 13.5v26q0 3 -12.5 26.5t-12.5 26.5z" />
<glyph unicode="K" d="M-33 1257q0 3 1 12l1 9q24 37 25 37q4 3 35 14q4 1 42.5 6t41.5 7q6 0 39.5 13t35.5 13q5 0 36 5.5t34 6.5q3 0 14 5.5t13 7.5q54 26 98 26q32 0 46.5 -27t14.5 -65v-24q-10 -11 -14 -13q-3 -3 -27 -13t-34 -11q-4 -2 -35.5 -14t-38.5 -13q-10 -5 -10 -33q0 -18 9.5 -27 t21 -10t21 -7t9.5 -19l-2 -4q-1 -2 -10.5 -25.5t-9.5 -28.5l-17 -129q0 -1 -6 -11t-6 -11v-92q0 -1 6 -18t6 -19v-76q0 -2 4.5 -5t8.5 -5l4 -2q0 -7 -4.5 -38.5t-4.5 -37.5l17 -2q3 2 35 23.5t41 25.5q5 6 30.5 28.5t28.5 26.5q4 0 12 16t8 19q9 10 28.5 22.5t23.5 16.5 l14 14q1 0 5.5 12t4.5 15q2 0 18.5 10.5t20.5 14.5q81 77 133 151q1 1 2.5 8t3.5 12.5t4 6.5q51 64 123 115v12q-16 4 -49 26l-12 11q-1 3 0 21t0 20q-23 24 -25 24l37 64q4 7 8.5 10.5t6.5 4t9.5 0t10.5 -0.5q20 0 28.5 -7t20.5 -7q33 0 100 7t103 7h78q10 -5 10 -26 q0 -30 -10 -76q-3 -12 -24.5 -18t-24.5 -9q-1 -1 -16 -30t-19 -33q-4 -3 -38 -19t-36 -18q-5 -7 -31 -35t-30 -31q-2 -1 -16.5 -10.5t-28 -18t-15.5 -10.5q-10 -4 -26 -37l-144 -155q1 -1 5 -12.5t5 -12.5l13 -39q0 -1 5.5 -6t11.5 -10t7 -6q2 -4 12.5 -34t12.5 -34l37 -37 q2 -5 5.5 -33t4.5 -30l25 -39q2 -2 13 -25.5t13 -25.5q1 -4 23.5 -38.5t23.5 -39.5q4 -8 43 -88t68 -115q1 -2 12 -13.5t12 -13.5q0 -2 5 -13t8 -11h12q27 0 60 7t57 7q45 0 74 -65q0 -6 12 -54v-4q0 -8 -7 -14t-13.5 -9t-18 -6t-12.5 -3l-21 -13h-49q-4 0 -30 -6t-29 -6 h-84q-7 0 -51 6t-48 6h-108q-3 0 -22 2t-25 3t-20 3.5t-23.5 7t-18.5 11.5q-6 4 -9 7t-4.5 7.5t-1.5 7.5t0.5 11t0.5 14v29l24 24q47 39 52 39h121q-2 12 -12.5 52.5t-14.5 50.5q-2 6 -24 40t-23 37q-67 111 -72 127q-6 10 -26.5 50t-24.5 53l-23 63l-12 25q-2 3 -23.5 24.5 t-23.5 26.5q-28 -32 -76 -63q-22 -11 -24 -13q-9 -12 -60 -63q-4 -5 -28.5 -28.5t-51.5 -47.5t-30 -27q0 -5 -13 -12q-1 -1 -9 -3.5t-15.5 -5t-7.5 -3.5v-41q0 -4 4 -44t4 -44v-13q1 0 6.5 -6t5.5 -8v-24q4 -14 15 -22.5t21.5 -11t19 -6.5t8.5 -12q0 -5 -5.5 -20t-9.5 -19 q2 0 74 -12q12 -3 24.5 -31t12.5 -45q0 -44 -25 -63l-35 -27h-112q-4 0 -41.5 -6t-40.5 -6q-2 0 -31 -0.5t-64.5 -1t-52.5 -0.5q-10 0 -32.5 1t-34.5 1q-51 18 -51 57q0 11 13.5 39t25.5 33h24q5 2 30 6t29 4q15 1 41 -1.5t37 -2.5q0 6 2 35.5t2 34.5q0 1 -7 12t-7 12 q0 15 -12 39q-4 22 -2 52t4.5 58.5t1.5 29.5l-1 16q-1 17 -1 22q0 21 -8 57t-11 56.5t5 52.5q2 27 2 160q0 156 -2 162q0 4 -5.5 44.5t-5.5 45.5v39v14v13t0.5 11t1.5 12t3.5 11.5t5.5 14.5q1 1 4 3t5.5 4t2.5 3q2 10 2 14q-2 11 -2 13q-5 3 -49 12q-1 0 -14 -0.5 t-26.5 -0.5h-27t-16.5 1q-8 3 -32 23t-28 28q0 1 -1 8.5t-1 9.5z" />
<glyph unicode="L" d="M18 -10q0 19 9.5 32.5t27.5 14.5q17 4 85.5 16.5t84.5 16.5q6 0 38.5 6t37.5 8q12 6 12 12q1 4 1 21.5t-0.5 38.5t-0.5 22q2 5 8.5 33.5t6.5 32.5v135l14 55v4q0 46 -7 138.5t-7 138.5q0 53 14 82v241q-1 2 -14 41q0 6 -6 40.5t-9 39.5q0 15 -18 15q-23 0 -69.5 -8.5 t-71.5 -8.5q-18 0 -28 1t-24.5 5t-22 15t-7.5 28v21q1 1 4.5 7t6.5 11.5t3 7.5v15q8 12 23 24t28 15q10 3 125 26q8 1 45 1t79.5 -0.5t43.5 -0.5q8 0 71 6.5t68 6.5h105q24 -6 24 -74v-4q-31 -89 -102 -94q-14 -2 -64 -2t-63 2q-16 -31 -16 -99q0 -33 8 -96.5t8 -97.5v-17 q0 -28 -16 -108l1 -24v-45t-1 -25q0 -2 -5 -14t-6 -13v-12q2 -6 6.5 -41t4.5 -41l1 -35q1 -35 1 -47q0 -9 -0.5 -28t-1 -35t-0.5 -17q0 -2 -5.5 -26.5t-5.5 -26.5t5.5 -20.5t5.5 -20.5q2 -5 2 -9l-2 -6q-9 -10 -11 -14q-3 -10 -7.5 -41.5t-4.5 -36.5q1 -7 11.5 -42.5 t11.5 -39.5q13 2 53.5 2t52.5 -2q4 0 133.5 -13t145.5 -13q19 0 118.5 3t116.5 3q-1 4 -3 60q-2 40 -1 57v10t7 21t7 20q0 5 -7 60t-7 61q0 1 -1 10.5t-1 11.5l2 16q0 3 6 10t8 7q11 24 13 26q7 9 21.5 24t17.5 15q8 4 44.5 9.5t47.5 5.5v-244q22 -9 22 -31q0 -13 -22 -22 v-350q0 -3 -17 -24.5t-24 -27.5l-9 -1q-9 -1 -12 -1l-18 2q-5 1 -24 16t-27 23q-2 2 -7.5 13t-5.5 14v16q-2 1 -12.5 12t-13.5 13q-9 2 -103 14q-12 1 -77.5 8t-75.5 7h-78q-3 0 -12.5 4.5t-12.5 7.5h-192q-36 -12 -37 -12q-3 -2 -25.5 -8.5t-25.5 -6.5q-1 0 -6.5 -3 t-12.5 -6.5t-8 -4.5h-37q-1 1 -7.5 4.5t-12 6.5t-6.5 3h-49q-41 0 -85.5 -9t-84.5 -9h-17q-2 1 -10.5 10t-17.5 19l-9 10q-5 4 -16.5 11t-16 14t-4.5 22z" />
<glyph unicode="M" d="M61 1184q0 15 10.5 25.5t30.5 20.5l21 9q0 3 -1 37t-1 39t-0.5 18t-1 23.5t-0.5 11.5t-5 13t-5 14q-13 26 -13 39v53q3 17 40 37t57 20q18 0 18 -2q19 -27 25 -41q20 -37 31 -119.5t32 -119.5q2 0 16 -1t17 -1q5 0 19 1l14 1q24 2 127.5 17t125.5 21q8 11 26.5 19t27.5 8 q3 0 12.5 -5t11.5 -7q27 -27 27 -29q3 -4 7.5 -40t4.5 -54q1 -11 0.5 -26t-1.5 -35.5t-1 -24.5q4 0 51 -4.5t56 -3.5q23 4 68 14t81 15.5t68 5.5q54 0 69 -15q6 -20 21 -87.5t16 -86.5q3 -40 4 -174v-61q0 -83 -2 -113q13 -39 13 -57v-15q0 -1 -6.5 -12t-6.5 -12t6.5 -14 t6.5 -15q0 -6 -3.5 -66t-3.5 -67q2 -7 2 -68q0 -15 -0.5 -33t-0.5 -34q0 -60 2 -68v-106l-15 -80q-2 -7 -6 -11t-10.5 -5t-11.5 -1.5t-12.5 0t-8.5 0.5l-29 2q-6 1 -20.5 17.5t-16.5 21.5q-1 4 -1.5 19t0 30.5l1 31t0.5 16.5q-4 20 -4 120v39q0 5 4.5 41t4.5 41 q-1 9 -1 53.5t0.5 95.5t0.5 52q-2 9 -8.5 55.5t-6.5 53.5v135q0 4 -4 46t-4 48v41q-1 4 -12.5 39t-12.5 41q-15 -17 -45.5 -23t-66.5 -7t-49 -5q-2 0 -19 -6t-20 -6q-4 -1 -33 0t-33 0q-12 -12 -12 -13q0 -4 5 -14t7 -12v-215q-2 -1 -4.5 -13t-4.5 -26.5t-3 -16.5 q0 -2 5 -20t5 -19q0 -2 -5 -14.5t-5 -13.5v-107q1 -9 5.5 -61.5t4.5 -61.5q0 -1 -2 -23t-4 -51t-2 -46q0 -11 -1 -74t-1 -74q-41 -26 -84 -26q-22 0 -39.5 9.5t-17.5 30.5v13q0 1 4 11t7 18.5t3 11.5q0 11 -14 67v13q2 13 8 75t6 72q2 34 2 149.5t-2 147.5q9 22 10.5 40.5 t-1.5 44.5t-3 42q0 6 -0.5 19t-1 23t-0.5 11q0 19 -12 43q-1 1 4 23t4 24v39q0 1 -6 13t-8 14v20q0 15 8 41t8 41q0 33 -16 47q-13 13 -25 13l-246 -27q-5 0 -12 -14q-1 -1 -3 -12t-4.5 -24.5t-4.5 -17.5q-4 -15 -8.5 -51t-4.5 -43q-2 -51 -2 -188t2 -189q-4 -4 -8 -29 t-4 -38q12 -23 12 -27v-78q13 -104 13 -147q0 -2 0.5 -26t1 -53.5t0.5 -43.5q0 -9 -1 -60.5t-1 -60.5q-15 -39 -25 -53q-3 -6 -26 -29h-11q-39 13 -41 15q-10 9 -29 29t-20 26q-2 25 -2 35q0 24 7 58.5t7 58.5q0 34 -14 93t-14 89v405q4 0 10 10.5t6 16.5q0 12 -16 92v14 q0 21 8 62.5t8 64.5v7q-2 7 -5.5 27t-6.5 36t-4 18q-10 11 -10 13q-18 4 -33 33.5t-15 52.5z" />
<glyph unicode="N" d="M18 -88q3 3 16 16.5t23.5 24.5t14.5 14q5 5 37 13l114 14q2 4 2 6q0 8 -6 23t-6 24v14q0 2 5 20.5t5 20.5q2 0 2 72q0 60 -2 62q0 5 -11.5 35t-12.5 32l-13 68v26q0 18 -12 54v81q0 6 -13.5 68t-13.5 68q-3 25 -3 113t3 114l-12 12v164q0 15 -12 51q0 2 -5.5 8t-8.5 7 l-18 12q-18 12 -19 14q-9 12 -25 68v14q0 41 76 41l37 -2q25 -5 39 -12q3 -4 13 -35t11 -31q24 -50 92 -135q2 -5 11 -22.5t12 -20.5q6 -3 40.5 -39.5t37.5 -38.5l51 -26q4 -5 26 -28.5t25 -27.5q2 -2 14 -6.5t13 -5.5q3 -3 12 -21.5t12 -19.5q17 -9 127 -27q14 -7 78 -55 q0 -1 5.5 -3.5t13 -5t8.5 -3.5q0 -4 4.5 -16t7.5 -13q23 -35 51 -37v13q-2 6 -7 51.5t-5 54.5l-14 162q0 2 -6.5 26t-6.5 27v21q0 13 6.5 34.5t6.5 30.5v8q-25 75 -25 80q-1 4 0 28.5t0 27.5q-1 2 -6 4.5t-11.5 4.5t-7.5 3h-51q-29 6 -41 14q-7 6 -27.5 32t-23.5 34v43 q45 33 96 43t121 10q41 0 119.5 -7t118.5 -7h69q3 6 18.5 16t22.5 10q4 0 24 -10t28 -16q2 -7 2 -13q0 -31 -25 -63t-53 -45q-61 -27 -66 -27q-4 -1 -12 -1q-21 0 -71 4q-69 5 -74 5q0 -5 1 -40.5t1.5 -60.5t-0.5 -42q0 -4 -6.5 -34.5t-6.5 -33.5l5 -14q5 -15 9.5 -32.5 t4.5 -26.5q0 -7 0.5 -25t0.5 -34l1 -15q0 -5 6 -53.5t6 -53.5v-67q0 -5 1 -81.5t5 -94.5q0 -1 6.5 -19.5t6.5 -19.5q0 -3 -6.5 -27.5t-6.5 -27.5v-109q0 -8 16.5 -127t18.5 -133q13 -32 13 -64q1 -10 -1 -20q-6 -42 -28 -61q-5 0 -7 -2.5t-1 -5t1.5 -5t-0.5 -3t-6 2.5 q0 -2 -11 -0.5t-21 3t-13 -0.5q-7 -14 -10 -14t-14.5 5.5t-14.5 8.5q-29 24 -40 47t-11 62q0 19 15 39v340q0 10 -5 31t-8 26q-3 2 -19.5 7t-19.5 5q-23 10 -74.5 64.5t-66.5 64.5q-2 1 -12.5 13.5t-12.5 13.5t-14 4t-23.5 6.5t-15.5 5.5q-2 0 -30 18t-31 19q-85 42 -103 56 q-3 1 -18.5 19t-17.5 21q-3 2 -14.5 10t-17.5 12t-17.5 10.5t-19.5 10t-17.5 6.5t-16.5 3q0 -8 -1 -44.5t-1.5 -61.5t0.5 -42q0 -3 7 -33t7 -34v-93l23 -161l14 -43q21 -73 25 -172v-54q5 -21 12 -28q2 -1 27 0.5t26 -0.5q8 -3 22.5 -18.5t14.5 -22.5q0 -1 -4.5 -13.5 t-11 -29t-8.5 -23.5q-10 -29 -27 -55q0 -3 -5.5 -26.5t-6.5 -24.5q-7 -15 -19.5 -25.5t-30 -15.5t-30 -7.5t-33.5 -4.5t-27 -3q-5 -2 -32 -8t-31 -6l-33 -1q-33 -1 -45 -1q-5 0 -38.5 1t-39.5 1q-7 4 -23 54t-16 63v4z" />
<glyph unicode="O" d="M20 592v26q24 118 29 136q18 105 62 174q1 2 25.5 27t25.5 28q2 2 8 21t6 20q0 3 49 68q18 21 48 32t44 33l175 94q11 -2 24 -2q32 0 74 13q58 18 86 18l37 -2q5 -2 25 -12.5t24 -14.5q1 -1 14 -12.5t15 -10.5q30 -20 100 -48t102 -50q1 -2 13.5 -12t29.5 -22.5t23 -18.5 q27 -25 47.5 -86.5t28.5 -75.5l51 -79q0 -2 5.5 -7.5t6.5 -5.5l12 -28v-41q3 -10 28.5 -58t25.5 -78q0 -10 -6.5 -62.5t-10.5 -72.5q0 -4 -4.5 -25t-7.5 -28q-1 0 -5.5 -12.5t-4.5 -14.5q-2 -3 -13.5 -39.5t-13.5 -39.5q-3 -6 -19.5 -28.5t-19.5 -25.5q-4 -6 -22.5 -33 t-25.5 -37.5t-22.5 -30.5t-28.5 -35t-28 -28l-39 -24l-78 -82l-38 -27q-11 -12 -11 -14q-21 -12 -72 -37.5t-57 -27.5l-14 -1q-14 -1 -31 -2.5t-24 -1.5q-12 0 -47.5 2.5t-36.5 2.5q-9 1 -38 11t-38 15q-27 19 -110.5 81t-106.5 81q-2 1 -13.5 12t-13.5 12q-1 4 -11.5 21.5 t-12.5 19.5q-1 2 -19.5 15t-19.5 14q-61 55 -105 133l-47 94v41q0 4 -7 28l-7 24v43q0 3 -7.5 26.5t-7.5 26.5zM176 592q0 -3 6 -26.5t6 -26.5q1 -9 4 -35t5 -39.5t7 -34t14 -37t22 -31.5q8 -10 58 -62.5t54 -57.5q3 0 15 -5.5t14 -7.5q0 -4 12 -28q1 -2 7 -7t6 -6 q3 -3 24.5 -13.5t26.5 -12.5l51 -56q1 -1 18.5 -6t18.5 -6q3 -1 13 -13.5t11 -12.5l16 -8t23.5 -12.5t12.5 -6.5t19.5 -2t25.5 -2q5 0 18 2l14 2l179 94q27 27 28 27l39 26q11 10 23 23.5t19.5 22t21 27t17 23.5t18.5 28t16 24q32 61 63 108q0 2 3 23.5t6 47t4 36.5v33 q0 126 -27 170q-2 3 -12 14t-13 12q-36 43 -39 56q-12 24 -12 41q-2 4 -24 45.5t-27 48.5q-1 1 -12.5 12t-14.5 12q-5 6 -100 54q-1 0 -15 9.5t-17.5 13t-10.5 13t-8 19.5q-5 -5 -10.5 -8.5t-14 -4.5t-13.5 -1.5t-15.5 0t-12.5 0.5q-19 0 -54 7t-54 7h-21q-2 -2 -12 -7 t-12 -5q-7 -3 -44.5 -15.5t-47.5 -13.5q-19 -14 -23 -14q-2 -1 -19 0t-20 0q-3 -2 -28 -23t-35 -31l-17.5 -17.5t-29 -29.5t-19.5 -20q3 -2 3 -13t-3 -14q0 -3 -9.5 -12.5t-12.5 -11.5l-27 -54q-3 -6 -13.5 -24.5t-14 -25.5l-11 -22t-11 -24.5t-8 -23.5t-6.5 -27 q-12 -46 -12 -84z" />
<glyph unicode="P" d="M12 1290v13q33 33 37 36q20 14 86 25q9 3 37 9t37 9q14 -14 27 -14q18 14 20 14q69 15 184 15l95 -2q25 0 69 -12.5t55 -14.5q14 -1 46 -4t52.5 -5t48 -6t48.5 -10q40 -8 72 -24q2 -1 24.5 -13.5t26.5 -13.5q1 -1 28 -5t29 -5q11 -12 15 -12q2 -2 22.5 -9.5t24.5 -7.5 q5 0 32.5 -14.5t38.5 -21.5q35 -23 37 -27q7 -5 12.5 -11t9 -15t6 -15.5t5.5 -18t4 -16.5q2 -2 7 -11.5t5 -12.5q4 -12 8.5 -46.5t4.5 -42.5q0 -2 -6.5 -13.5t-6.5 -12.5v-27q-8 -34 -12 -39q0 -2 -5 -5.5t-5 -4.5l-27 -53q-5 -10 -59 -64q-2 0 -13 -5.5t-12 -6.5t-3.5 -8 t-5 -12t-3.5 -5q-16 -25 -65 -42.5t-56 -22.5l-24 -25q-15 -9 -77 -42t-69 -38q-8 0 -44 -4.5t-40 -7.5q-7 -1 -39.5 -12t-34.5 -12q-2 0 -14.5 0.5t-23 0.5t-13.5 -1q-18 0 -96 -13h-61q-1 1 -23 7t-25 6q-2 0 -7 -5t-5 -8q0 -7 -1 -51t-1 -51q0 -13 0.5 -37.5t1 -44 t0.5 -20.5q0 -2 6 -31.5t6 -32.5v-76l13 -63q5 -17 41 -17l30 2l25 15q3 0 13 -6.5t10 -8.5l36 -12q8 -4 12 -10t4.5 -10t-0.5 -15t-1 -16v-37q0 -4 -15 -12q-2 -2 -47 -17q-2 0 -18 -11.5t-19 -12.5q-5 -2 -58.5 -12t-74.5 -13q-102 -12 -135 -12q-20 0 -40 6.5t-43 16.5 t-36 14l-47 14q-6 3 -20.5 13t-14.5 14v2q0 31 13 59.5t37 28.5l20 -2q6 0 62 -14q10 -1 62 2.5t56 3.5l2 8q1 8 0 12q-2 8 -8 57.5t-6 55.5v424l-10 39v26q0 2 -5 25t-5 26q-3 57 -3 80q0 11 1 43l2 31q0 1 4 15.5t9 33t7 27.5q2 2 8 12.5t6 13.5q1 4 0 50t0 49t11.5 20.5 t11.5 20.5q2 8 2 12q0 10 -6 18t-6 13q0 10 32.5 28.5t44.5 18.5q31 0 56 -14q5 -4 13.5 -13.5t8.5 -13.5q1 -1 -4.5 -11t-7.5 -12l-10 -141v-65q-4 -11 -18 -40t-19 -34q0 -9 -1 -47t-1 -43q0 -11 0.5 -33t0.5 -40l1 -17q1 -2 3 -11.5t4.5 -17.5t4.5 -10h12q3 0 25 5.5 t23 6.5h135q3 0 73 14h60l26 13q17 6 60.5 22t66 24.5t57 23.5t64 32t56.5 37q5 5 17 15l21 17.5t9 8.5q5 0 24 51q1 0 13 37q12 42 12 63q0 9 -12 39q-21 32 -25 51h-12q-39 16 -74 39q-2 0 -17.5 11.5t-17.5 11.5q-1 0 -6 1t-6 1l-12 -2q-3 -1 -8 -10.5t-5 -12.5l-61 50 q-2 1 -46.5 6t-104 10.5t-93.5 7.5h-59q-7 0 -61 6t-60 6h-86q-5 0 -54.5 -6t-54.5 -6l-16 1h-29t-16 -1q-27 -4 -60.5 -17.5t-72.5 -13.5q-64 0 -64 80z" />
<glyph unicode="Q" d="M125 338v283l22 81q10 34 52 148q73 64 129 104q2 2 12.5 8.5t11.5 6.5q3 1 13.5 12t13.5 16q-7 -1 -21.5 3.5t-17.5 9.5q-2 3 -6.5 27.5t-5.5 25.5q0 1 -13 14q-14 21 -14 27q0 20 28 41t50 24l63 17q3 0 26 5.5t24 6.5h16q13 -2 83 -7t81 -5h39q2 0 19.5 -8.5 t19.5 -8.5q30 0 102 -12q112 -23 113 -24q5 -3 35 -35.5t42 -46.5q4 -6 10 -19.5t11 -29t6 -17.5q0 -2 6 -15.5t6 -15.5q0 -1 -6 -19t-6 -20v-6q0 -10 4 -15t9.5 -7t9.5 -12.5t4 -30.5q0 -5 -1 -21l-1 -16q0 -1 -6.5 -6t-6.5 -6q-2 -5 -2 -9l2 -4q4 -10 20.5 -43t20.5 -37 q1 -10 11.5 -42t13.5 -39v-41q0 -4 5 -40.5t5 -39.5t-5 -21t-5 -20l-12 -70q-3 -1 -15 -17.5t-14 -21.5q0 -3 -5 -20.5t-7 -20.5q-1 -2 -13 -12.5t-12 -11.5q-1 -3 -13.5 -33t-13.5 -37q-38 -30 -151 -109q-56 -14 -66 -24l-14 -55q0 -2 -5.5 -20t-6.5 -19v-15 q6 -9 21 -39.5t18 -39.5q3 -6 23 -21t30 -20q3 -1 19 -9t23.5 -12t17.5 -13.5t14 -19.5v-26q1 -2 10 -5t19.5 -6t11.5 -4q3 -6 8.5 -28.5t5.5 -28.5q-62 0 -78 4l-27 12h-24q-105 16 -168 82q-1 1 -3.5 7l-5 12t-3.5 6q0 1 -13.5 7.5t-13.5 8.5q0 12 -12 54v6q0 10 6 26.5 t6 26.5q0 36 -12 88h-127q-87 9 -103 14l-51 27q-2 1 -25 6t-26 6l-76 41q-4 3 -25 24.5t-45.5 47.5t-33.5 35q-35 52 -35 96zM274 492q0 -7 1 -51t1 -52q19 -77 64 -104q71 -42 102 -56l39 -14q13 -2 53 -4.5t84.5 -4.5t53.5 -3q0 2 1 10.5t1 9.5q0 27 -15 74 q-167 4 -167 121q0 53 63 53q97 0 156 -25l49 -28l39 -162l12 -14q1 -1 119 67q4 4 17 14t23 17.5t11 9.5t17.5 42.5t19.5 53.5q12 41 12 107q0 103 -37 309q-7 39 -28 68l-50 67q-5 3 -35.5 13.5t-41.5 11.5l-27 3q-27 3 -62 6.5t-53 4.5h-12q-3 0 -24 -5.5t-27 -8.5 l14 -12q2 -4 2 -41q0 -50 -2 -54q0 -2 -26 -41q-8 -14 -19 -14q-9 0 -24.5 7t-24.5 7q-26 0 -48 -6.5t-32 -12.5t-34 -24t-33 -24q-29 -17 -45 -33t-33 -47q-7 -11 -22 -42.5t-17 -37.5q-9 -45 -13 -53l-1 -42q-1 -43 -1 -60zM616 1036q0 -6 5 -6q6 0 6 6t-6 6q-5 0 -5 -6z " />
<glyph unicode="R" d="M72 1139v41q0 5 14 12q52 28 141 41q11 1 65 10t112 19.5t65 11.5q6 2 78 2q56 0 80.5 -0.5t70.5 -8t76 -22.5q6 -1 26 -11t40.5 -20.5t41.5 -21.5t23 -12q6 -5 65.5 -29t61.5 -25q28 -19 51 -28q2 -10 7 -58l6 -49v-67q-2 -3 -7.5 -20.5t-5.5 -18.5q-1 -3 0 -22t0 -21 l-39 -105l-12 -43q-3 -5 -23.5 -26t-27.5 -27q-3 -3 -25.5 -14t-25.5 -11q-3 -2 -30.5 -20.5t-33.5 -22.5q-3 -2 -15.5 -6.5t-19 -10t-6.5 -13.5q0 -20 29 -49q40 -59 51 -68q41 -41 49 -53q12 -14 22 -41t20 -64.5t12 -44.5q19 -58 51 -121q0 -1 5 -19.5t5 -19.5 q2 -2 28 -17.5t40 -22.5q3 -2 23.5 -16t36 -27t15.5 -19q-2 -4 -2 -6q-2 -5 -8 -15t-11 -17l-5 -7h-178q-9 0 -41 39l-23 53l-14 41q-5 12 -30.5 65t-33.5 83q-12 36 -12 53q-1 1 -4.5 7.5t-6.5 12t-3 6.5v29q-1 0 -16 21t-21 32l-12 15q-5 0 -29 12q-7 14 -49 70 q-14 14 -45 14q-23 0 -117 -30.5t-95 -41.5v-522l13 -14q1 -1 80.5 14.5t124.5 26.5q4 0 21 7t18 7h12q66 0 66 -111v-12l-68 -53q-31 -2 -139.5 -12.5t-139.5 -14.5q-2 0 -25.5 -7t-25.5 -7h-39q-4 0 -45 -6t-45 -6h-65q-7 -1 -25 -1h-15h-9q-6 0 -18.5 1.5t-16.5 4.5 t-12 8.5t-10 14t-4.5 21t-2.5 28.5v29q2 4 16.5 20t22.5 21l4 2q10 0 25.5 -7t27.5 -7h19l12 12q9 3 39.5 7.5t38.5 4.5q10 165 10 217q0 1 0.5 12.5t1 25t0.5 18.5q0 6 -0.5 19t-0.5 24l-1 10q0 4 -5 46t-5 46q0 3 5 27.5t5 27.5l1 11q0 11 0.5 24t0.5 19t-0.5 19t-0.5 24 l-1 10q0 1 -5 14t-5 15v133q-10 24 -12 28v17q0 44 6 133.5t6 134.5q0 14 -6 41t-6 43v6q1 1 3.5 7t5 13.5t3.5 8.5l26 65h-16q-28 0 -84.5 -14t-87.5 -14q-38 0 -47.5 18t-9.5 64zM430 1071q2 -5 8 -34t6 -33l12 -162q0 -1 4 -7t7 -11.5t2 -6.5q0 -5 -9.5 -20t-15.5 -21 q0 -5 -1 -33.5t-1 -33.5t-1 -20.5t-0.5 -26t2.5 -23t10.5 -19t21.5 -6.5q17 0 19 2q12 0 38 13q19 2 35 2t29 -2q26 -3 57.5 -1t59.5 13q4 1 19.5 13t19.5 16q1 0 19 5t20 7l12 12q2 3 38 28.5t38 27.5q5 3 20 24.5t16 28.5q1 1 7.5 19.5t7.5 19.5l12 20q11 19 12 23 q13 23 13 80v12q-8 49 -25 64t-53 21t-62 23q-1 1 -17.5 14t-18.5 13q-41 14 -132 14h-49q-1 0 -13 -7t-13 -7t-12 7t-13 7h-27q-8 -2 -29 -5l-38.5 -5.5t-20.5 -3.5t-5.5 -2t-4 -3.5t-2.5 -3.5t-1.5 -4.5t-0.5 -4.5v-5v-4v-14z" />
<glyph unicode="S" d="M178 862v10q1 1 8 25t7 27v55l14 25q1 2 4.5 27.5t5.5 27.5q3 0 66 80q13 16 43 40.5t43 41.5q1 0 4 6t6 12.5t4 7.5q2 2 26 7.5t27 7.5q2 0 12 12t11 12q3 2 26.5 7.5t24.5 6.5q10 4 40 15t43.5 15.5t37.5 11.5t45 9.5t43 2.5h47q3 0 27 -13t26 -14t25 -6t26 -6l50 -29 h14q14 45 14 111v39q0 1 -7 13t-7 13l-1 9q-1 9 -1 12q0 88 80 88q48 0 90 -96l2 -11q0 -2 -1 -8.5t-1 -7.5l-15 -12v-66l-24 -16v-13q0 -27 -6 -65q-8 -48 -8 -70v-14q0 -1 6 -12t8 -13q0 -1 -0.5 -11t-0.5 -18.5t1 -11.5q0 -4 5 -21t5 -18q0 -2 -5 -14.5t-5 -13.5 q-5 -21 -14 -121v-82q-3 -18 -21.5 -35.5t-36.5 -17.5h-6q-9 1 -29 7.5t-22 8.5q-11 1 -25 24t-14 34v8q0 2 3 7.5t6.5 11.5t4.5 7q11 68 11 101q0 77 -78 114l-49 13q-9 3 -28.5 11.5t-33 12.5t-29.5 4h-22q-88 -20 -105 -28q-3 -1 -19 -13t-17 -12l-54 -14 q-1 -1 -10 -11.5t-17.5 -19.5t-11.5 -10q0 -1 -5.5 -4t-11.5 -6.5t-7 -4.5l-25 -24q0 -3 -6 -15t-8 -14q-8 -11 -22.5 -25.5t-20.5 -27t-6 -33.5v-8q29 -73 63 -109q16 -16 46 -20.5t56.5 -2t51.5 -1.5q2 -2 11.5 -8t12.5 -6q15 -6 70 -22t82 -32q2 -1 7.5 -6.5t6.5 -5.5 l66 -55q1 -4 22.5 -27.5t26.5 -26.5q6 -6 39 -29t39 -26q2 0 8 -6t6 -8q2 -7 18.5 -46t18.5 -46q3 -7 7.5 -29t4.5 -27v-186q-2 -11 -11 -43t-13 -39q-58 -58 -64 -65l-28 -17q-1 0 -12 -12.5t-13 -13.5l-37 -27q-1 -1 -12.5 -6.5t-13.5 -5.5l-4 -5q-4 -5 -8 -9.5t-8.5 -8.5 t-6.5 -4q-8 -4 -48 -14.5t-52 -12.5q-57 -2 -80 -2q-10 0 -31 -0.5t-29.5 0t-23.5 1.5t-28 4.5t-28 9.5q-2 2 -23.5 13.5t-25.5 12.5q-6 2 -8 2q-3 0 -8.5 -13.5t-12.5 -31.5t-10 -24q-4 -10 -7.5 -26t-6.5 -23.5t-12 -14t-25 -6.5l-24 2l-15 29q-18 36 -24 39q-2 3 -5.5 10 t-6.5 12t-3 6l1 31v56.5t-1 31.5q0 9 -17.5 64.5t-18.5 58.5v27q0 1 7 19t7 20q1 17 1 68.5t-1 66.5q14 22 43.5 44.5t50.5 22.5q20 0 45 -13t25 -32q0 -23 -6.5 -66.5t-6.5 -64.5q0 -42 13.5 -71t29 -42t47 -34.5t50.5 -38.5q6 0 42 -1t42 -1q9 0 29.5 0.5t37.5 0.5l17 1 q10 1 18.5 2.5t17.5 5t15 6t16 9t13.5 9t16 11t15.5 10.5l41 27l62 133q3 6 -1.5 36.5t-9.5 45.5q-3 14 -39 67q0 2 -4.5 14t-7.5 13q-3 5 -13 15.5t-13 11.5q0 1 -27 14l-10 11q-9 11 -17.5 19.5t-11.5 8.5q-14 14 -26 21.5t-29.5 16t-32.5 17.5l-37 29l-117 26h-6 q-6 -1 -12 -1h-12.5t-8.5 1q-102 10 -139 39l-90 148z" />
<glyph unicode="T" d="M35 1237q0 1 5 12.5t5 12.5q12 30 12 51v51q1 5 20 24t29 27q19 15 46 15q99 0 293.5 -7.5t293.5 -7.5q50 0 146 8q85 7 140 7h13q8 1 36 18t30 18q3 3 11.5 8t10.5 5q2 2 43 2q35 0 43 -2q11 -40 11 -70q0 -25 -17 -61t-20 -45q-26 -93 -32 -191q-5 -75 -5 -170v-61 l-45 -52q-1 -1 -16.5 4.5t-18.5 8.5q-14 6 -27.5 30.5t-13.5 38.5q2 7 2 9l25 102v88q0 124 -17 180h-202q-5 0 -26.5 -8t-23.5 -8v-12q0 -35 13.5 -105.5t13.5 -105.5v-4q-1 -3 -4.5 -15.5t-6.5 -23.5t-3 -13q-13 -65 -13 -88q0 -5 -12 -41l-12 -12v-51q-1 0 -5.5 -11.5 t-4.5 -13.5q-3 -8 -8 -45.5t-5 -44.5q-1 -3 -7 -27.5t-11.5 -48t-5.5 -28.5v-62q-13 -26 -13 -39v-129q0 -23 13 -75v-37q9 -83 24 -129q8 0 54.5 -1t54.5 -1q12 0 38 0.5t47.5 1t22.5 0.5q25 1 64.5 13.5t64.5 12.5q36 0 46 -16t10 -57q0 -5 -1 -18l-1 -13q-2 -2 -16.5 -12 t-18.5 -11q-14 -11 -74 -41l-123 -12q-19 -1 -85 -1t-83 1q-10 -11 -25 -13.5t-35 0t-28 1.5q-1 0 -23 -6.5t-26 -6.5q-9 -3 -38 -8.5t-34 -5.5h-59l-25 -10q-6 -3 -61 -14h-16q-31 0 -69 6t-38 18v92q18 2 65 10.5t58 12.5q4 2 36 20t36 19q16 3 58 8t52 4q17 14 25 39v139 q0 8 5 78t5 76v37l14 116q13 39 13 54q10 80 10 141v63q1 3 6.5 19t5.5 18q2 9 9.5 40t10.5 45t8 39.5t7 46t2 40.5v6q-3 12 -8 28t-7.5 24.5t-4.5 23.5t-2 33q0 59 12 82h-76q-105 0 -303 -12h-72q-4 0 -13 -11t-9 -14q-8 -41 -11 -135.5t-16 -143.5q3 -6 8.5 -10.5t9 -7 t12 -6.5t9.5 -4q-10 -6 -22 -21.5t-17 -27.5v-39q-1 -6 -11 -21.5t-13 -17.5h-19q-30 0 -49.5 11.5t-40.5 39.5q0 7 -1 48t-1 48q0 15 1 55.5t1 41.5q0 3 6 37t6 36v78q0 3 -11 20t-11 19z" />
<glyph unicode="U" d="M49 1135v6q1 6 10.5 27t12.5 26q16 27 63 27q3 0 21 -6.5t20 -6.5q27 -2 37 -2q19 0 54.5 7.5t51.5 7.5h11q4 0 56 -6.5t58 -6.5h13q7 0 70 6.5t71 6.5h10q30 -13 42 -33t12 -53q0 -31 -15 -48q-3 -5 -13 -12.5t-13 -7.5h-177q-2 0 -7.5 -24t-6.5 -37q0 -1 0.5 -21.5 t0.5 -38t-1 -20.5q0 -5 -6 -48t-6 -47v-67q0 -1 6 -13.5t6 -13.5v-67q5 -78 14 -123q1 -3 22.5 -48.5t25.5 -58.5q4 -5 32 -45.5t35 -48.5q10 -14 44.5 -50.5t43.5 -43.5q2 -1 25.5 -6t25.5 -6q12 -5 40.5 -21.5t51 -24.5t46.5 -8h4q65 26 90 66q35 70 37 82l14 80 q1 2 12.5 26t12.5 29q1 3 0 39t0 39l12 26v56q0 3 -6 21t-6 20q-2 4 -2 73q0 62 2 76q3 0 7.5 4.5t4.5 7.5v82q12 23 12 25v96q5 73 24.5 127t67.5 86q7 2 11 2q9 0 18 -2.5t13 -4.5t17 -10.5t17 -10.5q10 -7 16.5 -26.5t10.5 -25.5q0 -6 10 -16v-12q-11 -41 -49 -119 l-15 -258q0 -6 -0.5 -37t0.5 -85t1 -84t-1 -36q0 -11 -14 -67q0 -1 -5 -20t-5 -21v-39l-12 -29q-5 -8 -15.5 -34t-11.5 -33l-25 -80q-7 -9 -26.5 -29.5t-26.5 -26.5q-47 -30 -176 -92h-53q-61 10 -117 27q-21 12 -25 14q-49 19 -81.5 38.5t-57.5 55.5q-26 52 -28 54 q-1 4 -11 17t-22 28.5t-15 19.5q-4 6 -53 55l-12 27l-10 11l-18.5 18.5t-10.5 9.5q-1 2 0 15t0 14q0 3 -5 33t-5 34q-13 118 -18.5 177.5t-11.5 171.5q-3 54 -2 96q0 46 3 80l-10 14h-6q-17 0 -58 4q-50 5 -65 8q-5 1 -37.5 19t-38.5 22q-8 2 -16 0t-14.5 2.5t-6.5 18.5z " />
<glyph unicode="V" d="M-49 1243q0 2 5 12.5t9 14.5q2 4 12 14h39q1 0 11 6t12 8h53q1 -1 13 -8t23 -13.5t13 -6.5q4 -1 26.5 5.5t27.5 8.5h51q23 2 125 27q2 0 36 5t42 7q9 1 30.5 6.5t32.5 5.5q58 0 66 -24q1 -4 4 -20.5t5.5 -30t2.5 -17.5q0 -2 -12 -26q-19 -25 -27 -29q-58 -8 -76 -12h-14 l-23 12q-5 -8 -25 -28.5t-28 -24.5h-63q-6 0 -21 -5t-18 -8q0 -1 -3 -8.5t-6 -17.5t-4 -15v-12q0 -5 6.5 -41.5t6.5 -40.5q3 -17 5 -51.5t6.5 -61t14.5 -47.5q5 -15 57 -123.5t56 -119.5q4 -4 14.5 -31.5t12.5 -36.5q35 -70 75 -135q1 -1 5 -3t7 -4.5t3 -4.5v-29 q12 -10 12 -12q0 -1 18.5 -40.5t32.5 -54.5q47 -40 49 -40l17 14q8 22 46.5 102t55.5 113q9 20 32.5 61.5t38 74.5t19.5 65v55q0 2 5.5 14.5t6.5 12.5q10 28 21 83.5t18 79.5q9 37 31.5 83.5t35 66.5t48.5 78v22q-3 0 -43.5 2.5t-48.5 1.5q-4 -1 -36.5 -6.5t-37.5 -5.5 q-1 0 -10.5 -1t-11.5 -1q-20 0 -39.5 12.5t-27 21t-28.5 34.5l-12 26q0 20 22 40.5t42 27.5l204 14h27q1 0 12 7t13 7q1 0 19 -7t20 -7q9 0 51 14q10 1 59.5 7t54.5 6q11 0 50 -13q6 -4 16 -14t10 -14l1 -14q1 -14 1 -19q0 -31 -9.5 -51t-30 -30t-40 -14t-51.5 -7 q2 -3 2 -19t-2 -20q-1 -9 -16 -40.5t-21 -39.5q-4 -6 -39 -41q-2 -2 -4.5 -8.5t-4.5 -12.5t-3 -6q-11 -22 -41 -67q0 -1 -5 -6.5t-5 -6.5v-28q-1 -2 -13.5 -32.5t-13.5 -35.5l-10 -51q-6 -31 -51 -178q-6 -14 -22.5 -68.5t-30.5 -79.5q-2 -1 -14 -20l-11 -19 q-34 -69 -37 -82q-4 -8 -32.5 -87t-32.5 -87q-3 -11 -23.5 -46.5t-28.5 -45.5q-10 -17 -36 -43h-15q-16 0 -29.5 3.5t-30 15.5l-22 16t-26 24t-21.5 21q-22 20 -31 50t-20 44q-2 6 -31.5 42t-31.5 40l-64 135q-1 1 -6.5 19.5t-7.5 19.5q0 4 -11 15l-12 26q-5 7 -27.5 40.5 t-25.5 39.5q-6 15 -12.5 47t-12.5 47q-1 4 -11.5 21.5t-12.5 19.5q-38 68 -66 203q-21 122 -24 133l-15 94q-8 48 -114 54h-50q-3 0 -7.5 6.5t-4.5 9.5q-4 11 -9 46t-5 46z" />
<glyph unicode="W" d="M-84 1198l4 12q0 1 14 11t15 12q16 16 16 22l35 41q2 0 12 -1t16.5 -1.5t10.5 0.5q15 -2 74.5 -15t72.5 -15t29 -2q47 0 121 16q67 14 111 13q22 0 38 -3q24 -8 43 -8q16 -13 16 -50q0 -16 -3 -38q-1 -3 -1.5 -8.5t-1 -7l-1.5 -4.5t-2 -4.5t-3 -3.5t-5 -3.5l-7 -3.5 q-78 -39 -84 -39h-67q-5 0 -51 -3t-54 -3v-80q0 -7 -7 -40.5t-9 -39.5q0 -39 4 -55q0 -8 14 -73.5t15 -69.5q0 -50 2 -58q5 -35 20.5 -73t37 -82t30.5 -68q1 -2 10.5 -41t11.5 -45l13 -14q1 -7 14.5 -34t13.5 -28q3 -7 8.5 -25t9.5 -29t12 -25.5t17 -24.5q-8 -32 -8 -47 q-10 -25 -10 -47l-17 -23q-18 -6 -40 -6q-2 -2 -21 -10t-23 -8h-4q-15 6 -20 18q0 3 2 40t2 42q0 1 -4 14t-4 15q0 1 1.5 7t2.5 12t0 7q-2 4 -15 24t-16 21q-1 3 -7.5 17.5t-12 27.5t-6.5 17q0 8 -11 30q-7 23 -27.5 73t-27.5 58q0 3 -7.5 17.5t-10.5 15.5l-23 88l-24 74 q-13 13 -13 14v70l2 13q2 13 2 16q0 1 -4 6.5t-4 7.5q-6 12 -6 43q-13 50 -16 57q-9 13 -9 17t2 45.5t2 46.5q0 13 -6 43q-3 14 -5.5 22.5t-4 14t-8.5 9t-9.5 4.5t-16 3.5t-19.5 3.5l-55 8l-10 -2q-9 -1 -18.5 -2t-12.5 0q-3 0 -19 31q-7 18 -7 32q0 6 1 11zM403 903 q0 11 3 19.5t5.5 13.5t11 11t12 7.5t17 7t17.5 7.5q1 0 7 4t11.5 7.5t6.5 2.5q5 -3 19 -19t17 -22q14 -20 25 -65.5t16 -57.5q0 -3 8.5 -14.5t19 -24t11.5 -14.5q0 -6 5 -35t8 -33q3 -10 24 -41q1 -2 6 -20t6 -19q25 -50 25 -55q7 -18 21 -55.5t22.5 -58.5t25 -49.5 t35.5 -49.5h7l24 -43q5 2 12.5 35.5t8.5 34.5l12 26l39 66q22 77 22 82v39q19 108 29 147q5 27 25 75.5t24 74.5q10 52 10 76q3 18 3 77q0 3 3.5 28t4.5 26q0 1 0.5 9t1 18.5t0.5 15.5v7.5v9.5t-0.5 9.5t-2 10t-4 8t-6.5 6.5t-10 2h-6q-5 -3 -38.5 -15t-37.5 -12 q-2 -1 -41 -14q-62 -25 -77 -25q-2 -2 -21 -2q-30 0 -58 37.5t-28 69.5q0 44 43 55l129 12q7 0 37 15q40 9 96.5 13t97.5 13q3 0 13 5.5t12 7.5q28 14 39 14h53q14 0 78 8h27q61 0 61 -74q0 -18 -1 -20.5t-13 -11.5q-6 -9 -26 -24.5t-25 -18.5q-21 -12 -50.5 -13t-50.5 -8 q-14 -7 -14 -12l2 -27q-3 -2 -3.5 -7t0.5 -12l1 -7q-16 -35 -19 -47q-1 -3 -3.5 -29.5t-5.5 -60t-5 -46.5q0 -2 -6 -13.5t-6 -12.5q0 -2 1 -21t1 -20l-14 -68q-13 -22 -13 -24q-12 -48 -12 -58l-12 -39q-2 -2 -7.5 -13t-5.5 -13q-2 -6 -14 -61t-14 -60q0 -1 -6.5 -13.5 t-6.5 -13.5v-39q-5 -42 -20.5 -79t-42 -82t-37.5 -68q0 -13 -14 -41q-1 -1 -4.5 -8t-7 -12.5t-3.5 -6.5q-2 -10 -5.5 -43.5t-7.5 -52t-19.5 -36t-42.5 -17.5l-11 2q-13 5 -53 53q-1 1 -3 8.5t-4.5 17.5t-4.5 15v12q-10 10 -10 13q-2 4 -8 29t-7 26q0 1 -5.5 4t-11.5 6t-7 4 q-11 9 -43.5 43t-34.5 35q-28 56 -37 96l-14 39l-13 27v41q-1 2 -13 14.5t-13 14.5q-2 2 -7 12.5t-11 23.5t-7 15q-2 5 -6.5 29t-5.5 26l-25 41q-3 3 -8.5 20t-5.5 19q-3 7 -18 39t-23.5 51t-16.5 45.5t-8 42.5z" />
<glyph unicode="X" d="M2 1094v4q0 19 5 37t16 44t14 35q1 2 7 20t7 19q2 2 17 8t22 7q60 12 76 12q10 -4 12.5 -17t-2.5 -22q63 -27 78 -27q4 -1 27 -1t49.5 0.5t27.5 0.5l215 -14q15 -12 28 -30t13 -31v-6q-4 -17 -14 -27q-1 -1 -2 -10t-3 -16t-5 -7l-33 -31l-111 -4q22 -22 52 -67 q6 -7 18.5 -21.5t19.5 -23t15 -22t12 -27.5q32 -111 37 -148q1 -6 11.5 -26.5t15.5 -26.5q4 1 12 12t10 17q3 0 9 11t6 13l38 53q3 3 13 26t12 30q14 10 14 14v25q0 1 7.5 7t7.5 7q0 2 4.5 14t7.5 13q1 2 18 19.5t19 20.5q22 33 26 41q2 3 10 24t17 45t10 26l27 39 q21 63 25 67q15 26 63.5 53t77.5 27q10 0 28 -8t21 -19q0 -4 1 -23.5t1 -23.5q0 -5 0.5 -19.5t0 -20.5t-3.5 -16t-9 -17q-24 -28 -117 -121q-40 -48 -111.5 -160t-115.5 -162v-28l-15 -13q-30 -40 -63 -123q17 -26 38 -51t37 -40t44.5 -41.5t44.5 -41.5q10 -9 31 -29.5 t22 -23.5q14 -55 25 -70q1 0 13.5 -11.5t14.5 -12.5q3 -4 25 -34.5t39.5 -55.5t21.5 -33q1 -1 4 -7l6 -12t5 -6q3 -4 17 -9t21 -5q8 0 28.5 5t23.5 9q0 1 5.5 14t11 25t7.5 13q4 8 18.5 24.5t18.5 18.5q25 10 64 10q0 -18 8 -46.5t8 -47.5q0 -2 -1 -13t-1 -12 q0 -2 -13.5 -20t-13.5 -19q-30 -75 -37 -82q-2 -2 -16 -9.5t-33.5 -18t-25.5 -13.5h-17q-2 2 -24.5 8.5t-26.5 6.5h-19q-20 1 -44.5 1.5t-36.5 0.5q-8 0 -52 -1t-51 -1q-58 -39 -141 -39q-8 0 -32 4t-31 8l-25 27q-9 7 -18.5 11t-13 6t-5.5 10t-2 26v24q3 16 46.5 33.5 t70.5 22.5q2 2 19 8t20 6q9 1 43 1t43 -1l14 53q0 1 -30.5 38.5t-72 87.5t-65.5 77q-47 47 -49 53q-4 7 -1.5 19.5t-2 24.5t-19.5 12l-2 -2q-7 -4 -26.5 -25t-24.5 -29q-2 -2 -7.5 -10.5t-11.5 -18.5t-7 -12q-61 -61 -64 -67q-5 -7 -45 -74t-45 -74q-24 -24 -25 -26 q-26 -39 -41 -54q0 -3 -10.5 -14.5t-13.5 -11.5q-1 -3 -9.5 -15t-18.5 -25.5t-11 -15.5q-5 -5 -10.5 -8.5t-12.5 -4.5t-11.5 -1.5t-13.5 0t-11 0.5q-3 0 -16 1l-13 1q-8 4 -39 51v17l39 53q4 3 18 18t28.5 30.5t16.5 17.5l76 108l12 12l15 29l26 27q3 3 14.5 21t23 37.5 t12.5 21.5q18 21 81.5 88.5t83.5 87.5q-5 0 -18.5 5t-17.5 9q-1 1 -6.5 19t-6.5 20q-1 3 -19.5 21t-19.5 20v41q-10 25 -12 29q0 2 -6.5 25t-9.5 26q0 14 -49 108q0 3 -11 20.5t-14 18.5l-14 43q-14 19 -48.5 55.5t-37.5 36.5h-78l-15 -22q0 -3 -4 -5t-8 -3h-4 q-5 0 -18.5 3.5t-14.5 4.5q-13 4 -35 8.5t-33 8t-26 10.5t-25.5 19.5t-19.5 31.5zM300 191.5q0 -7.5 5 -7.5q7 0 7 7.5t-7 7.5q-5 0 -5 -7.5z" />
<glyph unicode="Y" d="M-16 1278v12q12 29 20.5 45.5t28 32.5t45.5 16h8q6 0 69.5 -6t69.5 -6h15q26 4 96.5 21.5t112.5 17.5q161 0 161 -113l-2 -8q-24 -65 -26 -65q0 -3 -19.5 -8t-32.5 -7q-19 -3 -93 -7.5t-97 -4.5v-43q0 -2 6 -32t6 -33q2 -9 8.5 -55.5t6.5 -51.5q12 -36 12 -41v-68 q0 -1 5 -18.5t7 -19.5q2 -4 15 -17q9 -13 51.5 -68.5t50.5 -62.5q18 -24 49 -55q4 -2 51 -0.5t51 0.5q6 0 30 -11t34 -18q1 0 7 -5.5t7 -8.5q5 60 37 137q15 10 17 12q0 9 10 29q3 3 13.5 19t10.5 20q2 7 7.5 41t5.5 39q17 50 28 67q0 2 5.5 20.5t5.5 20.5q1 5 13 28.5 t13 27.5l12 12l27 53q1 5 -3.5 34.5t-4.5 35.5h-160q-8 6 -12 12q-25 33 -25 39q0 8 5 28.5t10 24.5q2 5 17 16t22 11q2 1 21 6.5t44 12.5t35 10l74 12q12 2 25 6t24.5 6t27.5 2q21 0 59 -7t56 -7q19 0 53.5 14t53.5 14l10 -2q2 -1 4.5 -9t4.5 -17.5t3 -11.5q0 -1 6 -6.5 t6 -6.5t1 -9.5t1 -10.5q0 -35 -14 -49q-4 -4 -29.5 -20t-33.5 -19q-3 -2 -38 -13.5t-38 -13.5q-2 -1 -6.5 -6.5t-5.5 -5.5q-1 -1 -8.5 -5t-13.5 -8t-7 -4q0 -2 -11 -26t-14 -27l-24 -14q-3 -2 -15 -25q0 -2 -5 -33t-7 -36l-24 -39q-13 -17 -25 -54q0 -3 -7 -21t-9 -20 q0 -3 -10.5 -19.5t-12.5 -18.5q-5 -11 -22 -67l-17 -56q-5 0 -15 -5t-11 -8v-28q-9 -28 -25 -54l-51 -79q-3 -5 -11.5 -32.5t-17.5 -57.5t-10 -33q-39 -105 -129 -242q-8 -10 -12 -14q-2 -2 -19.5 -12.5t-19.5 -12.5q-1 -7 -16.5 -41.5t-20.5 -40.5q-3 -4 -26 -22t-49 -37 t-28 -21q-1 -1 -3.5 -7.5t-5.5 -12.5t-5 -6q-9 -10 -33 -19.5t-37 -9.5h-6q-65 38 -65 105l2 18q3 8 18 29t21 24q4 3 37 14t41 13q17 7 36 26q4 4 38.5 47t39.5 48l10 14l39 51q13 39 13 43l39 39q2 2 8.5 5t12 5.5t5.5 3.5q2 2 2 27t-2 25q0 2 -10.5 8t-15.5 6 q-18 8 -60 16.5t-53 12.5q-48 12 -53 12q-33 21 -76 94q-1 1 -6 14.5t-6 14.5q0 1 -6.5 3.5l-13 5t-7.5 3.5l-25 27q-13 24 -63 135q-12 24 -12 41l-15 26v7q0 15 7.5 46t7.5 48q0 110 -66 194q-2 4 -27 29q-3 1 -30.5 0t-30.5 0q-6 0 -26.5 4.5t-24.5 7.5q-9 3 -17 21 t-10 20q-24 24 -24 27z" />
<glyph unicode="Z" d="M135 1280q0 5 4.5 26t7.5 27q7 14 21 33.5t18 19.5h895q7 0 27 -5t25 -9q14 -8 14 -53t-14 -68l-52 -67q-39 -52 -63 -94q0 -1 -6 -12t-8 -13q-3 -4 -38 -40t-36 -40q-3 -4 -9 -22t-6 -21l-51 -53q-1 -1 -3.5 -8t-5 -12t-3.5 -5q-2 -4 -41 -43q-41 -82 -51 -92 q-1 -5 -39 -43q0 -1 -5.5 -13.5t-11 -24.5t-8.5 -15q0 -3 -24 -27q2 -12 0 -14l-25 -25q-8 -14 -19.5 -46.5t-24.5 -54t-34 -34.5q-1 0 -19 -6t-20 -8q-2 -3 -1.5 -10.5t1.5 -18t0 -12.5t-8.5 -16.5t-16 -29.5t-13.5 -20q0 -3 -25 -28q-1 -1 -8 -14t-16.5 -29t-14.5 -23 q0 -3 -4.5 -14.5t-7.5 -14.5l-49 -65h39q51 0 405 12q9 3 34.5 7.5t31.5 4.5q14 1 34 0.5t47.5 -1.5t32.5 -1v31q0 16 -5 107t-5 106q1 8 15.5 28t21.5 27q13 15 45 15h2q8 0 12 -0.5t8.5 -4t8.5 -10.5q13 -15 26 -55v-22v-51.5v-51.5v-22q0 -2 6.5 -19.5t6.5 -19.5 q14 -49 14 -56v-92q-3 -8 -18.5 -24t-22.5 -17h-88q-2 0 -19 -7t-18 -7q-2 0 -19.5 7t-19.5 7h-12q-26 0 -53 -14l-230 -12h-180q-5 -1 -74.5 -14t-77.5 -13q-1 0 -26 -1t-33 -1q-4 0 -28 1t-29 1q-39 31 -39 74v20q15 12 65 64t64 69l49 95l53 67l37 68q6 6 33 40.5 t31 39.5q3 4 25.5 27t27.5 26q2 4 13 29l11 26q4 6 13 22t16 29.5t8 14.5q2 3 8.5 9.5t12.5 12t6 6.5l14 29q8 13 23 42t27.5 53t13.5 26t18 24t21 27q19 19 24 29q11 10 36 42t28 40l14 24q7 11 45 69t45 66q5 6 14 27t9 27q0 3 -1 12t-1 12q-25 0 -165 1t-165 1 q-7 0 -70 -7t-71 -7h-125q-11 0 -46 -4.5t-45 -7.5q0 -5 -1 -39.5t-1 -40.5q0 -39 8.5 -109t8.5 -106q0 -68 -2 -80q-25 -14 -58 -14h-18q-7 7 -26.5 38t-26.5 44v38q0 3 -6.5 33.5t-6.5 34.5v109q0 7 -6 73.5t-6 73.5z" />
<glyph unicode="[" d="M305 -143q0 32 25 61q-2 62 -2 413.5t2 411.5q0 98 16 310l23 125v84q0 41 -11.5 120t-11.5 119q0 62 49 87.5t119 25.5q37 0 108.5 -10.5t108.5 -10.5h10q6 1 87.5 -0.5t89.5 0.5h18q26 -21 41 -43q2 -12 2 -18q0 -59 -132 -82q-6 -1 -9 -2q-4 -1 -48.5 -1t-48.5 -1 h-178q-28 -2 -42 -24.5t-15 -52t-1.5 -60t-0.5 -47.5q0 -7 -9 -60.5t-10 -64.5q0 -2 -20 -62v-22v-144q0 -3 -0.5 -56.5t-1 -118t-0.5 -95.5t0.5 -167t1 -261t0.5 -127q2 -30 9 -77t11 -48l78 -18h393q23 0 23 -43l-2 -21q-2 -3 3 -32t3 -31q-1 -2 -13 -6.5t-23.5 -8 t-10.5 -6.5q-104 0 -334 -18q-147 -21 -156 -21q-1 0 -10.5 -1t-11.5 -1q-46 0 -82.5 28.5t-36.5 76.5z" />
<glyph unicode="\" d="M150 1458q3 11 23 40t30 36q8 5 30.5 9t28.5 1q15 -12 54.5 -60t48.5 -65q35 -64 81 -183t62 -155l35 -47q3 -8 45 -75.5t86.5 -136t46.5 -72.5q15 -23 154.5 -267.5t152.5 -263.5q50 -82 60 -116q15 -46 8 -99q-3 -20 -15.5 -33t-31.5 -10q-35 6 -82 51.5t-60 79.5 q0 3 -4.5 21.5t-5.5 21.5q-2 4 -17 25.5t-16 23.5q-7 10 -81 158t-81 158l-161 239q-1 2 -14.5 33.5t-16.5 34.5q-2 7 -81.5 131t-82.5 131q-4 6 -11 21.5t-12.5 29.5t-5.5 15q0 6 -3.5 28t-2.5 29q-13 3 -37 35q-4 3 -15 31.5t-13 37.5q-59 78 -68 97q-6 10 -17 36t-11 29z " />
<glyph unicode="]" d="M229 1466q5 12 28.5 36.5t33.5 25.5q28 -1 168.5 9.5t150.5 10.5q31 2 110 12.5t120 10.5h39q8 -2 23.5 -10t15.5 -11l43 -293l-21 -53l18 -18q-9 -80 -9.5 -169.5t3.5 -200.5t4 -167v-10q0 -2 -5 -12.5t-5 -12.5q0 -21 10 -36l-26 -848q0 -2 -8.5 -11t-12.5 -10 q-2 -1 -12 -6.5t-17.5 -9.5t-9.5 -4q-25 -7 -108 -23t-107 -20q-2 0 -32.5 0.5t-56 0.5t-29.5 -1q-5 0 -49.5 -9.5t-49.5 -9.5q-1 0 -19.5 -1t-25.5 -1q-42 0 -69 19.5t-27 62.5q0 35 4 56.5t15.5 34.5t20 17.5t28.5 12.5q19 2 98.5 3.5t89.5 2.5h33q17 0 77.5 -2t79.5 -2 l9 2q9 3 39 23q22 15 22 18q1 7 2 240t2 239q0 5 -1 81.5t-1.5 132t0.5 81.5v60q-2 47 -2 288l-4 60l-18 350q0 3 -12 11.5t-19 8.5l-19 1q-19 1 -24 1q-71 0 -197.5 -22.5t-193.5 -22.5l-35 2q-3 0 -19.5 16.5t-19.5 24.5q-6 8 -15 24t-8 17z" />
<glyph unicode="^" d="M129 717q0 20 61 90l78 125q16 24 115 159.5t141 213.5q3 7 13 26.5t18 35.5t8 19v44q5 8 14 13.5t22.5 7t23 2t24 0t15.5 -0.5q57 0 57 -2q1 0 9 -8t11 -12q5 -6 12 -23t7 -21q2 -3 11 -40t11 -41l39 -62q16 -28 119 -166q2 -6 18.5 -42t20.5 -42q0 -1 8.5 -9.5 t9.5 -10.5q19 -57 19 -60q14 -28 39.5 -58t46.5 -51t37 -54t16 -70q0 -28 -20 -45t-48 -17q-19 0 -33.5 9t-21.5 18.5t-18 30t-17 29.5q-18 18 -18 20l-62 104q-1 2 -5 12t-7.5 18.5t-3.5 10.5v21l-22 22q-1 1 -9 19.5t-10 19.5l-119 125q-5 6 -21 34.5t-33.5 49.5t-33.5 21 q-21 0 -32 -7.5t-21 -28t-16 -28.5q-13 -20 -136 -186q-38 -38 -38 -41q-23 -35 -62 -106t-57 -101q0 -1 -5 -11.5t-9.5 -20t-6.5 -11.5q-3 0 -39 -18q-52 -21 -59 -21q-14 70 -20 82q0 1 -9.5 10.5t-9.5 10.5q-2 8 -2 12z" />
<glyph unicode="_" d="M-80 -322q0 48 2 52q3 10 26 35t32 28q132 -8 217 -8q184 16 254 16q89 0 237 -8l80 -16q4 4 254 4q24 4 55 4q1 1 10 6.5t17 10.5t10 5t20.5 -9t20.5 -9q66 0 158 8q6 -5 10 -9.5t6.5 -9.5l4 -8t2.5 -9.5t1.5 -9t1 -12t0.5 -13.5v-70q-5 -6 -12 -11t-13.5 -8.5t-17 -5.5 t-16.5 -3.5t-17.5 -2t-16 -0.5h-15.5h-12q-56 -5 -292 -1.5t-290 1.5q-36 -1 -314.5 -2t-332.5 -6l-62 21q-2 2 -5 17t-3 23z" />
<glyph unicode="`" d="M240 1446v6l6 4q37 59 37 60q13 11 45 -5l26 -12q15 -5 43 -26q2 0 21.5 -7t23.5 -10l54 -53q2 -12 4 -14l252 -201l36 -41q1 -1 7.5 -9.5t7.5 -10t6.5 -9.5t6.5 -10l4.5 -9t4 -10.5t2 -10t0.5 -11.5t-2 -11t-4 -12l-2 -6q-1 -2 -11 -9l-9 -7q-66 -33 -68 -33 q-13 3 -49 39q-1 1 -33.5 27t-34.5 30q-3 1 -109.5 85t-107.5 85q-14 20 -53 49t-51 39q-2 0 -14 19.5t-15 26.5q-24 48 -24 57z" />
<glyph unicode="a" d="M78 131q4 16 27.5 76t31.5 76l13 26q2 6 2 25.5t-2 25.5q6 15 34 54.5t39 48.5q2 2 23.5 13.5t23.5 12.5l47 37q1 0 7 4l12 8t8 5q4 1 35.5 23.5t34.5 25.5h86q2 0 12.5 6t11.5 6h99l22 14q2 0 18 -7t17 -7h39q1 0 12 -6t12 -6q4 -1 29 -1t54 0.5t30 0.5q40 -20 45 -27 q11 6 19 23.5t8 29.5q0 6 -6 31t-9 33l-17 24q-17 23 -17 27q-6 10 -10.5 33t-13 37.5t-28.5 17.5h-116q-143 0 -224 -26q-21 -6 -58 -25.5t-50 -24.5q-2 -2 -12.5 -4.5t-22.5 -4.5t-14 -3t-35 -19t-35 -20q-41 -16 -133 -16q0 35 -4 55q0 1 -4 12t-4 13q0 16 13.5 32 t41.5 31.5t39.5 20.5t36.5 16q52 22 59 29q3 1 15 3t22 4t12 3q6 3 32 20t28 19q6 2 15 6t9 6l49 15l25 12h61q6 0 36.5 5t35.5 7q1 0 33 1t41 1h11q36 0 53 -0.5t44.5 -5t43.5 -14t34 -27.5t31 -45q1 -2 18.5 -37.5t20.5 -38.5l23.5 -23.5t23.5 -27.5q6 -12 25 -127 q0 -2 6 -13t6 -12l1 -28q1 -28 1 -37q0 -7 -0.5 -22.5t-0.5 -28.5l-1 -13q0 -1 -6 -13t-6 -13v-39q-1 -1 -6 -12t-5 -13v-49l-14 -28q0 -1 -5 -6t-5 -7q10 -22 10 -26v-25q0 -3 5 -18t9 -19q11 -22 11 -26q1 -12 1 -57.5t-1 -57.5q8 -17 40.5 -32t57.5 -19h72q11 -2 29 -7 t18 -6v-104l-11 -12l-17 -1q-16 -1 -22 -1q-62 0 -192 14q-25 10 -48.5 44.5t-37.5 45.5q0 -4 -8 -12q-5 -2 -25.5 -13t-23.5 -14q-2 0 -7.5 -5.5t-11 -12t-10.5 -13.5l-6 -6q-32 -11 -51 -26l-37 -13q-2 -1 -12.5 -12.5t-12.5 -11.5q-1 -1 -9 -4t-17.5 -6.5t-10.5 -4.5 l-49 -24q-1 0 -21.5 -2.5t-47 -5.5t-39.5 -4h-13q-11 0 -77.5 6t-79.5 6q-4 4 -18 13.5t-19 10.5q-10 7 -47.5 27t-49.5 25q-8 24 -10 26q-14 17 -58.5 74.5t-49.5 69.5q-2 0 -8.5 9.5t-6.5 12.5q-20 29 -22 39zM233 168q0 -10 10 -45t17 -43q3 -7 30 -37t40 -41l37 -12 l84 -37l12 -1q12 -1 27 -2t22 -1q49 0 76.5 10.5t70.5 42.5l11 14q8 5 65.5 36t81.5 52q63 63 84 91q0 1 2.5 16t5.5 33.5t4 27.5v88l-108 39q-18 5 -49 25h-279q-3 0 -31.5 -14.5t-42.5 -24.5q-20 -10 -108 -76l-14 -26q-21 -21 -21 -25q-3 -4 -8.5 -31t-5.5 -32z" />
<glyph unicode="b" d="M150 1193v10v11q0 22 10 40t33 32.5t35.5 20.5t39.5 18q3 1 57.5 19.5t61.5 23.5q3 1 21 20t20 21h18q12 -6 35 -22t25 -19q5 -11 12 -52t6 -52q0 -7 -19 -63.5t-20 -61.5q-35 -127 -39 -166l-18 -144q-1 -4 -10.5 -58.5t-9.5 -78.5q2 0 18.5 -5.5t19.5 -4.5l39 43 q77 57 136 70.5t172 13.5q82 0 84 -2q13 -3 72.5 -34.5t84.5 -47.5q10 -7 19 -14t16.5 -16t13 -15.5t11.5 -18t9 -17t8.5 -19.5t7.5 -19.5l8 -22t8 -22.5v-22q-32 -119 -99.5 -234.5t-140 -201.5t-174.5 -185l-59 -20q-46 -21 -177 -64l-116 -41q-1 0 -5.5 -1t-5.5 -1 q-26 0 -52.5 11t-37.5 32v539q6 144 21 332q1 11 18.5 125t20.5 143l20 84q1 10 -2.5 63t-3.5 58q-2 0 -7.5 2t-6.5 2q-80 -40 -99 -43q-4 0 -27 7.5t-30 12.5q-6 3 -10 6t-6.5 6.5t-3.5 6t-1.5 7.5t-0.5 8zM387 270q9 -145 21 -209q0 -6 8 -30t12 -31q2 0 23 -1t24 -1 q50 0 136 35t130 71q61 53 110.5 123t104.5 168l21 41v19q1 1 9.5 10.5t8.5 11.5q0 1 0.5 8.5t1 17.5t0.5 15q0 73 -41 105q-10 9 -32.5 25t-24.5 16h-237q-3 0 -34 -16t-44 -25l-6 -6q-5 -6 -9.5 -10.5t-5.5 -4.5q-8 -6 -81 -45t-74 -39q-3 -2 -11.5 -9.5t-9.5 -10.5v-228z " />
<glyph unicode="c" d="M92 340v63q0 32 3 54.5t10.5 51t11.5 48.5v27l51 108q22 45 41 68q4 12 37 53l10 14q10 5 75 45t79 48q103 66 141 84q3 0 51 12q4 1 54 5.5t63 6.5q18 3 87.5 7.5t90.5 4.5q-1 14 -1 56t1 55q12 21 14 25q0 6 4 23t7 18q8 2 10 2l16 -2q8 -1 38 -12.5t40 -16.5 q25 -11 25 -113v-47q-10 -7 -24 -24.5t-15 -28.5v-107q0 -6 -6.5 -42t-6.5 -40q-1 -25 -1 -101t1 -101q-3 -4 -12 -41q0 -1 -8.5 -28t-18.5 -39.5t-28 -12.5h-10q-2 2 -8.5 8t-11.5 10.5t-5 5.5q-3 9 -7.5 46t-4.5 51q-1 25 -1 101t1 101q-17 6 -29 18t-17.5 23t-20 19 t-36.5 8h-14l-127 -14q-6 0 -39.5 -9t-50.5 -4q-9 -9 -44 -35t-46 -32q-1 -2 -39 -15q-5 -3 -20 -12.5t-27 -17t-15 -8.5q-11 -8 -38.5 -37.5t-56 -61t-34.5 -37.5q-5 -7 -13.5 -27.5t-8.5 -27.5q0 -6 -1 -46t-1 -48q0 -98 14.5 -150.5t73.5 -103.5q3 -4 38.5 -28t37.5 -27 q6 -3 41 -34.5t37 -33.5q8 -4 63 -12q14 -2 55 -4.5t85.5 -5t52.5 -3.5q10 5 39 15t36 10q17 3 72 3t70 -3q8 33 51.5 72t77.5 39q13 0 90 -17q10 0 24 -14q5 0 13 -25q4 -6 8 -22t4 -19l-103 -106h-24l-64 -55q-1 0 -10.5 -3t-22 -6t-18.5 -4q-4 -1 -32 -6.5t-31 -5.5 l-25 -14q-4 0 -33 7t-32 7h-35q-20 0 -36 -7t-26 -7h-8q-13 1 -44 4.5t-56 6.5t-27 3q-29 8 -39 12q0 2 -10.5 7.5t-13.5 5.5q-18 9 -103 26q-10 4 -33 20.5t-30 20.5q-10 7 -44.5 29t-55 36.5t-44.5 38t-34 44.5q-7 10 -15 43q2 35 0 37q0 2 -11.5 14.5t-12.5 13.5v27 q0 1 -6.5 13t-6.5 13q-3 8 -7.5 35t-4.5 31z" />
<glyph unicode="d" d="M90 319q0 14 19 166q6 61 27 128.5t56.5 133.5t80.5 119t104.5 86t122.5 33q6 0 21 -0.5t27 -1t13 -0.5q24 -3 47.5 -30t32.5 -33q0 -1 2 0.5t4.5 3.5t3.5 2q1 20 5 178q4 129 3 173v15q0 8 -7.5 40.5t-10.5 43.5q-39 39 -39 41q-2 6 -2 10q0 1 1 5.5t1 5.5q1 7 26 50.5 t31 51.5q2 4 9.5 20.5t14.5 27.5t15 16q50 26 120 44.5t122 18.5q6 0 20 -1l15 -1q9 -9 39 -84q2 -6 2 -8q0 -16 -38.5 -43.5t-84 -59.5t-57.5 -53q0 -2 -17.5 -56t-21.5 -69l-21 -184q0 -4 -0.5 -76t-1 -160t-0.5 -129q0 -23 -1 -126q0 -52 -1 -88q0 -35 1 -57 q1 -42 6.5 -119t17.5 -138l20 -41q0 -1 -0.5 -10.5t-0.5 -19.5v-19.5t1 -11.5q1 -7 9 -23t10 -18l15 -1q15 -1 21 -1q36 0 104.5 12t104.5 12q7 0 36 -1t32 -1q7 -3 22 -18.5t19 -22.5q2 -14 2 -20q0 -29 -21 -43l-61 -19q-19 -8 -61 -26.5t-68 -29.5t-64 -20.5t-71 -9.5 q-31 0 -60 22t-57 44t-57 22q-30 0 -59 -6t-73.5 -21t-56.5 -18q-7 -2 -53.5 -22.5t-75.5 -20.5l-26 2q-33 9 -60 23t-46 28t-34.5 39t-24.5 42t-18.5 51t-13 51.5t-11 59t-11.5 59.5q-19 76 -19 81zM248 197q1 -10 16 -58t23 -67q5 -14 18 -21l10 -1q10 0 22.5 -0.5 t18.5 -0.5q5 0 16.5 0.5t20.5 1t10 0.5q9 1 55.5 17t63.5 24q20 9 66.5 33t52.5 29q0 1 4 13t8.5 27t5.5 21v41q0 2 10.5 12t10.5 11v10q0 38 -18 102t-21 94v82l-20 84v64q0 1 -9.5 9t-9.5 9q-4 5 -20.5 39.5t-20.5 44.5q-2 4 -8.5 11.5t-9.5 7.5q-12 0 -58 -16t-61 -23 q-5 -4 -28.5 -28.5t-30.5 -35.5q-3 -3 -19.5 -30t-17.5 -31q-1 -1 -11.5 -11t-20.5 -19.5t-19.5 -20t-10.5 -13.5q-2 -2 -2 -15t1 -29t1 -17l-18 -228v-122z" />
<glyph unicode="e" d="M213 352v56q1 4 11.5 14t15.5 12l12 176q1 4 4 23.5t5.5 36.5t2.5 22q15 9 15 13q1 1 0 19t0 21q23 23 24 27v25q0 3 5 11t12.5 18.5t9.5 13.5t37.5 39.5t38.5 40.5q1 0 6.5 12t5.5 14l76 53q35 22 56.5 34t53.5 23t62 11q77 0 130.5 -24.5t118.5 -81.5l15 -15 q68 -160 78 -268q0 -1 -0.5 -18.5t-0.5 -32t1 -17.5q3 -27 25 -75t26 -60q10 -40 10 -67q0 -6 -9.5 -22t-15.5 -19q-10 0 -42.5 -3t-68 -7t-42.5 -5h-76q-5 0 -41 -12q-47 -12 -141 -12h-35q-15 0 -29 1q-100 0 -151 -16v-14q34 -144 143 -242q21 -17 62 -24q91 -43 178 -43 q19 0 53 7t51 7q10 0 30.5 -9.5t20.5 -17.5v-92q-8 -14 -12 -16q-5 -2 -14.5 -9t-17 -12.5t-9.5 -5.5q-6 -2 -45.5 -6.5t-56.5 -19.5q-1 0 -52.5 6t-62.5 8q-2 0 -19 5.5t-18 6.5q-7 3 -44.5 15t-43.5 12q-142 55 -258 256l-24 41q-2 6 -18 72.5t-21 74.5q0 2 -13.5 20 t-13.5 19zM406 481q4 0 25.5 3t25.5 3q13 13 14 13q4 4 24.5 9t26.5 5h203q2 0 25 7t24 7q12 2 53 2t50 -2q28 11 28 88q0 5 -1 13l-1 8l-37 80q0 1 -12.5 19t-13.5 22q0 1 7 12.5t7 13.5v9q0 3 -7.5 9t-17.5 13t-14 12q-3 0 -26 18t-27 19q-1 1 -4.5 8.5t-5.5 8.5 q-4 1 -16.5 4t-23 5.5t-12.5 2.5q-34 -5 -90 -29q-15 -4 -78 -53q-18 -18 -24 -27l-25 -39q-1 -2 -13 -14t-13 -14q0 -2 -6 -20t-7 -19q-3 -7 -18 -27.5t-20 -25.5v-144z" />
<glyph unicode="f" d="M66 629q10 10 14 12q1 0 6.5 3t12 6.5t7.5 4.5q0 2 25 27h39q2 1 37 20.5t41 20.5q2 1 25 6.5t46.5 11.5t28.5 9q3 2 19 17t20 21q5 9 8.5 18.5t4.5 22t1.5 19t0 21.5t-0.5 18q0 29 -7 84t-7 82v6q0 2 6 13t6 13v68q1 3 7 32t6 34q2 14 2.5 44.5t5 50t18.5 40.5l11 14 q4 3 8 13.5t4 13.5v26l14 13l39 82q40 76 106 135t138 65h78q0 1 11 8t13 7q13 2 17 2q5 0 13 -1l9 -1q1 0 6 -3.5t11 -7t8 -4.5l104 -12q0 -4 10 -14q35 -25 66 -56q2 0 11.5 -4.5t10.5 -7.5q6 -5 20.5 -19.5t29.5 -30.5l16 -16q0 -13 12 -55q6 -11 13 -133v-14l-13 -39 q-3 -7 -12 -18t-12 -11q-18 -2 -42 4t-24 13v118q0 5 -24 29q-56 50 -99 65t-121 15h-47q-13 -1 -53 -12.5t-51 -16.5q-47 -68 -103 -162l-14 -24q0 -17 -12 -41q-1 -2 -13.5 -26.5t-13.5 -28.5v-66q0 -5 -4.5 -28.5t-5.5 -24.5v-8q0 -10 6 -28t6 -28l-2 -4q0 -2 -5 -13.5 t-5 -12.5q0 -2 5 -20.5t5 -20.5q4 -16 9.5 -72.5t5.5 -75.5q2 -2 20 -2t18 2q13 10 15 12t32 7.5t42 5.5l102 16h53q3 0 31.5 6t32.5 6h90q3 -2 12 -12t12 -16q2 -15 2 -19l-2 -18l-24 -82l-51 -14q-3 0 -20 -7.5t-19 -7.5q-7 0 -45 -5t-43 -7l-78 -27l-78 -14h-27 q-7 -1 -27.5 -11.5t-23.5 -13.5q-1 -3 -4 -12.5t-5.5 -18t-2.5 -12.5l26 -161q0 -1 7.5 -13t7.5 -14v-41q4 -27 25 -89.5t24 -96.5v-54q1 -6 5.5 -10t11 -5.5t11.5 -1.5t11.5 0.5t7.5 0.5l31 2q2 0 13 6t23 13t13 8q3 2 65 12h41q0 1 16.5 6.5t18.5 5.5q6 0 21 -4t18 -8 q30 -23 41 -39v-22q0 -70 -41 -99q-145 -19 -190 -28q-15 0 -54 -13q-24 2 -24 0q-6 -4 -39.5 -22t-38.5 -19h-88q-2 0 -19.5 -6t-19.5 -6q-9 -1 -26.5 0.5t-29 -1t-20.5 -13.5h-205q-1 0 -11.5 -7.5t-12.5 -7.5q-79 0 -129 70q-2 4 -2 6l2 6q23 33 57 49.5t86.5 27.5 t73.5 18q2 2 12 8t13 6q2 0 13.5 -7t12.5 -7q16 0 37 12t27 14q5 1 26 8t40 12.5t24 6.5q0 3 1 14t1 14q0 24 -13.5 65t-15.5 54v41q0 7 -11.5 59t-14.5 62q-2 36 -25 188h-127q-8 0 -78 -14h-39q-2 0 -30 -6t-31 -6h-13z" />
<glyph unicode="g" d="M61 -408v10q0 68 76 76q30 1 45 -7.5t31 -28.5q24 -24 31 -29q65 -56 152 -56q9 0 18 1q98 9 198 49q18 6 47 35l19 22l20 19l27 24q4 4 4 17q5 11 27 28q23 57 23 135q0 12 -1 25q0 7 -1 22t-1 21q-2 20 -2 111q-65 -36 -158 -54t-174 -18q-59 0 -61 2q-6 2 -52 26 t-67 37q-75 56 -78 62q-67 134 -78 166q-1 3 4 21t5 20h-21q0 37 -6 61q-20 40 -20 41q0 4 7.5 45t12.5 60q1 5 5.5 26.5t8 37t4.5 17.5l21 41v41q6 18 39 64q10 15 52 67.5t44 57.5q1 0 11 4.5t19 9t11 6.5t30 31t32 31q34 28 82.5 45.5t91.5 17.5h20q123 -30 158 -43 q1 0 59 -47v10l29 115l6 14q1 3 12 25q3 9 23 29v4q-5 33 16 37l158 22l22 -20q13 0 15 2l20 10h-2q56 16 74 16q25 2 35 2q5 1 11 1q24 0 48 -15v-16q0 -6 1 -16t1 -11q1 -9 1 -17q0 -28 -8 -44q-11 -22 -50 -43l-27 -11l-22 -10q-27 -6 -68 -6q-38 -1 -54 -2.5 t-42.5 -11.5t-40.5 -29q-4 -3 -12.5 -17.5t-8.5 -17.5v-22q0 -23 2 -23q1 -2 21 -18q2 -2 7 -5t7 -5t4 -5.5t2 -7.5l2 -12l-14 -21q-10 -13 -10 -18q-3 -3 2 -19v-12q-6 -18 -6 -55q-3 -3 2 -31q0 -3 1 -8.5t1 -7.5l-6 -54l-10 -79l2 -7l-11 -18v-22q-4 -46 -4 -82 q0 -6 15 -41q12 -23 14 -47q0 -2 1 -9t1 -12q0 -11 -10 -41q0 -7 -3.5 -31.5t-4.5 -25.5q0 -5 2.5 -24.5t5 -37t2.5 -18.5l-8 -43q0 -3 -1 -6.5t-1 -5.5q0 -5 1 -19l1 -14q0 -23 -5 -29q-3 -4 -3 -36q0 -19 1 -48q0 -58 -2 -96t-14.5 -92.5t-36.5 -93.5l-10 -13v2l-29 -32 l-30 -25l-52 -45l-22 -16q-49 -34 -55 -37q-28 -4 -52 -4l-12 -11q-40 -32 -113 -41q-42 -6 -45 -6q-2 0 -26 -8t-31 -8q-40 0 -76 6q-23 5 -88 33q-6 2 -14 8q-4 3 -18.5 13.5t-28.5 19.5t-29 16l-8 12q-60 74 -60 88zM244 430q0 -86 2 -102l39 -41q2 -2 9 -21.5t9 -21.5 q70 -78 78 -82q2 -2 45 -2q53 0 53 2q4 0 30.5 10t29.5 10h118q1 1 10.5 6.5t18 10t10.5 4.5t11 -4.5t19 -10.5t11 -6h37q18 61 23 105v47q0 104 -23 364q-8 14 -45.5 62.5t-50.5 62.5q-2 2 -7 8t-9 10.5t-5 4.5q-80 20 -98 20q-149 0 -297 -270q-1 -3 -8.5 -29.5 t-7.5 -31.5q-2 -4 -2 -105z" />
<glyph unicode="h" d="M-66 1430v6q0 14 15 20l59 25q3 1 12.5 5t15.5 6.5t7 2.5h51l195 23h84q8 1 37 4t54 5.5t30 2.5l24 16q8 0 32 -6t30 -10q19 -7 28.5 -29t9.5 -45v-14l-26 -37q-16 -16 -50.5 -26t-53.5 -11.5t-29 -1.5h-51v-229q0 -6 -4.5 -39t-6.5 -39v-12q1 -6 6 -45.5t5 -45.5v-139 h14q117 12 145 12q5 0 14.5 4.5t10.5 8.5q8 0 29.5 1t29.5 1q144 0 219 -15q25 -6 62.5 -41.5t46.5 -62.5q1 -1 6 -23.5t6 -23.5l12.5 -25t12.5 -28q12 -72 12 -129v-154q0 -3 6 -29.5t8 -31.5v-54q0 -17 4 -77t7 -74h123q4 0 34 -15q23 -11 23 -12q3 -6 8.5 -31t5.5 -32h19 q0 -8 -3 -15.5t-7 -13t-11.5 -11.5t-11.5 -9t-12.5 -8.5t-10.5 -6.5q-37 -24 -108 -24h-15q-7 1 -33 3t-48.5 4t-26.5 3q-29 5 -47 14q-2 1 -4.5 9t-4.5 17.5t-3 10.5q-3 4 -12 8t-13 4q18 41 25 78q0 1 1 27t1 35q0 8 -0.5 23.5t-1.5 28.5v13q-13 39 -13 51v181 q0 20 -12 194q-4 42 -42.5 64t-84.5 22h-8q-26 -3 -67.5 -9.5t-70 -10.5t-30.5 -4q-166 -34 -184 -39q0 -8 -11 -52q0 -3 -5 -12.5t-7 -11.5v-39q0 -2 -6 -19.5t-6 -19.5l-13 -51v-51q-10 -23 -10 -27v-11q-1 -11 -1.5 -24.5t-0.5 -19.5q0 -11 1 -35l1 -25q0 -1 5 -18t5 -19 q3 -16 2.5 -48.5t3.5 -58.5t19 -46q12 1 54.5 1t54.5 -1q6 0 15 -5.5t9 -8.5q1 -1 6.5 -18t5.5 -19q2 -2 7.5 -13t5.5 -14q2 -4 2 -6q0 -31 -18.5 -49t-39.5 -21.5t-55 -6t-47 -5.5q-1 0 -17.5 -6t-17.5 -6h-61q-3 0 -17.5 -6t-19.5 -9q-1 0 -6 -7t-6 -7q-20 0 -50 -10h-12 q-64 24 -69 24q-4 2 -15 12.5t-12 14.5q-1 1 -5.5 13t-4.5 14q-1 1 -9 8.5t-16.5 15.5t-15.5 15.5t-8 9.5q-15 15 -15 33v6q6 9 19 23t16 14h164q0 2 -1 11.5t-1.5 16t0.5 10.5q0 1 6 7.5t6 7.5q2 20 2 28q0 4 -1 19t-1 16q0 3 -6 32.5t-6 31.5q0 1 -0.5 19.5t-1 41 t-0.5 33.5t0.5 31.5t0.5 36.5l1 16q0 12 35 231v103q0 13 12 49q2 31 2 205q0 199 -2 207q0 28 -12 100q-5 19 -35 78h-19q-32 0 -88 -19.5t-84 -19.5h-6q-48 11 -59 39q0 1 -15 76z" />
<glyph unicode="i" d="M236 934q0 25 4 29q5 6 34.5 22t42.5 19q77 22 207 22h47q45 -4 160 -22q18 -18 19 -21q19 -38 41 -104v-82q-60 -507 -60 -516q-1 -6 -1 -20q0 -33 4 -110q5 -108 5 -116q43 0 127 18.5t129 18.5h11l38 -19l2 -19q3 -18 3 -24q0 -4 -1.5 -14t-2.5 -18t-1 -9 q-7 -12 -36.5 -43.5t-42.5 -38.5q-2 -2 -14.5 -2t-27.5 1t-16 1q-4 -1 -23.5 -6t-35 -9.5t-19.5 -6.5q-8 -2 -60.5 -31t-57.5 -31h-1q-5 -1 -25 7q-23 8 -34 14q-9 4 -59 41l-21 188v41q2 2 11.5 20t9.5 21v39l20 188l19 330l20 84q0 1 1 6t1 6l-2 9q-6 11 -29 43t-30 39 q-6 2 -8 2q-1 0 -6.5 -1t-6.5 -1q-18 -4 -53.5 -14t-56.5 -15t-52 -9.5t-59 -4.5q-53 0 -53 2q-7 4 -30 28t-27 35q-4 4 -4 33zM651 1397v30q0 52 21 95q8 2 67 2h18h15h11q10 0 24 -2t24 -8t15 -15q5 -6 9 -13t6.5 -13t4 -15.5t2.5 -14.5t1.5 -16t0.5 -14.5v-15.5v-13 q0 -5 -0.5 -17t-1 -21.5t-0.5 -10.5q-2 -8 -15 -17t-29 -16l-17 -8q-1 -1 -26.5 -30t-30.5 -33q-7 -2 -11 -2q-20 0 -42 31.5t-25 54.5q-1 3 -1 16t0.5 29.5t0.5 17.5z" />
<glyph unicode="j" d="M10 -561q0 66 21 168q2 8 9.5 24t10.5 17q19 9 80 20h16q8 -3 21.5 -9.5t25.5 -13t22 -12.5t11 -6q6 -4 14.5 -28.5t8.5 -34.5q-1 -8 -20.5 -84.5t-20.5 -81.5v-41q0 -91 41 -102q13 -4 59.5 -12.5t55.5 -8.5q19 0 64 8t54 13q2 1 35.5 27.5t76 61.5t64.5 54q21 21 21 22 q54 80 80 121t63 114t54 136v43q0 9 4.5 55t9.5 95.5t6 56.5v20q-7 34 -19 111t-22 119l-39 164v63q-3 20 -18 83.5t-21 80.5q-2 4 -9 12t-11 8t-33.5 1.5t-34.5 1.5q-76 0 -225 -33t-227 -33q-7 0 -36.5 1t-31.5 1q-17 11 -29 32t-12 42l2 8q1 7 7.5 23t8.5 18 q10 9 40.5 25t39.5 18q6 1 59 0t60 0q4 0 39 10t39 10q3 1 12 1h19l10 -1l156 21q9 2 89 31.5t89 31.5l20 1q20 1 25 1h11h11h10.5t11.5 -1t10 -2t10.5 -3t9.5 -4.5t9.5 -6t8.5 -7.5q0 -34 7 -161t11 -169q2 -22 31.5 -195.5t30.5 -179.5v-59q0 -6 8 -53.5t8 -53.5 q2 -2 2 -77q0 -98 -56.5 -246.5t-121.5 -255.5q-73 -118 -78 -121q-9 -13 -39 -45t-41 -39q-1 -1 -19 -10.5t-20 -11.5q-3 -2 -16 -16t-26.5 -28.5t-14.5 -15.5q-92 -86 -217 -86q-37 0 -39 2q-24 5 -93 30t-83 32q-1 0 -23.5 19.5t-51 44.5t-44.5 40q-20 20 -20 21v63 l-19 80l-1 18q-1 18 -1 23zM582 1384q0 7 7 31.5t13 32.5q0 4 39 43l78 61h20q11 -2 79 -10t79 -10l39 -64q2 -8 2 -10q0 -30 -41 -115q-6 -8 -21 -28.5t-26 -35.5t-12 -15q-2 -2 -41 -2q-54 0 -58 2q-16 0 -54.5 8t-43.5 10q-9 9 -32.5 49t-26.5 53z" />
<glyph unicode="k" d="M18 1417q0 6 11.5 26.5t17.5 26.5q11 15 49 15q4 0 16 -1l13 -1q3 0 25.5 -6t23.5 -7q16 -3 47.5 -9t55 -10.5t24.5 -4.5q8 0 38 9.5t40 14.5t12 18.5t0.5 29.5t-0.5 20q5 25 25.5 47.5t42.5 22.5h12.5t8 -1.5t7.5 -4.5t5 -9q7 -9 20 -28.5t22.5 -35t10.5 -16.5l3 -18 q2 -18 5 -41.5t4 -36.5v-12q-26 -155 -49 -217q-14 -10 -16 -12v-13q1 -2 5 -12t7.5 -18.5t3.5 -10.5v-188q-16 -24 -16 -33v-8q2 -1 13.5 -12.5t14.5 -12.5q10 -57 10 -135v-15q0 -25 -2 -83q-2 -81 -2 -88q2 0 16 -2t15 -2q8 3 28 14t23 14q2 1 4.5 9.5t5.5 19.5t3 12 q11 11 26 41l6.5 13t8.5 15.5t10 10.5q7 2 27.5 13.5t23.5 15.5q2 1 10 8.5t16 16l16 17t9 9.5q27 25 86 63.5t82 57.5q3 3 30.5 32.5t33.5 37.5q1 0 6.5 11t5.5 13l12 17q2 0 13 8t23.5 17.5t14.5 10.5l10 11q10 11 19 20t12 10q6 8 33.5 24.5t34.5 16.5q9 0 32.5 -15.5 t23.5 -25.5v-26q0 -1 4.5 -7t8.5 -12t5 -8v-24q-1 -2 -18 -32t-21 -38q-9 -12 -26 -24.5t-29.5 -20.5t-35 -20.5t-26.5 -14.5q-28 -20 -77.5 -65t-63.5 -56q-12 -12 -15 -12q-2 -2 -15.5 -5t-28.5 -5.5t-17 -3.5q-3 -2 -12.5 -12.5t-12.5 -16.5q-5 -5 -15.5 -21t-10.5 -20 q-2 -2 -2 -4l2 -8q7 -54 37 -97q35 -44 38 -53q0 -4 6 -21t9 -18q1 -3 8 -13.5t17 -24t12 -17.5l39 -41q18 -22 111 -148.5t108 -146.5q22 -34 21 -100q0 -25 -21 -47q-26 -13 -29 -13q-2 1 -19 19.5t-20 19.5q-2 4 -30.5 16t-30.5 13q-15 8 -13.5 20.5t-1.5 34.5 q-22 21 -24 25q-2 2 -8 13.5t-7 12.5l-24 41q-1 2 -6 20t-6 19h-13q-3 2 -14 13.5t-12 15.5q-45 68 -52 80l-12 26l-37 29q-9 3 -26 37q-1 2 -4.5 12t-7 19t-3.5 10q-28 81 -112 135q0 2 -8 2q-7 0 -7 -2l-14 -29q-3 -6 -24 -27t-27 -24q-1 -2 -24 -13t-25 -13l-15 -29 l-19 -19t-20 -22q-1 -2 0 -32t0 -34q0 -3 -3.5 -13t-6.5 -13l10 -123l15 -51q5 0 32 -1t31 -1q8 0 23.5 0.5t28.5 1.5h12q4 0 27 6t24 6q4 2 22 2q17 0 17 -2q2 -2 4.5 -13.5t4.5 -24.5t3 -15q0 -3 7.5 -14t9.5 -11v-8q0 -19 -24 -45t-44 -31h-51q-2 0 -18.5 -19t-20.5 -20 h-64l-52 -4t-72 -5.5t-39 -2.5q-14 -2 -68 -13.5t-74 -17.5q-3 0 -20 -6t-19 -6h-24q-52 0 -66 29q-4 11 -20 43t-19 37v38q2 3 12.5 8t16.5 5l88 18q23 3 67.5 18t59.5 19q2 1 14.5 3.5t23.5 5.5t13 5q2 1 2.5 9.5t0 17.5t-1.5 17.5t-1 9.5q15 75 15 94q0 3 5.5 105 t10.5 200.5t6 140.5q2 21 2 29q0 4 -1 14t-1 11q0 2 -12 26q-10 60 -10 80q-15 188 -15 299q0 24 7.5 72t7.5 73q0 23 -15 54q-25 -1 -115 -1t-116 1q-9 0 -38 4.5t-36 7.5t-21.5 14t-17.5 15q-6 10 -17.5 34.5t-11.5 30.5z" />
<glyph unicode="l" d="M170 1309l12 12l15 39q17 39 34 65q1 0 11 5.5t12 7.5q5 3 19 17.5t18 19.5q27 4 231 51q4 1 62.5 18.5t70.5 22.5q3 7 16 20.5t19 14.5q4 4 37 4q37 0 37 -4q2 0 27 -25q8 -8 8 -27q1 -10 1 -55t-1 -57q16 -8 16 -19t-16 -22v-51q0 -26 8 -80t8 -80q0 -4 -1 -17t-1 -14 q0 -2 -7 -19t-7 -20q0 -4 7 -26t7 -23v-12q-7 -58 -11 -118.5t-7 -147t-4 -117.5v-51q0 -2 -6.5 -9t-6.5 -8q-2 -3 -14 -37v-10q1 -14 4.5 -45.5t6.5 -57t3 -26.5q0 -6 5 -21t8 -18v-256l8 -63q6 -13 28 -13h9q2 0 14 6.5t14 6.5h37q1 0 22 6t25 6q21 2 31 2q2 0 14.5 -1 t14.5 -1q5 -6 21.5 -39l17.5 -35l1 -12q1 -12 1 -16l-2 -25q-33 -50 -39 -53h-72q-5 0 -43.5 -5.5t-42.5 -5.5h-145l-158 -26q-8 -2 -53 -14.5t-70 -12.5h-10q-3 0 -25 6t-24 6h-48q-20 4 -41.5 34.5t-21.5 52.5q0 12 17.5 25.5t31.5 17.5q3 0 25 5l22 5q1 0 13 9t14 9 q6 0 66.5 5t66.5 5q16 2 47 8t53 12l23 5v281l-17 26v82q0 8 -0.5 39t0 45t2 42.5t4 46t8 40t13.5 39.5v203q2 2 7 12.5t5 13.5t-5 13t-7 12v178l12 105v24q-8 88 -12 101q0 8 -10 28q-10 0 -38 -5.5t-36 -8.5l-37 -25q-2 -1 -30 0t-31 0q-18 -3 -53.5 -19t-57.5 -18h-47 l-35 -30q-18 -10 -24 -11.5t-27 -1.5h-6h-6h-5t-5 1t-4.5 2.5t-4.5 4t-4 5.5q-12 30 -12 41z" />
<glyph unicode="m" d="M-125 981q0 9 15 42t24 40q11 14 78 43q11 4 49 18.5t72.5 26t58.5 16.5q2 2 31 2q24 0 26 -2q9 -3 24 -19t15 -22v-311l23 -18q0 6 7 30t11 31q2 5 30 51.5t30 51.5l18 63q8 22 20.5 35t32 18.5t33.5 6.5t43 1h47l21 -61l41 -63v-21q12 -67 39 -166q17 -60 18 -61 q16 -4 20 -4q2 0 10 2t9 2q2 2 6.5 15.5t9 29t4.5 16.5q1 3 19.5 32t19.5 32q11 23 19 61l198 207q7 2 9 2q24 0 67 -43q5 -3 14 -12t9 -11q2 -2 9 -30t9 -31q2 -7 31 -62t31 -61l16 -125q2 -13 22 -207q0 -1 -6 -55.5t-6 -56.5q0 -20 -5 -63t-5 -62q0 -27 28 -54t33 -38 q4 -12 11.5 -44t7.5 -38q0 -8 -7.5 -24t-11.5 -17q0 -4 -28 -4q-29 0 -33 4q-13 4 -57 41q-10 7 -33.5 30.5t-28.5 30.5q0 2 -4.5 16.5t-8 28t-3.5 17.5q-1 9 -1 66v118.5t0.5 122t0.5 65.5l-21 144q-2 12 -9.5 45t-10.5 39q-9 20 -27 20q-20 0 -31 -20q-3 -4 -20 -42 t-20 -42q0 -1 -9.5 -10.5t-9.5 -10.5q-6 -12 -48.5 -160t-51.5 -170l-19 -61q0 -2 -4.5 -27.5t-9 -49t-6.5 -27.5q0 -1 -9.5 -20t-9.5 -21v-64q-4 -6 -27 -30t-32 -29q-4 -4 -10 -4q-4 0 -8 4q-9 5 -32.5 28t-29.5 31l-18 84v41q0 6 -10.5 52t-10.5 50v250q0 2 -8.5 20 t-9.5 19q-35 156 -39 166q-1 2 -3.5 11t-4 13t-5 10t-7.5 8.5t-9 2.5l-10 -2q-3 -5 -12 -31t-9 -30q-3 -13 -20 -58t-18 -47q-2 -6 -30 -61.5t-30 -61.5t-18.5 -127t-20.5 -141q-3 -10 -10.5 -63t-7.5 -62q-1 -1 -6.5 -11t-10.5 -19.5t-6 -12.5q-16 -96 -16 -123 q-2 -6 -6 -10.5t-7.5 -7t-9.5 -3.5t-9.5 -1h-11h-9.5q-25 0 -27 2q-9 4 -24 20t-15 21v743q-20 60 -20 84v41q-1 10 -9.5 34.5t-11.5 27.5h-8q-41 0 -63 -10.5t-33.5 -20.5t-26.5 -10h-8q-6 2 -21 10t-18 12q-5 3 -15 12t-17 17.5t-7 9.5z" />
<glyph unicode="n" d="M8 1085v6v7t0.5 5.5t1 5.5t2 4.5t3.5 4t5 2.5l52 15h102q20 0 90 14h27q1 0 22.5 5t26.5 7q2 0 14.5 6.5t14.5 6.5q37 2 49 2l51 -2q18 -3 46.5 -25.5t43.5 -40.5q-20 -22 -31.5 -61t-14 -60.5t-5.5 -66.5q0 -2 6 -2q8 0 8 2l37 38l37 27q2 1 31.5 27t34.5 28 q5 4 44.5 21t47.5 18q14 9 68 41t71 41h18q27 0 72 -12t61 -29q9 -9 13 -26q3 -6 13.5 -35t12.5 -33q3 -13 12.5 -42.5t17 -52.5t7.5 -26v-82q0 -2 8.5 -26t8.5 -27v-244q-25 -31 -29 -77l-12 -109q-15 -6 -15 -18l2 -9q0 -1 6.5 -6t6.5 -6q0 -2 -6.5 -15t-6.5 -14 q-4 -9 -9 -34.5t-5 -30.5q0 -17 5 -43.5t9 -25.5h152l41 -27v-107l-14 -14q-1 0 -6.5 -3.5t-11.5 -7t-9 -4.5q-6 0 -44 -1t-44 -1q-11 0 -32.5 0.5t-39 1t-18.5 0.5q-8 0 -35.5 7.5t-28.5 7.5t-9 10.5t-17 24t-13 20.5q-5 9 -7.5 14.5t-3.5 12t-1.5 10t0 13.5t0.5 16 q0 41 2 43q0 1 5 11.5t5 12.5q1 6 0 54.5t0 54.5q0 15 13 67v25l14 70q0 1 6 19t6 19l15 121v203l-15 109q-3 19 -28 42t-43 23h-7q-90 -40 -178 -92q-1 -1 -53 -27q-6 -9 -55.5 -55.5t-59.5 -52.5q-5 -5 -25.5 -16.5t-35 -24t-14.5 -27.5v-483q0 -9 6 -30t8 -23 q16 -2 18 -2q20 0 58 8t59 8l4 -2q14 -14 26.5 -40.5t12.5 -47.5q0 -22 -15 -37.5t-36 -22.5q-30 -5 -133.5 -16t-132.5 -12h-68q-1 0 -18 -7.5t-19 -7.5l-14 -1q-15 0 -33.5 -0.5t-28.5 -0.5q-7 0 -39 1t-38 1q-8 6 -28 27.5t-24 28.5q-2 14 -2 18q0 21 19 49.5t22 39.5 h166q62 8 90 16q3 0 9 4.5t6 7.5q12 104 12 342q0 14 -1 91t-1 91q-10 29 -10 68v12q0 1 5 14t5 15q1 2 3.5 30.5t6 71t4.5 57.5v9q0 10 -43.5 22t-52.5 12q-33 0 -97 -8t-98 -8h-16q-31 11 -37 16q-9 3 -14 11.5t-9 22t-6 18.5q0 1 -5 6.5t-5 7.5q-2 14 -2 18z" />
<glyph unicode="o" d="M96 580q0 11 15 120q7 68 14 82q0 3 10 20t12 19q13 39 13 56l92 108q10 12 78 80q143 50 162 53q3 0 57.5 7t71.5 8h36q-4 1 -8 10.5t-2 15.5q1 5 18.5 22t18.5 19q22 0 76 12h14l51 -26q6 -1 40.5 -13.5t37.5 -13.5l39 -26l76 -41q30 -18 39 -27q32 -48 37 -53 q27 -27 28 -27q0 -4 5 -27.5t8 -27.5l12 -12q10 -40 10 -41v-95q0 -3 6 -20t8 -19q15 -86 15 -96q-2 -20 -12.5 -71t-16.5 -64q-1 -2 -13.5 -18t-23.5 -31t-12 -19q-1 0 -14 -26q0 -1 -6.5 -6t-6.5 -6q-1 -4 0 -40.5t0 -41.5q-4 -11 -18 -41.5t-21 -38.5l-49 -39 q-7 -6 -53.5 -53t-73.5 -56q-3 -1 -21 0t-20 0l-4 -4q-4 -5 -8 -9t-8.5 -8t-5.5 -5l-49 -43q-4 0 -15 -6.5t-12 -6.5h-51q-48 -24 -51 -24h-11q-12 -1 -26 -1.5t-21 -0.5q-5 0 -18.5 0.5t-24.5 1t-12 0.5q-2 0 -66 24q-102 45 -190 160q-2 2 -6.5 22t-5.5 21q-51 51 -54 53 q-3 4 -19.5 41t-19.5 41q-1 1 -6.5 10.5t-10.5 18t-5 10.5q-1 4 -1 24.5t0.5 45t0.5 26.5q-14 23 -14 25q-15 52 -15 68zM276 471q2 -4 25 -51.5t29 -54.5q2 -4 18.5 -28t18.5 -28q4 -3 15 -10t20.5 -14t13.5 -15q12 -24 12 -26q23 -23 29 -27q4 -3 17 -14.5t22.5 -19.5 t11.5 -9q3 0 35.5 -6t40.5 -6q9 0 69 6t70 6q16 23 27 31q1 1 55 44t61 48q26 23 76 94q0 2 5 13.5t5 13.5q1 2 7.5 8t14.5 12l7 6q8 13 27 49.5t22 45.5v26q2 13 7 82.5t5 79.5v23q0 56 -24.5 114.5t-65.5 91.5h-192l-215 -12l-76 -26l-27 -15q-2 0 -18.5 -5.5t-17.5 -6.5 l-54 -53q0 -3 -5 -15t-7 -14q-2 -3 -13.5 -22.5t-15.5 -26t-13 -23.5t-12 -28t-6.5 -26.5t-3.5 -29.5q0 -8 6.5 -20t6.5 -19v-8l-13 -119v-16z" />
<glyph unicode="p" d="M127 -526q0 49 4 53q1 7 16 23.5t23 19.5q4 2 47.5 9t48.5 9q17 8 29 23t17.5 35.5t8.5 36t4.5 40t2.5 31.5l18 271v34q0 31 -21.5 51t-21.5 66q0 6 0.5 19.5t0.5 24.5l1 11q0 2 11 10.5t12 10.5q1 6 9.5 33t8.5 30v455l-18 61q-16 0 -68.5 8t-71.5 13q-10 3 -32 19.5 t-25 23.5q-4 0 -4 18q0 19 4 23q5 9 27.5 33.5t29.5 27.5l179 41q6 2 68 11.5t69 11.5q4 1 21.5 10t36 19.5t20.5 11.5q96 19 98 20q2 0 20 9.5t19 9.5t10 0.5t20.5 1t16.5 0.5q7 0 28.5 -1t22.5 -1q43 0 119 -19q12 -7 56.5 -38t62.5 -46q6 -4 21 -20t18 -21 q43 -83 57 -125l2 -30q2 -30 2 -41q0 -5 -2 -36.5t-2 -37.5q-23 -61 -119 -248l-39 -61q-9 -28 -18 -41l-238 -248q-2 -3 -47 -20t-67 -21h-41q-39 -5 -99 -22q-6 -29 -10 -57.5t-6 -49t-3 -51t-1 -46v-53.5v-55v-143q31 -20 41 -23l119 -18q31 -6 73 -23q-1 -1 -1 -12 q0 -17 3 -55q1 -27 1 -43q0 -22 -3 -23q-19 -11 -75.5 -20.5t-77.5 -9.5l-355 12q-9 0 -31.5 16t-25.5 25q-4 4 -4 37zM483 256q19 0 88 6.5t91 9.5q4 1 28.5 20t28.5 23q123 75 217 246q75 153 78 166q2 4 2 49v22q1 8 1 13t-1 7q0 5 -2 16.5t-7.5 19.5t-13.5 18 q-6 10 -28 34.5t-29 29.5q-96 53 -119 61h-24q-98 0 -211 -84l-19 -18q-3 -1 -30 -11t-29 -12q-4 -3 -12.5 -27.5t-8.5 -33.5v-555z" />
<glyph unicode="q" d="M59 647q0 4 8 45t13 60q1 6 5.5 27t8 37t4.5 18l21 40v41q6 18 39 64q10 15 52 67.5t44 57.5q1 0 11 4.5t19 9t11 6.5t29.5 31t31.5 31q34 28 82.5 45.5t91.5 17.5h21q123 -30 158 -43q12 -4 56.5 -44t51.5 -40q2 0 27 36t56.5 78t45.5 54q4 0 38 1t40 1h10 q30 0 47.5 -0.5t48 -5.5t48 -14t31.5 -28.5t14 -47.5q0 -3 -1 -16t-1 -15q-88 -44 -236 -82q1 -6 1 -22.5t-1 -20.5q-6 -11 -32 -72.5t-29 -70.5q-1 -5 -1 -35q0 -23 1 -59v-74v-18q-11 -296 -19 -373q0 -10 -10 -103.5t-10 -103.5v-82q-1 -2 -10 -21.5t-9 -21.5 q0 -1 19 -20v-21l-19 -143v-12q0 -24 10 -68.5t29 -44.5h197q2 0 9.5 -17.5t8.5 -25.5q2 -17 2 -21q0 -23 -11.5 -52t-29.5 -32l-254 -38q-4 4 -19 12t-20 8q-3 0 -20 -11q-16 -9 -20 -9q-8 0 -34 17q-23 15 -26 21l-1 17q-1 16 -1 22q0 44 19.5 124t23.5 110q0 1 -0.5 14 t-0.5 26v25.5t1 14.5q0 8 9.5 64t9.5 61q5 33 9.5 94t7 107.5t1.5 47.5l-18 19q-57 -51 -134 -67.5t-180 -16.5q-59 0 -61 2q-6 2 -52 26t-67 37q-75 56 -78 62q-67 134 -78 166q-1 3 3.5 21t4.5 20h-20q0 37 -6 61q0 1 -6 11t-10.5 19t-4.5 11zM236 647q0 -86 2 -102 l38 -41q2 -2 9.5 -21.5t9.5 -21.5q70 -78 78 -82q2 -2 45 -2q53 0 53 2q4 0 30 10t29 10h119q1 1 10.5 6.5t18 10t10.5 4.5t11 -4.5t19 -10.5t11 -6h37q16 55 22 105v47q0 115 -22 364q-8 14 -45.5 62.5t-50.5 62.5q-2 2 -7 8t-9 10.5t-5 4.5q-80 20 -98 20 q-149 0 -297 -270q-1 -3 -8.5 -29.5t-7.5 -31.5q-2 -4 -2 -105z" />
<glyph unicode="r" d="M61 61v17q11 20 13 22q2 3 7 19.5t5 19.5q0 1 25 13l12 14h6q7 0 20 -7t21 -7h12q114 24 168 24q0 1 1 8.5t1.5 12.5t-0.5 8q0 1 -5 12t-5 12q0 4 2 24.5t4.5 45t3.5 33.5l15 37q1 4 1 23.5t-0.5 43t-0.5 25.5q1 1 5.5 18t4.5 19v114q12 36 12 52v65q1 1 6.5 17.5 t5.5 19.5q7 22 13 104v13q-11 22 -13 24v39q0 4 -10 19.5t-14 19.5v12q2 2 7 13t5 14l-6 96q-3 0 -16 1t-22 1.5t-15 -0.5q-2 0 -27 -9t-41 -7q-2 -2 -17 -8t-18 -6q-22 -2 -28 -2h-9.5h-9.5t-8.5 0.5t-8.5 1t-7.5 1.5t-9 3t-8 4.5t-9.5 5.5q-23 23 -23 24v91l23 24 q13 0 56.5 4.5t54.5 7.5q6 2 60 23t67 23h180l24 -13q1 -2 7 -7.5t6 -6.5q0 -2 -6.5 -19t-6.5 -20v-49q-2 -44 -7 -105t-5 -116q0 -1 -0.5 -7.5t-0.5 -12t1 -12t4 -10.5t8 -5q27 22 244 190q22 20 61.5 35.5t59.5 30.5q5 5 25 21t24 17q29 3 37 3h11h13.5t13.5 -0.5t15 -1 t14 -2t14 -3.5l12.5 -5t12 -7t8.5 -9.5t7 -12.5q2 -3 6.5 -33.5t5.5 -32.5q0 -1 25 -76q0 -2 -7.5 -12t-7.5 -12q1 -3 18.5 -20t18.5 -19v-19q0 -24 -13 -47.5t-34 -23.5q-23 0 -37 14l-61 61q3 10 3 20q0 29 -28 48q-38 -14 -76.5 -37.5t-83 -55.5t-71.5 -48 q-3 -4 -53.5 -33t-55.5 -33q-4 -3 -24 -24.5t-23 -26.5q-3 -3 -19 -13t-18 -10q-12 -18 -61 -67q-2 -2 -7 -12t-5 -13v-26q0 -2 -5.5 -19t-5.5 -18v-53q-2 -24 -14 -91.5t-12 -105.5v-47q14 -21 14 -23v-8q0 -8 -4 -10.5t-9.5 -2t-9.5 -7.5t-5 -25v-25q3 -3 18.5 -7.5 t21.5 -4.5q1 0 17.5 6t17.5 6h49q2 2 18 8.5t19 6.5h60q56 0 89 -19t33 -73v-13q-3 -3 -14 -15t-20.5 -22t-12.5 -12q-8 -3 -49 -7.5t-49 -4.5q-2 0 -13 -6.5t-14 -7.5h-192q-4 0 -37 -6.5t-37 -6.5h-37q-2 0 -33.5 -5t-37.5 -7l-25 -7q-24 -7 -46.5 -12.5t-27.5 -5.5h-12 q-7 0 -14 3t-11.5 5.5t-11.5 8.5t-10 8q-1 1 -7 3.5l-12 5t-6 3.5q-3 3 -18.5 24.5t-18.5 24.5z" />
<glyph unicode="s" d="M49 -111l17 25q0 2 3 24t3 25q0 1 6 12.5t6 12.5l14 71q6 31 21.5 94t21.5 95q1 3 3.5 20.5t5 34t4.5 19.5q1 0 10 4.5l21 10.5l18 9q20 10 35 10l4 2q13 0 25 -17t16 -32q10 -20 10 -47q0 -32 -10 -49q-9 -21 -11 -25v-6q0 -2 12.5 -7t27.5 -14t18 -20q2 -4 7 -30t5 -27 l10 -16q7 -2 28 -18l21 -17q37 -23 71 -29t93 -6q7 0 23.5 0.5t30.5 1.5h14q10 0 33 4.5t26 7.5q6 1 28 24t32 36l26 22q0 5 10 36.5t13 35.5q0 5 10 31t10 28q0 11 -3 39t-5 33q-4 4 -23.5 13.5t-25.5 11.5q-2 1 -13 10t-21 16.5t-13 7.5q-7 5 -38.5 19.5t-45.5 17.5h-10 q-6 5 -30.5 15.5t-53 21t-33.5 12.5q-3 3 -23.5 18.5t-25.5 16.5l-70 62l-10 17q-10 16 -12 17q-1 0 -6.5 8.5t-11.5 17t-7 9.5q-45 85 -45 166q0 8 -0.5 22.5t-0.5 21t2.5 17t8.5 21.5l3 3q4 3 6.5 5.5t2.5 3.5v33l11 27q58 128 141 172l94 47l60 24l36 11q0 2 64 2 q61 0 61 -2q14 0 25.5 -5t26.5 -16t20 -14q108 -64 154 -82q8 10 12 12l22 35q5 11 18.5 61t14.5 68v25q8 26 49 61q14 12 52 12q13 0 22 -6.5t13 -13t6 -21.5t2 -20.5v-22.5v-49q0 -1 -3.5 -3l-7 -4t-4.5 -3l-20 -61l-25 -35l-47 -144q0 -6 -18 -44t-19 -40v-73 q-10 -19 -10 -23q-3 -5 -5.5 -39.5t-2.5 -44.5q-10 -26 -68 -26q-38 0 -41 16q2 7 2 40t-2 42q-1 3 -5.5 18t-4.5 17q-2 12 -2 14q0 12 6 36t6 38v10l-35 35q-38 35 -102 72q-5 3 -17 8.5t-21.5 9t-10.5 4.5q-29 2 -39 2q-55 0 -115 -24q0 -2 -5.5 -7.5t-6.5 -5.5l-35 -12 q0 -1 -8.5 -0.5t-16.5 1t-10 -0.5l-34 -47q-32 -52 -45 -88.5t-13 -87.5v-17q19 -39 21 -47q5 -8 16.5 -25t21.5 -30t11 -14q2 -2 47 -25q60 -45 92 -59q3 -3 16.5 -8t18.5 -5q50 -15 104 -24l17 -13q2 -2 16.5 -12.5t18.5 -11.5q3 -5 30 -24.5t31 -24.5v-25 q1 -3 16.5 -18.5t16.5 -18.5q12 -20 12 -125q0 -7 -1 -23.5t-1 -17.5q-2 -4 -7.5 -27.5t-11.5 -49.5t-6 -27q-10 -30 -10 -51q-4 -4 -20 -29.5t-17 -30.5q-3 -1 -11.5 -10t-10.5 -12l-129 -98q-2 0 -18.5 -4.5t-18.5 -4.5q-19 -9 -21 -14h-190q-3 5 -20 14h-25q-2 0 -23 12 t-24 13q-7 2 -23 4.5t-27 6t-20 9.5l-35 37q-6 6 -26 21t-21 16h-22q-1 -3 -13 -49q2 -21 0 -25q0 -1 -6 -4t-6 -4v-51q0 -3 -22 -25q-1 -2 -3 -12.5t-7.5 -15t-18.5 -4.5h-6q-1 0 -4 5t-6.5 10.5t-4.5 6.5q-1 2 -17 17.5t-17 17.5q-5 8 -14 31.5t-9 27.5z" />
<glyph unicode="t" d="M51 905v8q0 1 5 12.5t5 12.5q0 6 4.5 28t8.5 23q18 2 24 2q44 0 62 -14h241q2 0 7 35.5t10 82t6 74.5q2 4 2 107q0 94 -2 108q-12 14 -12 56l2 20q1 3 10.5 13t21 23t15.5 17q3 0 12.5 5.5t11.5 7.5q5 2 9 2q29 0 66.5 -27t37.5 -57q0 -35 -24 -95.5t-27 -91.5v-75 q0 -4 -6 -44.5t-6 -43.5q0 -12 1 -65.5t1 -63.5q146 0 290 12q4 0 54 6t55 6h14q15 0 32.5 -11.5t25.5 -25.5q6 -12 15 -36.5t9 -28.5q0 -2 -9 -17t-15 -22q-23 -23 -25 -23h-203q-58 -23 -154.5 -29.5t-115.5 -9.5q-17 -14 -27 -43t-10 -53v-6q2 -9 7 -64.5t5 -64.5v-12 q-3 -10 -10 -33t-10 -33.5t-7 -28.5t-5.5 -35.5t-2.5 -37.5v-37q0 -2 5.5 -19t5.5 -20q0 -2 -5 -19.5t-6 -19.5v-12q1 -12 4 -37t5 -44t2 -20q4 -31 51.5 -60.5t77.5 -29.5h6q77 13 170 39q23 10 27 10h45q107 13 123 13q11 4 48 25t48 28q-3 6 2 21t10 18q0 2 25 2 q22 0 22 -2q2 -2 6.5 -26t5.5 -25q2 -4 19 -27.5t18 -26.5q2 -4 2 -6l-2 -4q-1 -3 -17 -13.5t-20 -12.5q-12 -11 -50 -64t-70 -65l-170 -13h-37q-1 0 -28 -6t-32 -6q-1 0 -21 -0.5t-44.5 -1t-36.5 -0.5q-9 0 -52.5 1t-51.5 1q0 3 -10 7.5t-15 4.5q-23 -12 -25 -12 q-24 21 -35 25q-17 17 -49 39q-10 10 -14 10q0 4 -4 21t-6 20q-6 11 -19.5 29.5t-20.5 34t-7 34.5q0 27 10 43q-4 0 -13.5 4t-9.5 6v29q0 19 5.5 69t7.5 58q0 1 5 18.5t5 18.5v21.5v49v49v21.5q0 2 5 19.5t5 19.5v37l15 141l12 39v14q-10 10 -18 12.5t-20.5 0t-21.5 -1.5 q-2 0 -13.5 7t-12.5 7t-11.5 -7t-11.5 -7h-61l-37 28l-35 11q-16 6 -50 31.5t-34 37.5z" />
<glyph unicode="u" d="M-156 901v12q2 2 17.5 19t21.5 20q1 0 8.5 3t16 6t10.5 4h109q14 0 26 12q1 1 4.5 11.5t3.5 12.5l27 15q2 1 10.5 7t17 11.5t9.5 5.5h10q42 -5 49 -12q3 -3 13 -24t12 -27q3 -4 12.5 -8t14.5 -4v-150q0 -64 -8.5 -190.5t-8.5 -192.5v-133q10 -4 14 -15t3 -20.5t0 -15.5 q0 -1 5 -18.5t5 -18.5q1 -3 0 -25.5t0 -25.5q3 -15 27.5 -27t56 -22t39.5 -15q6 0 41 -1t41 -1q11 0 32 0.5t37 1.5h17q27 2 76 24t69 27l147 142q2 2 6.5 20.5t4.5 28.5v125l14 16q-2 12 -2 56t2 59q0 1 7 13t7 14q0 4 -7 44t-7 44v23v72q2 80 2 81q-4 0 -32 1t-29 1 q-104 -13 -150 -13h-22q-3 0 -8 5.5t-5 7.5q-1 1 -7 4t-11.5 6t-5.5 4q-1 1 -8 18t-7 19t-4 13.5t-4 13.5q-2 2 -2 26q0 23 2 25q0 4 13.5 18.5t23.5 20.5q1 1 45 12q175 10 244 10q21 -1 91 3q61 3 116 4q8 0 15 -1q61 0 106 -8q12 -40 12 -78q0 -35 -12 -49q-4 -5 -50 -51 h-6q-6 0 -38.5 2t-73.5 2q-15 -45 -15 -65v-39l-12 -11q-1 -3 -3.5 -11.5t-4.5 -16t-2 -10.5q-13 -75 -13 -127v-232q-12 -84 -12 -115q0 -2 -0.5 -29.5t-1 -61.5t-0.5 -50q0 -9 1 -69.5t1 -73.5q4 -10 17 -10h8q23 6 62.5 21.5t43.5 16.5q3 1 37 13t37 12q0 2 43 2 q37 0 39 -2q4 0 15.5 -10.5t13.5 -14.5v-16q0 -13 -2.5 -25t-9 -24t-11 -19.5t-15 -21.5t-14.5 -21q-1 -4 -5.5 -8t-6.5 -4q-1 0 -11 6t-11 6q-17 3 -19 3q-22 0 -59.5 -20.5t-44.5 -23.5q-4 -1 -36 -15q-32 -13 -62 -25q-23 -9 -32 -10q-2 0 -3 1h-11q-3 0 -12.5 6.5 t-11.5 8.5q-6 4 -39 45l-33 41q-2 2 -7.5 7t-7 7t-4.5 6.5t-4 8.5t-2 10q-1 4 0 38.5t0 38.5q-7 13 -12 13q-9 0 -22 -13q-7 -2 -34 -13.5t-28 -14.5q-3 0 -14 -11l-12 -12q-7 -5 -26.5 -15.5t-21.5 -10.5h-290l-52 14q-5 0 -31 4.5t-30 7.5l-47 41q-1 0 -12.5 5t-12.5 5 l-12 25q-2 3 -19 31.5t-18 31.5l-10 27v166l-27 51v152q0 1 6.5 54t8.5 65q0 15 12 51q2 2 2 4q0 1 -1 4t-1 4q-1 1 -6.5 17.5t-5.5 19.5v65q-1 6 -11.5 15.5t-13.5 9.5l-22 -7q-22 -7 -27 -7h-133q-33 1 -47.5 32.5t-14.5 71.5z" />
<glyph unicode="v" d="M-53 903l2 31q0 2 4.5 7.5t7.5 6.5l49 27q56 21 117 31.5t150.5 18t119.5 11.5q2 0 19 6.5t18 6.5l9 1q9 0 21 0.5t19 0.5q105 0 197 -54q-32 -9 -32 -42q0 -10 3 -21l-59 -62h-146q-12 -10 -35 -15t-37 -13.5t-14 -30.5q0 -29 22 -72.5t26 -60.5q3 -4 8.5 -32t5.5 -34 q1 -5 23.5 -50.5t23.5 -51.5q3 -3 8.5 -23t11.5 -41.5t7 -25.5l34 -74l37 -104q2 -2 12 -24.5t13 -26.5l10 -15q15 0 26.5 11.5t22.5 30.5t15 24q2 4 36 39v12l35 65q12 21 40 72.5t49.5 89t43.5 68.5q1 1 7.5 6t12.5 10.5t7 7.5q2 3 6 19.5t4 19.5q9 26 38.5 65.5 t35.5 49.5q1 4 12 25.5t13 27.5q0 1 5 18.5t5 18.5q36 36 37 39q5 6 18.5 50.5t30.5 49.5q39 13 47 17h6q41 0 117 -39q-4 -3 -13.5 -13.5t-11.5 -13.5v-26q-5 -30 -22 -64q-4 -4 -24.5 -31t-24.5 -32q-1 -1 -7 -13t-6 -14l-37 -63q0 -3 -11 -14t-13 -11q-37 -57 -60 -105 q-2 0 -7 -10.5t-5 -13.5q-1 -1 -19 -18t-20 -21q-3 -5 -34 -74.5t-37 -77.5l-23 -26q-17 -34 -27 -64q0 -9 -10 -39l-24 -38q-2 -2 -19.5 -23t-34.5 -42t-20 -26q-7 -4 -37 -63q-1 -1 -4 -11.5t-4 -11.5q-8 -9 -41 -31.5t-35 -43.5q-3 0 -19 -1t-20 -1t-19 1t-16 1 q-7 0 -26.5 31t-22.5 44v35q-1 11 -16.5 16.5t-18.5 12.5l-5 30q-5 29 -9 31q-1 2 -11.5 7.5t-11.5 7.5v53q-22 33 -24 35q0 6 -5.5 27t-8.5 24q0 4 -11.5 28t-11.5 25q-1 9 -17.5 77.5t-17.5 74.5q-14 40 -24 51l-39 90q-2 5 -8.5 23.5t-12 34.5t-13 34.5t-14.5 31.5 t-12 17q-1 0 -16 9.5t-28 18t-15 11.5q-1 0 -13 12t-14 13h-24q-19 0 -54.5 -6t-54.5 -6h-10l-37 24l-12 14l-1 12q-1 13 -1 19z" />
<glyph unicode="w" d="M59 641q0 39 18 66.5t54 27.5h8q5 -1 17.5 -4.5t17 -4.5t13 -4.5t12 -7t8.5 -9t7.5 -13.5t4.5 -18v-84q0 -3 9.5 -31.5t9.5 -32.5q2 -4 2 -29t-2 -32l100 -184q0 -2 6 -2q19 0 33 20q3 7 20 33.5t19 29.5q3 8 28.5 61.5t30.5 61.5q35 53 39 64q7 14 13 33t9.5 29.5 t11 21.5t22 15.5t38.5 4.5q41 0 43 -2q44 -8 89 -55t74.5 -98.5t58 -93.5t42.5 -42h13q10 37 47.5 158t50.5 154q27 84 127 84q3 0 24 -1t25 -1q23 -33 23 -51q0 -14 -12 -44t-30.5 -67.5t-21.5 -44.5q-18 -48 -48.5 -145.5t-47.5 -145.5l-21 -41q-29 -87 -38 -123 q-12 -4 -39 -4q-35 0 -39 4q-9 1 -32 17t-28 24q-8 9 -46.5 73.5t-51.5 90.5q-5 8 -40 83t-40 83q-2 5 -8.5 12.5t-9.5 7.5q-10 -6 -41 -38.5t-37 -43.5q-3 -3 -11.5 -21t-17.5 -38t-10 -22q-9 -16 -51.5 -85.5t-50.5 -80.5q0 -3 -7.5 -21t-9.5 -20q-10 -10 -48 -42.5 t-50 -41.5l-8 -2q-23 0 -52 21.5t-40 43.5q-15 29 -30.5 70.5t-24 68t-24.5 82t-20 68.5l-18 63q-2 2 -11.5 20t-9.5 19q-2 4 -6 28t-7.5 49t-4.5 28q0 2 -10.5 21t-10.5 22q-2 6 -2 8z" />
<glyph unicode="x" d="M14 1016v14q43 37 82 37h164q6 0 19 5.5t16 8.5q22 -1 89.5 -1t86.5 1q5 0 42 5.5t40 5.5q2 0 57 -11q8 -2 20.5 -10t16.5 -16l6 -17q6 -17 11.5 -33.5t7.5 -23.5v-6q0 -9 -13 -19q-4 -2 -13 -8t-15.5 -10t-7.5 -4q-5 -3 -41.5 -8.5t-53.5 -5.5h-67q-15 -2 -15 -19 q0 -45 50 -117q48 -80 127 -184h14q1 1 5 12.5t5 12.5t18 11.5t19 12.5l70 74q0 1 5 12.5t5 12.5t2.5 3t6 4.5t5.5 4.5q1 2 28.5 24t29.5 25l22 37q7 7 42.5 49t39.5 49q0 1 6 12.5t6 12.5t11 12q9 4 32.5 17t41.5 22.5t22 9.5q14 2 20 2q37 0 70 -16q8 0 27.5 -10t21.5 -13 q3 -3 7 -18t3 -19q0 -3 -11 -25t-11 -24q-1 -3 -5.5 -19t-4.5 -18q-7 -13 -64 -33t-68 -28q-1 -1 -5.5 -7l-9 -12t-5.5 -6l-49 -36q-34 -29 -117 -123l-12 -25l-23 -14q-13 -13 -33.5 -49.5t-35.5 -49.5q-35 -17 -35 -24v-10q0 -39 22 -76q1 -3 8.5 -10.5t17.5 -16.5t11 -10 q0 -2 4.5 -13t5.5 -12q27 -27 35 -39l49 -83q8 -24 11 -27q0 -14 10 -74l47 -10q1 0 21.5 -0.5t45.5 -1t37 -0.5q10 0 54 1t51 1q14 12 41 12q30 0 54 -22t24 -52q0 -35 -19 -66.5t-51 -31.5h-305q-35 -14 -57 -14q-45 0 -71 35.5t-26 83.5q0 19 4 29t8.5 11.5t8.5 6.5t4 14 v4q-2 5 -11 20.5t-12 16.5l-22 25l-47 112l-13 25q-3 6 -16.5 24.5t-19.5 24.5q-45 -35 -94 -85t-80 -86t-82 -97q-25 -44 -37 -52q0 -1 -5.5 -13t-10.5 -23t-7 -13q-5 -5 -47 -12h-10q-36 29 -70 96v8q0 16 9 31.5t26 35t21 24.5l24 39l131 137l80 71q3 1 12 13.5t20 28.5 t15 20q3 3 13 19t12 18q-14 3 -35 24q-5 7 -15 30.5t-12 31.5h-10q-27 19 -42.5 71t-25.5 66q-4 3 -24.5 24.5t-22.5 24.5q-1 0 -4.5 6l-7 12t-4.5 7q0 5 -8 20t-10 17q-1 0 -13 6t-14 6q-3 1 -8 12l-15 25q-2 5 -15.5 19.5t-20.5 17.5h-127q-5 0 -18.5 5t-16.5 9 q-1 0 -23 22l-26 13q0 14 -11 47z" />
<glyph unicode="y" d="M-94 -477q0 44 37 76t80 32l12 -2q14 -14 14 -26q8 -5 43.5 -16t44.5 -11q2 0 25.5 6t25.5 6q60 15 76 15q6 0 27 14q3 2 12.5 8t17.5 11.5t9 5.5q8 9 39 41.5t52 54.5t23 26q14 23 54 106t47 107l2 13l-2 18q-11 23 -13 25q-13 34 -50 114.5t-52 126.5q-1 3 -3 19.5 t-4.5 31.5t-4.5 17q-34 69 -37 82q-2 3 -7 26t-5 27q-12 33 -52 94l-26 27q-2 2 -13 39.5t-14 40.5q-15 45 -63 123q-5 8 -27 37.5t-33 50.5t-16 45q-13 -2 -62.5 -2t-64.5 2q-28 1 -41.5 29t-13.5 59q0 26 20.5 41.5t46.5 17.5l203 15q10 0 69.5 11.5t71.5 14.5q6 2 8 2 l7 -2l49 -26q5 -3 8 -5.5t4.5 -5t2 -6t0.5 -6t-0.5 -8.5t-0.5 -10q0 -25 -2 -27q-3 -16 -12 -40.5t-12 -24.5h-115q-12 0 -12 -21v-8q24 -104 127 -309l24 -39q6 -11 28 -57.5t25 -51.5q11 -33 11 -53q4 -12 13 -41t16 -53t9 -27l13 -14q4 -4 20.5 -32.5t18.5 -33.5 q2 -3 8.5 -13.5t11.5 -18.5t6 -11q9 -12 21 -12q4 0 7.5 1.5t7 4.5t5.5 5.5t6.5 7.5t6.5 8q5 11 43 74t47 73q17 28 50 73.5t50 73.5q111 190 205 392v12l-39 14q-4 1 -38.5 6.5t-37.5 6.5q-11 8 -36 33t-29 34q18 25 39.5 39.5t49 21t49 8t58.5 1.5q121 0 289 -41 q5 -2 8.5 -5.5t4.5 -10.5q2 -11 2 -14t-1 -6v-9l-2 -23q-3 -10 -22.5 -30.5t-26.5 -24.5q-5 -1 -46 0t-46 0q-21 -3 -42.5 -29t-33.5 -51l-12 -41l-39 -51q-1 -6 -19.5 -44t-19.5 -40q-3 -5 -15.5 -25t-27 -41.5t-18.5 -27.5q-2 -1 -20.5 -18.5t-20.5 -18.5 q-12 -20 -29.5 -60t-22.5 -51l-22 -39q-6 -9 -13.5 -34t-13.5 -33l-51 -53q-2 -3 -6.5 -21.5t-5.5 -19.5q-5 -5 -21.5 -28.5t-17.5 -27.5q-3 -3 -26 -40t-25 -40q-2 -4 -18 -27t-19 -24q-5 -7 -21.5 -35t-17.5 -34l-27 -41q-2 -1 -20.5 -19.5t-20.5 -19.5q0 -5 -3.5 -28 t-6.5 -26q-2 -5 -25.5 -53.5t-25.5 -56.5q0 -2 -6.5 -19.5t-7.5 -17.5q-1 -5 -25 -29.5t-25 -25.5q-1 -2 -18 -32.5t-20 -35.5q-15 -15 -76 -53q-3 -3 -18 -7.5t-21 -4.5q-34 -7 -114.5 -18t-90.5 -11q-20 0 -78.5 11t-75.5 18q-3 0 -13.5 10.5t-10.5 13.5l-1 12 q-1 11 -1 17z" />
<glyph unicode="z" d="M53 580v12q13 39 13 55v94q1 17 10.5 63.5t13.5 57.5q3 7 18 22.5t21 16.5q15 2 25 2h7.5h6.5h4.5t4.5 -1t3.5 -1.5t4 -2.5t3.5 -4l5 -5l24 -41q29 -2 189 -2q174 0 182 2q8 0 63.5 6.5t65.5 7.5q6 0 51 15h102q3 0 25 5.5t25 6.5q1 0 9.5 0.5t19.5 1t16 0.5h6 q17 0 28 -0.5t28.5 -4t26.5 -13.5t9 -25q0 -31 -15.5 -64.5t-31 -53t-45 -53t-37.5 -42.5q0 -1 -3.5 -9t-6.5 -14t-4 -6q-4 -6 -29 -36t-53.5 -62.5t-30.5 -34.5q-13 -13 -27 -41q-5 -10 -24 -29q-5 -5 -20.5 -26t-18.5 -27q-31 -31 -144 -150.5t-151 -160.5 q-5 -5 -103 -117l50 -18q51 2 214 2t210 -2q7 0 45 -5.5t45 -7.5h26q24 0 54.5 5t67.5 14t56 12l15 66v30q-1 31 -1 57.5t1 30.5q0 3 4 15t6 14q11 26 14 33t13.5 23t24.5 21t34 5h19q2 -2 6.5 -13.5t3.5 -15.5q0 -6 1 -43t1 -43q0 -10 -0.5 -31t-1 -38.5t-0.5 -18.5 q0 -11 -10 -41v-321q0 -14 -23 -14q-3 0 -10 7t-15 7q-6 0 -12 -7t-12 -7h-6q-8 6 -22 21t-15 19q-4 9 -4 46t4 49q-20 19 -39 26q-4 1 -15.5 -4t-13.5 -8h-536q-24 12 -39 12q-3 0 -37 -6t-39 -6l-23 -1q-22 0 -50 -0.5t-42 -0.5q-8 0 -56 1t-56 1q-17 3 -38 20t-28 31v12 q0 22 12 41q8 12 54 43l73 66q66 58 129 121l101 121q49 49 51 53q3 3 21 15t20 14q148 145 270 311q-4 10 -4 22q0 30 27 70h-10q-26 0 -54 -12h-446q-2 -1 -11.5 -4.5t-17.5 -7t-10 -3.5q-8 -2 -102 -14l-7 -5q-7 -5 -8 -7q-1 -4 0 -40.5t0 -41.5q0 -3 -9.5 -14t-12.5 -11 q-4 -3 -41 -16q-1 0 -6.5 -6t-6.5 -6l-6 -2l-6 2q-33 33 -37 41z" />
<glyph unicode="{" d="M246 -84q0 51 44.5 130.5t92.5 139.5q2 2 46.5 49t55.5 56v18q0 36 -29.5 47.5t-73.5 11t-54 3.5q-10 5 -34 29t-28 34q-4 4 -4 31q0 23 4 31q11 14 49.5 54t51.5 50q17 17 65.5 29.5t52.5 13.5q15 17 17 19l59 40q9 5 28 10t32.5 12t19.5 21q-10 3 -41.5 19t-38.5 22 q-2 2 -15.5 16.5t-26.5 28.5t-17 17q-1 2 -19 11t-20 11q-13 11 -44.5 43.5t-35.5 38.5q-1 1 -3.5 29.5t-2.5 42.5q0 38 6 74q13 18 72 106.5l67 100.5q10 15 40.5 34.5t37.5 26.5q2 1 20 20.5t21 20.5q1 2 14 6t27.5 8t17.5 6q6 3 48 31t49 33l98 41q7 2 22 7.5t25.5 9 t11.5 3.5q4 0 27.5 -8t32.5 -12q7 -3 11 -8t6.5 -8.5t3.5 -11.5t1 -11.5v-14v-14.5l-2 -37q-4 -6 -27 -30t-32 -31l-60 -23q-47 -13 -95.5 -41.5t-75.5 -50t-85 -71.5q-51 -44 -74.5 -79t-23.5 -87q0 -26 46.5 -63t112 -76t77.5 -48q5 -3 12.5 -11t7.5 -9t0.5 -10.5t1 -21.5 t0.5 -17q0 -93 -22 -115q-3 -5 -78 -43q-76 -47 -119 -104l-2 -9q0 -3 18 -18.5t39 -32.5t25 -22v-21q-10 -43 -26.5 -81t-44.5 -77t-47 -62.5t-60 -70.5q-6 -4 -39.5 -40t-38.5 -42q-18 -33 -18 -92t24.5 -110.5t71.5 -67.5q100 -20 139 -20q41 16 59 20q97 36 97 41 q7 6 51 55t47 52l59 41l60 -84q1 -1 -7 -17t-14 -24q-3 -6 -18.5 -22t-20.5 -19q-26 -19 -84 -57.5t-73 -45.5q-7 -7 -97 -43q-106 -41 -118 -41q-22 -2 -75.5 6t-62.5 15q-7 3 -62 59.5t-77 83.5q-59 71 -59 166z" />
<glyph unicode="|" d="M528 418q13 65 13 94q0 1 -1.5 14t-2.5 25t0 14q-1 3 4 43t4 51q27 161 35 484q0 18 1 104.5t1.5 146t-0.5 99.5q0 2 -2.5 19.5t-4.5 34t0 18.5q2 9 -13 21.5t-15 17.5q18 22 18 24q-5 30 18.5 52t59.5 22l29 2q11 -3 40.5 -21.5t35.5 -27.5q4 -13 4 -15v-22 q0 -8 -11 -102t-10 -105l19 -145q0 -3 -7 -27.5t-10 -30.5q-1 -6 -4 -23.5t-5.5 -32.5t-2.5 -17q0 -5 3.5 -28.5t4.5 -27.5l-27 -350q-2 -17 -14.5 -77.5t-9.5 -92.5q0 -27 13 -128t20 -144q-7 -12 -17 -60q0 -7 11.5 -89t11.5 -93q-12 -60 -12 -94q1 -11 15 -118t15 -120 q0 -3 -8 -27.5t-8 -27.5l18 -129l-18 -57q0 -2 5.5 -35.5t4.5 -38.5q-6 -11 -30.5 -34t-34.5 -26q-52 23 -70 31q-9 4 -13.5 6.5t-8 4t-4.5 5.5l-1.5 6t-1 9.5t-0.5 11.5q-6 24 -6 31l23 16q0 4 -15.5 20t-15.5 17q1 7 18 22.5t25 18.5l-23 182q-1 3 7 37.5t8 36.5 q-2 9 -8 48t-5 44q-1 13 -5 128t-5 128q0 41 -35 277z" />
<glyph unicode="}" d="M176 -240q0 4 1 26.5t1 25.5q4 7 28 14.5t34 5.5q2 0 23.5 -16t31.5 -25q4 -2 39.5 -31t40.5 -30q4 -4 39 -4q51 0 97 39.5t75 97.5t46 119.5t17 109.5v10q-7 20 -29.5 68t-27.5 55q-4 6 -49 52.5t-49 52.5q-5 5 -5 37v13v11v8.5t1 8t2.5 6t4.5 6t6.5 6t8.5 6.5 q102 75 119 84q3 1 36.5 12t43.5 29q-20 33 -62.5 57t-80 37t-66.5 44t-29 79q0 57 21 72q3 2 29.5 11t29.5 11q10 7 48 39t48 43q31 31 122.5 126t115.5 122q-1 3 -4 10q-11 29 -18.5 47t-22.5 45t-33.5 43t-40.5 21q-136 29 -334 22q-6 0 -21.5 16.5t-17.5 22.5 q-2 2 -2 39q0 66 24.5 88.5t86.5 22.5q6 0 18 -0.5t21 -1t10 -0.5q79 -31 119 -43l78 -21l57 -20q68 -17 80 -23q55 -32 88 -119t33 -161q0 -45 -4 -49q-2 -5 -32 -45.5t-46 -57.5q-11 -15 -41.5 -46.5t-38.5 -37.5q-1 -1 -19 0.5t-20 -0.5t-9 -31t-10 -32q-70 -69 -77 -82 q-2 -2 -2 -19q0 -35 20 -43q182 -62 236 -84q39 -13 39 -18q7 -10 14.5 -42t5.5 -42q0 -2 -39 -41q-34 -27 -75 -48t-99.5 -44t-81.5 -33q-4 -8 -4 -31q0 -26 4 -30q0 -1 10.5 -10.5t10.5 -10.5q41 -109 41 -278q0 -71 -3 -74q0 -4 -22.5 -51.5t-36.5 -73.5q-30 -50 -41 -61 q-5 -7 -49 -53.5t-47 -49.5t-11.5 -17t-17.5 -29t-10 -17q-25 -34 -76 -49t-104 -15q-86 0 -141.5 64t-55.5 155z" />
<glyph unicode="~" d="M68 995l65 76q6 5 33.5 33t57 58.5t32.5 33.5q3 2 23.5 24.5t23.5 24.5q5 3 43 13t47 12q60 20 66 26q7 4 22 21.5t29 17.5l6 -2q1 -1 16 -5.5t17 -4.5q44 -15 45 -16q1 0 22 -50q3 -4 8 -18.5t5 -17.5v-37q34 -104 90 -166q1 0 8 -1t8 -1q2 0 10 1t9 1l28 18 q29 17 37 23l3 3q3 2 5.5 4.5t3.5 4.5q0 1 5.5 13t10.5 23t7 13l47 64q1 1 8.5 18.5t15 34.5t9.5 20q1 1 16 19t15 20q1 1 7 18.5t7 18.5q0 3 4 13t6 12v24q3 11 20 20.5t25 31.5q1 1 4 18t4 18q3 3 18 8t17 5q6 3 15 10.5t16.5 11.5t15.5 4q10 0 55.5 -42.5t45.5 -51.5 q0 -7 -10 -21.5t-11 -23.5v-37q-2 -3 -22 -24t-25 -27q-1 0 -10.5 -5t-11.5 -7q-12 -8 -45 -49q-2 -2 -11 -19t-10 -18q-5 -5 -24.5 -32.5t-20.5 -31.5q-6 -8 -32.5 -49t-50.5 -77.5t-32 -47.5q-76 -66 -170 -102h-8q-32 0 -57 14q-3 0 -5.5 4.5t-2.5 7.5q-4 3 -14.5 24 t-12.5 28q-33 33 -35 36q0 3 -8 23t-12 27q0 5 -5 20t-8 16q-1 3 -9.5 18t-18.5 33.5t-13 24.5q-1 1 -4.5 4t-6.5 5.5t-3 3.5q-25 -12 -74.5 -31.5t-72.5 -30.5l-45 -27q-7 -24 -9 -26l-36 -23q-2 -7 -15.5 -38t-17.5 -35q-3 -8 -16 -23.5t-17 -17.5q-21 -2 -27 -2 q-4 0 -18 1l-14 1q-7 10 -9 14q-2 2 -25 4.5t-24 3.5q-4 4 -10 23t-12 20v15q1 0 -1 8t-4 16.5t-1 9.5z" />
<glyph unicode="&#xa0;" />
<glyph unicode="&#xa1;" d="M360 -184q36 83 62 164q32 88 70 252.5t55 222.5q8 39 63 186l19 147v41q35 86 58 116q37 48 87 48q16 0 25 -4.5t13 -15t4.5 -19t0.5 -25.5v-9q0 -48 -2 -50q-1 -5 -20.5 -41.5t-20.5 -40.5l-145 -456q-1 -3 -5 -28t-8 -49t-6 -28q-3 -5 -20 -12t-23 -6q8 -2 13.5 -7 t7.5 -14t2.5 -14t-0.5 -16v-11q0 -7 -1 -25.5t-1 -19.5l-21 -59q-14 -70 -20 -145q-1 -3 0 -32t0 -32q-3 -5 -19 -29t-24 -32q-1 -1 -4.5 -7t-5 -7.5t-5 -6.5t-6 -7t-6 -6t-7 -5t-7.5 -2.5t-8 -1.5l-11 2q-11 9 -43 41t-41 43zM627 1352v19v15q0 8 0.5 23.5t0.5 28.5l1 12 q3 19 23 43.5t40 40.5q111 74 123 80q8 2 10 2q1 0 6.5 -1t6.5 -1q10 -1 34 -9.5t27 -11.5q6 -4 10 -9t6.5 -12.5t4 -13t2 -15t0.5 -14v-14.5v-12q0 -50 -2 -77t-11.5 -63.5t-32.5 -60t-61 -38.5q-23 -12 -61 -21q-9 -2 -13 -2l-10 2q-14 5 -45.5 21t-34.5 20q-7 5 -12 14 t-7.5 16.5t-3.5 19.5t-1 18z" />
<glyph unicode="&#xa2;" d="M276 735q0 18 23 84q14 55 41 123q4 12 13.5 36.5t18 45.5t9.5 23q0 2 9.5 6.5t19 8.5t10.5 5q4 1 32 20.5t31 20.5l62 20q61 40 63 41q3 1 21 -3.5t20 -4.5v279q0 1 19.5 5t45.5 8t40 5q1 0 9.5 1t10.5 1q24 0 42 -19.5t20 -43.5q3 -23 3 -102.5t-3 -104.5q14 -2 63 -18 t62 -23q3 -2 11.5 -18.5t8.5 -22.5q0 -8 -8 -40.5t-12 -41.5q-5 -9 -21 -25t-20 -16q-4 -1 -42.5 9t-41.5 10q-5 0 -21 -7.5t-20 -11.5v-22l-23 -187q-1 -21 3.5 -124.5t4.5 -116.5q2 0 17 -4t18 -3q1 0 10.5 10.5t10.5 10.5q2 2 61 2q7 0 24 0.5t23.5 0t19 -2t17.5 -5.5 t11.5 -10.5t9 -17.5t2.5 -27q0 -2 0.5 -10.5t0 -13t-1.5 -12.5t-3 -12.5t-7 -9.5t-12 -7l-102 -18q-11 -3 -36.5 -12t-27.5 -11l-20 -41q-35 -94 -41 -125v-61l-23 -62q0 -6 -8.5 -42t-11.5 -40q-8 -24 -31 -24q-29 0 -61.5 27t-32.5 55q0 39 22.5 111.5t22.5 111.5 q0 32 -19.5 54.5t-58 45t-49.5 31.5q-24 21 -43 41.5t-36.5 46t-27 40.5t-29 49.5t-28.5 49.5l-23 23q-41 55 -41 61zM420 758q2 -4 31.5 -22t31.5 -21v-41q1 -6 9.5 -22t11.5 -19q98 -105 104 -105h17q0 64 13 191t13 192q0 5 -1 36.5t-1 37.5q-15 -3 -64 -28t-59 -35 q-4 -4 -37.5 -53t-46.5 -72z" />
<glyph unicode="&#xa3;" d="M90 59q0 27 6.5 37t25.5 18.5t32 20.5q118 101 161 225.5t43 301.5q-9 0 -78.5 -6t-84.5 -5q-32 4 -58 32.5t-26 59.5q0 30 2.5 38.5t19.5 37.5q2 3 7.5 10.5t9 13t4.5 5.5h227l22 31q-3 19 -3 74.5t3 72.5q8 49 41 164q7 29 28 53.5t52.5 50.5t44.5 41l19 43l22 19 q11 8 60 32.5t63 28.5q10 5 64 23h18q8 -1 80.5 -11t85.5 -12q8 0 24.5 -16t18.5 -23q16 -80 16 -125h-266q-14 0 -24.5 -6.5t-21 -18.5t-15.5 -16q-79 -60 -82 -63q-1 -1 -21 -41q-38 -65 -51.5 -102t-13.5 -99q0 -5 0.5 -16.5t1 -20.5t0.5 -10q3 -9 19 -25t22 -16h270 q12 0 36.5 -16t27.5 -25q0 -2 -43 -84q-8 -12 -19 -19.5t-26.5 -11.5t-26.5 -5.5t-29 -2.5t-24 -2q-103 -13 -207 -20q-36 -20 -58 -146t-22 -194q13 0 119 4.5t127 3.5q112 -7 186 -61q4 -3 32 -32t32 -32q22 -16 84 -24.5t79 -16.5q9 -3 34 -27.5t30 -33.5l1 -12 q1 -12 1 -17q0 -31 -20.5 -52.5t-53.5 -21.5h-12l-125 19q-12 17 -18 43q-1 2 -0.5 7t1.5 12l1 7q-2 0 -21.5 -3.5t-21.5 -2.5q-7 2 -83 41.5t-85 40.5h-18q-17 1 -39 1.5t-33 0.5h-32.5h-36t-32.5 -1t-35.5 -3.5t-31.5 -6.5t-33 -11q-100 -60 -103 -62q-2 -1 -20 -20 t-21 -21q-5 -4 -39.5 -20.5t-43.5 -20.5l-19 -22q-2 -2 -33 -2q-30 0 -30 2q-9 5 -33.5 21t-28.5 20q-2 2 -2 28z" />
<glyph unicode="&#xa5;" d="M219 1092q4 17 37 55q0 2 12 22q2 0 12.5 1t12.5 1q44 9 72 -12q63 -50 155 -172v2q8 -10 38.5 -46t42.5 -49.5t35.5 -38.5t42 -41t38.5 -28q26 43 53 107t33 102q27 40 31 103q1 28 2.5 39.5t8.5 32.5t23.5 37t44.5 32q51 -2 88 -24t43 -68q8 -37 -5 -57t-42 -35 q-1 -1 -4 -3l-4.5 -3t-4 -3t-3.5 -3.5t-3 -4t-2.5 -4.5t-1.5 -5.5t-1 -6.5t0.5 -7t1.5 -9q-7 -38 -47 -107q-32 -49 -37 -84q-34 -50 -57 -135q-7 -17 -9 -23h168l21 -10q1 0 7.5 -2t8 -2.5t7 -2.5t6.5 -3.5t5.5 -4t5.5 -5.5t3.5 -7.5t3 -9.5t1.5 -11.5t1 -14.5 q-95 -68 -264 -64q-3 -41 12 -98q-3 -2 -1.5 -11t1.5 -12q62 2 106 -8.5t89 -42.5l-13 2l23 -20q2 -16 -6 -26.5t-16 -13.5t-27 -9q-2 -1 -23 -11h-137l8 -65q10 -108 10 -123q0 -46 -12 -90q-16 -13 -22 -17h2q-14 -20 -32 -29.5t-56 -6.5q-75 57 -66 153q12 25 8 70 q-1 4 -3 17t-2 19v16.5t2 20.5t7 21q-2 2 -2 14q-91 -4 -108 -10q-7 0 -17 -7t-16 -7q-55 5 -92 24q-13 8 -20.5 14t-15 20t-7.5 32q2 8 5 14t5 11t7.5 9t8 7t9.5 5.5t9.5 3.5t11.5 3t10.5 2.5t12 2t11.5 1.5q5 1 36.5 -6t41.5 -2q22 -8 38 -8t34.5 4t33.5 4v74v65 q-41 -2 -106 -18q-18 8 -54 8q-23 0 -35 1t-29 5.5t-26.5 16t-13.5 30.5q0 25 11 39t32 27q7 4 14.5 9.5t10.5 7.5t11 4t21 3h78h72q-3 3 -8 23l-209 217q-28 15 -54 45q-51 46 -77 49q-7 10 -15.5 18.5t-9.5 10.5q-2 3 -13 14t-15 16t-8.5 16.5t-4.5 23.5z" />
<glyph unicode="&#xa7;" d="M213 113q0 24 29.5 38.5t56.5 14.5h18q4 -3 51.5 -35.5t65.5 -42.5t57.5 -31t72 -29t65.5 -8q85 0 136.5 59t51.5 144q0 7 0.5 24.5t0 24t-2.5 19t-7 22t-13 19.5q-69 76 -103 82q-183 18 -188 20q-11 3 -60 27.5t-63 34.5q-70 48 -109 144.5t-39 188.5q0 2 1.5 10t1.5 9 t20 41q39 97 43 104q18 36 18 41q0 2 -9 21t-9 20v21l18 209q5 50 41.5 88.5t86 60t112.5 35.5t113 18t96 4q13 0 39.5 -0.5t48.5 -1t23 -0.5q14 0 37.5 -8t23.5 -12v-103q0 -3 -16 -10.5t-25 -9.5q-2 0 -248 -20l-63 -23l-82 -41q-1 -1 -6.5 -5.5t-9.5 -8.5t-5 -6v-41 q0 -1 -9 -11t-9 -12q-19 -28 -23 -41q-1 -1 0 -6t2.5 -11t1.5 -7q5 0 57 3.5t64 2.5q68 -11 103 -23q48 -10 268 -82q46 -15 63 -41q62 -120 62 -125q4 -4 4 -94q0 -7 1 -36.5t0.5 -44t-6.5 -36.5t-18 -36q-9 -8 -35 -34.5t-55 -56t-34 -34.5q0 -2 -1 -15.5t-1 -15.5 q0 -5 1 -18l1 -13q0 -4 9 -41.5t9 -42.5v-41q1 -8 23 -84q20 -40 20 -41q-2 -10 -18.5 -57.5t-24.5 -65.5q-42 -96 -154.5 -151t-228.5 -55h-10q-21 6 -69 22t-54 19t-38.5 27.5t-43.5 33.5q-15 14 -55 54t-49 50q-1 1 -21 41q-2 9 -2 11zM399 774l2 -10q5 -14 21 -45.5 t20 -34.5q8 -13 40.5 -45.5t43.5 -38.5q32 -4 113 -4q103 0 115 4q14 3 61.5 27t61.5 35q7 6 23.5 36.5t19.5 44.5q0 1 1 18.5t1 24.5q0 6 -1 24l-1 17q-3 14 -19.5 46t-23.5 38q-3 3 -82 19q-8 2 -73.5 11t-72.5 11q-2 0 -20.5 9.5t-20.5 9.5q-8 2 -10 2q-1 0 -6 -1t-6 -1 q-4 -1 -19.5 -6t-27.5 -8.5t-13 -4.5q-15 -12 -55.5 -51.5t-48.5 -52.5q-11 -22 -21 -62q0 -1 -1 -6t-1 -6z" />
<glyph unicode="&#xa8;" d="M387 1264q0 34 2.5 54.5t17 42.5t42.5 30q62 24 98 24q130 0 158 -65q5 -15 12 -55t6 -48q0 -1 -10.5 -16t-25 -36.5t-21.5 -31.5q-18 -18 -23 -18q0 -2 -59 -2q-58 0 -58 2q-3 0 -33.5 16t-43.5 25q-11 6 -35.5 22.5t-24.5 18.5q-2 2 -2 37zM881 1262q0 9 15 41t24 43 q8 14 39 47.5t38 36.5q38 2 52 2q8 0 23.5 -0.5t28.5 -1.5h13q28 -4 73.5 -66t45.5 -90q0 -1 -1 -6t-1 -6q0 -7 -17 -41q-6 -6 -25.5 -27t-34.5 -37t-19 -18q-9 -6 -39 -14t-39 -7q-9 2 -47 17.5t-52 23.5q-10 4 -33 21t-26 22q-6 4 -13 29t-5 31z" />
<glyph unicode="&#xa9;" d="M49 657q0 65 33 158q28 85 29 88q8 12 52.5 80.5t51.5 81.5q34 68 39 88q60 71 80 98q2 1 12 11q1 0 38.5 30.5t43.5 34.5q106 90 297 76l8 12q1 0 9.5 0.5t20 1t17.5 0.5q8 0 36 -1t30 -1q7 0 31 -12l59 -31q24 -12 31 -12q8 -10 8 -12q3 0 27.5 -10t27.5 -11 q8 -10 8 -12q2 -1 72 -53q0 -1 4 -5.5t4 -5.5q33 -46 47 -67t35 -66t21 -76v-30q0 -60 -9 -164q-12 -12 -12 -23v-65q0 -2 -5 -12t-5 -11v-22q0 -15 -4 -61t-4 -48q0 -1 -3 -8t-6 -15t-4 -10q-1 -1 -3 -6.5t-4 -10.5t-3 -5q-43 -126 -72 -195q-1 -2 -14 -16.5t-14 -17.5 q-1 0 -3.5 -7.5t-5 -16t-3.5 -9.5q0 -4 -29 -33q-21 -8 -21 -10l-10 -23l-20 -20l-60 -76l-30 -35q-2 0 -16 -5t-15 -5q-12 -4 -41 -33q-19 -12 -57 -21t-46 -12l-8 -12h-24q-2 0 -34.5 -5t-35.5 -5q-18 10 -20 10h-39q-1 0 -11.5 6t-11.5 6t-19.5 5.5t-19.5 5.5q-2 1 -10 4 t-14.5 5.5t-8.5 2.5q0 1 -17.5 9.5t-22.5 10.5q0 1 -7 3.5t-14 5.5t-8 4q-40 15 -72 43q-17 17 -60 64t-50 57q-5 3 -23 31.5t-20 31.5q0 3 -5 22.5t-6 22.5q-16 32 -18 33q-4 5 -12.5 23t-8.5 20q-3 7 -10.5 42t-9.5 46v31q-3 6 -21 24q-12 27 -12 94zM182 659l13 -18 q2 -10 4.5 -36t6 -43t9.5 -34q0 -7 18 -43q2 -5 21 -98q0 -2 8 -13.5t14 -17.5q16 -32 29 -45l92 -98q3 -2 12.5 -10.5t17.5 -15t11 -7.5q11 -7 62 -20q70 -33 153 -33h9q72 18 112 33q0 1 4 5t4 5l41 20l133 142q3 0 11 4.5t8 7.5v23q5 11 30.5 56.5t32.5 74.5 q0 2 4.5 26.5t4.5 26.5q10 20 12 22q2 14 9 61t14 76.5t18 59.5q18 52 18 88q0 1 0.5 19t1 40t0.5 33q0 7 -1 47t-1 47q-1 3 -8 25t-15 38.5t-18 25.5l-39 30q-1 1 -33 30t-38 36l-5 6q-6 6 -10.5 11t-5.5 5q-32 11 -94 11h-37q-10 0 -67 -4.5t-66 -6.5h-20q-3 0 -26.5 -6 t-25.5 -6h-30q-61 -14 -134 -65q0 -3 -8 -11q-32 -43 -92 -141q-3 -7 -41 -67.5t-41 -65.5q-8 -27 -10 -31q-2 -5 -10 -18.5t-11 -14.5q-21 -56 -30 -65q-1 -2 -5 -19.5t-8.5 -39t-7.5 -29.5v-13zM387 727q0 17 8.5 42t10.5 36q3 3 12 42t10 42t14.5 23.5t14.5 21.5 q22 32 43 53.5t35 31t55 36.5l20 10h52l8 10q22 2 26 2t16 -1t13 -1l16 -10q5 0 22.5 -4.5t18.5 -5.5q31 -13 72 -43q31 -31 31 -35q2 -23 2 -35l-2 -39q0 -6 -3 -15t-5 -9h-72q-5 8 -43.5 31.5t-48.5 23.5h-11q-60 -10 -61 -10t-23 -10t-28 -11q0 -1 -2 -3.5t-4.5 -5.5 t-3.5 -5q-4 -4 -21 -26.5t-18 -26.5q-41 -49 -41 -64q-1 -13 0 -26t-2 -28t-11 -24q20 -67 72 -110q2 -1 12.5 -7t18.5 -10t10 -4h102q10 1 45.5 22t57.5 21q18 0 18 -26q0 -104 -49 -117q-50 -6 -112 -21h-25q-15 0 -30.5 3.5t-24.5 6.5t-28 11.5t-26 11.5q-8 4 -19 8.5 t-18 7.5t-16.5 10t-17.5 17q-39 62 -39 66q-1 2 -5.5 32t-6.5 33q-1 5 -10 32.5t-9 45.5z" />
<glyph unicode="&#xaa;" d="M391 774q-3 37 4 66.5t24.5 51.5t34 36t44.5 33l16 10q79 43 127 41q9 -1 17 -2.5t16.5 -5t14 -5.5t15 -7.5t13 -7.5t15 -9t13.5 -8q4 14 1 37t-2.5 25t-4 18.5t-4.5 17.5q-4 29 -8 43l-12 18q-18 27 -39 27q-19 9 -49 -4h2l-17 -4q4 2 -8 -10l-2 -2l-6 -7 q-21 -19 -54 -31.5t-61 -9.5q-12 0 -24 -8q-9 -6 -19 -2.5t-24 23.5v-2q-14 14 -6 45q0 3 1 10.5t1 9.5q104 123 249 123q59 0 105 -18q69 -53 90 -99q9 -25 14.5 -49.5t6.5 -36t4 -47.5q0 -4 1 -18.5t1 -24.5q0 -37 6 -90v-190q0 -29 2 -39q0 -4 1 -8t1 -5q2 -4 2 -10 q2 -6 2 -18v-25q0 -19 -1.5 -32t-8 -31t-22 -31.5t-40.5 -22.5q-19 5 -31 12.5t-18 19t-8 19.5t-4 23q-1 5 -0.5 13t-0.5 13.5t-5 10.5q-82 -55 -156 -55q-36 0 -74 14q-20 20 -39 31q-45 34 -70 76t-26 108zM532 754q0 -3 11 -25v-2h4q1 -2 5.5 -5.5t6.5 -6.5 q22 -22 72 -25q22 -2 52.5 14t47.5 39q15 12 12 54q-3 24 -22 47l-6 4q-15 0 -35 12v-2q-10 7 -16 4q-11 11 -23.5 11.5t-29.5 -9.5t-31 -21.5t-27 -25.5q-21 -35 -21 -63z" />
<glyph unicode="&#xab;" d="M171.5 424q2.5 20 16.5 45q32 34 91 80t108 90t76 88q40 23 92 71t92 70q48 -14 82 -94q-4 -4 -21.5 -33t-23.5 -34q-156 -140 -295 -285q12 -12 29.5 -26t41.5 -30.5l40 -27.5t42.5 -28t32.5 -21q13 -9 31.5 -18.5t33 -16.5t30.5 -16.5t26.5 -20t17.5 -24.5t5.5 -32.5 t-10.5 -41.5q-27 -17 -53.5 -19t-44.5 5.5t-45 18.5t-48 15q-74 61 -136 100.5t-130 59.5q-9 12 -26.5 29t-28 29.5t-19.5 29.5t-6.5 37zM552.5 476.5q2.5 20.5 16.5 45.5q32 34 91 79.5t108 89t76 87.5q39 22 91.5 71.5t94.5 72.5q47 -14 82 -95l-12 -36 q-167 -147 -330 -318q19 -18 53.5 -42.5t78 -53t56.5 -37.5q12 -8 31 -17.5t33.5 -16.5t30.5 -16t26 -19.5t17 -24.5t5.5 -32.5t-11.5 -41.5q-27 -17 -53.5 -18.5t-44.5 6t-45 18.5t-48 15q-148 123 -266 157q-9 12 -26.5 29.5t-28 30t-19.5 29.5t-6.5 37.5z" />
<glyph unicode="&#xac;" d="M117 1067q207 0 487 8q23 1 132.5 10t234.5 19.5t131 11.5h20q8 -4 23.5 -19.5t19.5 -21.5q2 -18 2 -28q0 -3 -1 -18l-1 -15l-63 -228l-21 -63v-432q0 -10 -16 -34.5t-25 -29.5q-6 -3 -29.5 6t-31.5 17q-23 15 -33 66t-10 96q0 7 1 24.5t1 18.5q3 37 19 165t22 166 q0 4 9 42t9 42l1 14q1 14 1 19v8.5v10t-1 9.5t-3 9.5t-6 7t-10 4.5h-188q-5 0 -61 -10t-62 -10q-8 -2 -230 -2q-192 0 -227 2q-94 27 -94 135z" />
<glyph unicode="&#xad;" d="M213 600l2 12q19 37 72 50q66 0 213 -19q3 0 29 -4t28 -4q38 0 150 16q6 2 69 2q4 3 25 11t24 8q28 7 83.5 9t76.5 5q1 0 9.5 4t9.5 4q4 2 4 0q14 -2 36 -32.5t21 -45.5q-2 -6 -2 -14l-19 -84q0 -4 -8 -12q-6 -2 -25.5 -2.5t-25.5 0.5q-3 0 -28.5 3t-28.5 3 q-7 1 -42 -0.5t-36 -1.5q-2 0 -20.5 -2t-20.5 -2h-96q-1 0 -11.5 -5t-11.5 -5q-2 0 -19.5 3t-19.5 3q-5 1 -53 1t-53 1q-13 0 -57.5 6.5t-57.5 9.5q-16 -8 -22 -8q-7 -3 -34 -3.5t-34 1.5q-1 0 -10 1.5t-20.5 3t-16.5 1.5q-32 8 -49 8q-2 5 -17 36.5t-14 41.5z" />
<glyph unicode="&#xae;" d="M55 551v149q8 10 8 41v19q0 2 -4 24t-4 25q0 2 4 13.5t8.5 26t6.5 21.5l30 74v12q0 3 13 25t16 25q0 3 8 29t11 32q21 53 65 112t86 95q2 1 22.5 17.5t26.5 19.5l19 14q5 2 39.5 31t35.5 30q87 29 125 48q1 0 18 11.5t21 12.5q38 15 115 15q14 0 27.5 -1.5t21.5 -3t22 -7 t18 -7t22 -10t22 -10.5l39 -11q3 -2 23.5 -7t23.5 -5q20 -10 68 -51l18 -25q2 0 15 -5t14 -5l18 -25q0 -1 7.5 -17.5t14 -29t9.5 -14.5q2 -9 37 -61q4 -6 11 -26t7 -26q3 -7 20.5 -85t20.5 -85q0 -3 3.5 -18t4.5 -16q0 -1 1 -5t1 -6l-2 -4q-8 -24 -8 -49v-123q0 -2 -6 -12.5 t-6 -11.5v-39q0 -1 -4 -11.5t-4 -11.5v-49q0 -12 -21 -61q0 -2 -8.5 -25.5t-9.5 -26.5l-19 -84q-6 -16 -29.5 -45t-27.5 -51q-15 -21 -75.5 -89.5t-86.5 -96.5q-8 -7 -53 -35.5t-61 -36.5l-48 -14q-12 -4 -45.5 -20.5t-54.5 -16.5q-24 0 -50.5 2t-60 5.5t-49.5 4.5 q0 5 -10 15q-9 6 -48.5 31t-47.5 28l-27 27q-2 0 -7.5 2t-12 4.5t-8.5 3.5l-50 12q0 3 -3.5 14.5t-6.5 12.5q-2 0 -14 4.5t-12 5.5q-3 1 -7 13t-4 14l-12 13l-22.5 22.5t-12.5 11.5l-28 39q-79 101 -89 170q-8 64 -8 98zM167.5 649.5q0.5 -26.5 0.5 -31.5v-102 q4 -15 10 -28.5t17.5 -34.5t13.5 -25l47 -76q3 -1 10.5 -10.5t7.5 -11.5q1 -1 6 -3.5t9 -5t4 -4.5q3 -1 10.5 -11t9.5 -13l97 -62q2 0 13.5 -4.5t14.5 -7.5l32 -23q31 -24 36 -26q39 -25 90 -25q3 0 21.5 1t21.5 1q6 11 10 13l17 5q16 5 22 5q2 1 32.5 6t33.5 6t22 10t38 17 t26 10q0 2 4.5 7t5.5 5q35 38 76 76q5 5 21.5 14.5t25.5 20.5q6 9 20 51q1 1 10 14.5l18 27t18 26.5t10 16q4 6 20 62l18 98q0 1 6.5 6t6.5 6v23q0 35 8 51v246q0 7 -12 49.5t-19 58.5q-7 21 -47 101q-1 2 -7.5 10t-12 15.5t-6.5 10.5q-3 1 -20.5 12.5t-20.5 12.5 q-23 23 -29 23q-24 12 -27 12h-30q-10 2 -39 12t-35 14q-2 0 -4.5 3t-4.5 5l-1 3q-29 9 -60 14h-16l-78 -14l-78 -49q-2 -1 -22.5 -11.5t-24.5 -11.5l-39 -14q-21 -21 -29 -25q-2 -1 -17 -9.5t-30 -16t-20 -9.5l-115 -147l-8 -27q-1 -1 -8.5 -12t-14 -21.5t-6.5 -13.5 q0 -2 -4 -19t-4 -18l-22 -49v-12q12 -24 12 -27q0 -1 -9.5 -11t-9.5 -11q-8 -13 -13.5 -30.5t-7 -40t-2 -36.5t0 -40.5zM342 551q0 4 7.5 28.5t10.5 30.5q34 57 39 76q19 38 19 49q15 77 20 84q0 3 9.5 26t9.5 25q10 24 18 74l10 62q1 9 9.5 27.5t11.5 21.5t17.5 11.5 t19.5 10.5l96 27h10q2 -1 23 -6t22 -6l68 -15l18 -10h13q48 -12 57 -12l27 -37q0 -1 6 -13t6 -14q0 -3 7.5 -18.5t10.5 -16.5q1 -2 3 -8l3.5 -10.5t1.5 -5.5v-62q0 -1 5.5 -12t5.5 -12v-31q0 -76 -66 -132t-127 -58v-19q0 -19 4.5 -29t12.5 -18.5t12 -19.5q31 -64 31 -125 q0 -23 -21.5 -35t-42.5 -12q-15 0 -28 33.5t-13 52.5v24l-31 62q-13 25 -47 71q4 28 -30 62q0 5 -12.5 26.5t-16.5 24.5q-4 2 -8 2q-6 -2 -8 -2l-41 -113q0 -1 -4 -8.5t-9 -16.5t-6 -10q-2 -6 -6.5 -24t-9.5 -30.5t-13 -20.5q-4 -1 -19 -12t-17 -11q-11 -2 -15 -2l-16 2 q-6 10 -8 10q-1 4 -9.5 20.5t-9.5 18.5zM590 879q0 -28 12 -33q1 -2 8.5 -4t17 -3.5t11.5 -2.5l27 -27q38 -23 41 -23q0 -2 36 -2q78 0 78 54v20q-4 6 -11 28l-7 21q-2 1 -12 0t-11 0q-24 15 -26 15h-115q-7 -7 -20 -11.5t-21 -11t-8 -20.5z" />
<glyph unicode="&#xaf;" d="M131 1341q-1 3 8 27t15 35q19 43 100 43q91 0 270 -43q1 -3 10.5 -11t12.5 -10q10 -4 43 -12t39 -8t62 10t61 10q101 11 325 21h41q9 -2 24.5 -6.5t26.5 -9t11 -5.5v-104q0 -3 -15.5 -9.5t-23.5 -8.5q-4 -1 -27.5 -1t-50 0.5t-27.5 0.5q-2 0 -22 -6.5t-39 -11.5t-23 -5 q-5 0 -21 8.5t-20 14.5h-137q-13 5 -22 4.5t-29 -4t-31 -3.5q-34 0 -84 21q-2 1 -10 11.5t-10 10.5t-11 -5t-19 -11t-11 -6h-23l-268 -18q-7 0 -30.5 7t-30.5 11q-12 9 -36.5 33t-27.5 30z" />
<glyph unicode="&#xb0;" d="M299 1147q0 5 7 46t11 58l23 62v43q8 19 39.5 74.5t40.5 68.5q16 19 65 59.5t60 45.5q4 4 78 4q80 0 88 -4q11 -2 76 -26.5t92 -37.5q4 -2 11 -8.5t7 -9.5q1 -2 0 -20.5t0 -20.5q2 -6 32 -43t32 -41q8 -15 13 -30t7 -33.5t2.5 -29.5t0 -35t-0.5 -32q0 -11 -0.5 -32.5 t-1 -39t-0.5 -18.5q-2 -13 -18 -53t-25 -50q-10 -13 -57.5 -61.5t-65.5 -62.5q-7 -6 -40 -22t-44 -19q0 -2 -39 -2t-43 2q-15 3 -95.5 27.5t-111.5 35.5q-30 10 -41 21l-20 20q-41 20 -41 21q-3 3 -23 63zM481 1176q0 -4 0.5 -13.5t2 -14t4 -12.5t6.5 -14.5t10 -13.5 q49 -57 63 -64q2 -1 20.5 0t20.5 0q1 0 41 -20q1 0 21 -1t24 -1l37 2q15 7 55.5 47.5t49.5 56.5q2 14 2 95q0 88 -2 90q0 1 -21 43q-7 13 -24 38t-19 25h-184q-6 0 -38 -32.5t-46 -51.5q-12 -16 -17 -42t-5.5 -38.5t-0.5 -44.5v-17.5v-16.5z" />
<glyph unicode="&#xb1;" d="M158 813q6 10 28 33.5t31 27.5q24 12 158 41l151 -10q26 0 99 21q-5 90 -2.5 195t20.5 196q3 4 18 11t21 7q14 0 52 -7t44 -11q7 -3 16 -19t7 -22q-8 -21 -23 -84.5t-16 -83.5q-4 -16 -4 -76q0 -68 6 -86l16 -20q68 4 129 0q26 -1 74.5 -6t85.5 -9.5t39 -5.5l18 -20 q2 -2 -5 -43t-13 -60q-4 -11 -28.5 -26t-30.5 -15h-304q0 -4 -2 -21.5t-2 -21.5l23 -63v-19q-7 -43 -8.5 -88.5t-6.5 -82t-22 -85.5q-1 -4 -17 -12t-22 -8q-2 0 -18 8t-21 12q-18 13 -27 33.5t-10.5 35.5t-1.5 44q0 50 7.5 109.5t7.5 109.5q0 28 -9.5 38.5t-35.5 10.5h-33 l-193 -14q-8 0 -58 1t-58 1q-43 15 -60 43q-6 6 -14 22.5t-6 18.5zM219 180l2 13q19 36 72 49q66 0 213 -19q3 0 29 -4t28 -4q38 0 150 16q6 2 69 2q4 3 25 11t24 8q28 7 83.5 9t76.5 5q1 0 9.5 4t9.5 4q4 2 4 0q14 -2 36 -32t21 -45q-2 -6 -2 -15l-18 -84q0 -3 -9 -12 q-6 -2 -25.5 -2.5t-25.5 0.5q-3 0 -28.5 3t-28.5 3q-7 1 -42 0l-36 -2q-2 0 -20.5 -2t-20.5 -2h-96q-1 0 -11.5 -5t-11.5 -5q-2 0 -19.5 3t-19.5 3q-5 1 -53 1t-53 1q-13 0 -57.5 6.5t-57.5 9.5q-16 -8 -22 -8q-7 -3 -34 -3.5t-34 1.5q-1 0 -10 1.5t-20.5 3t-16.5 1.5 q-32 8 -49 8q-2 5 -17 36.5t-14 41.5z" />
<glyph unicode="&#xb4;" d="M418.5 1074.5q1.5 8.5 2.5 14t7.5 15t9 13t11 14t10.5 12.5q2 1 10.5 10t18 19.5t10.5 11.5q3 1 68.5 48.5t132.5 96t69 49.5l4 15l59 53l48 16q3 1 22.5 12.5t22.5 12.5q3 3 30 12q33 16 47 4q0 -2 39 -57l7 -6v-4q0 -8 -25 -58q-2 -3 -10 -14t-14 -20t-7 -9 q-15 -13 -56 -39.5t-56 -46.5q-1 -1 -116 -83t-118 -83q-2 -3 -36.5 -28.5t-35.5 -26.5q-7 -7 -27.5 -22.5t-25.5 -16.5q-10 3 -71 33l-21 14q0 4 -2 6q-5 9 -7 16.5t-0.5 16z" />
<glyph unicode="&#xb6;" d="M104 1159q2 11 17.5 51.5t23.5 53.5q2 3 31 30.5t31 30.5q2 2 11 21.5t11 21.5q13 13 62 41q6 3 24 13t23.5 13t21 11t21.5 10.5t19.5 8.5t21.5 8t20.5 6t23.5 6t24.5 3.5t27.5 2.5q9 1 93.5 0t93.5 0q2 0 20.5 10t19.5 10q8 0 40.5 -8t41.5 -12q6 -2 166 -82 q5 -2 42.5 -11.5t41.5 -11.5q5 -2 21 -17.5t20 -22.5q14 -18 18.5 -47.5t12.5 -56t31 -42.5q-70 -90 -82 -184q-3 -26 0 -40.5t-1 -29.5t-20 -33q1 -31 1 -136t-1 -136q-10 -42 -22 -61q-21 -205 -62 -537v-43q-3 -12 -19 -44t-22 -38q-7 -9 -39 -32.5t-43 -28.5 q-8 3 -24 18.5t-19 22.5v82q17 182 23 206l20 41v125q0 7 4.5 43.5t10.5 78.5t6 44v21q-3 9 -11 25t-10 16h-104l-51 -330v-125l-10 -21q1 -22 1 -94t-1 -92q0 -7 -8 -23t-13 -18q-14 -2 -18 -2q-46 0 -127 66v163q20 140 20 146q1 4 1 23v39t-0.5 39.5t-0.5 21.5l23 125v82 l-148 22h-18q-7 1 -23.5 9.5t-19.5 11.5q-20 17 -125 122q-53 107 -60 125q-4 9 -22 53.5t-21 49.5l-20 84q-21 101 -21 102zM270 1098q0 -9 1 -19.5t2 -17.5t4.5 -19t5 -17t7 -19t6.5 -17t7.5 -19t7.5 -18q9 -25 41.5 -89t40.5 -75q6 -8 30 -24t34 -19l15 -1q14 0 31 -0.5 t25 -0.5q6 0 36.5 1t35.5 1q6 48 36 183t30 221q0 99 -2 115q0 6 -8.5 23t-12.5 18h-43l-61 -21q-7 -2 -28.5 -8t-33 -9.5t-34 -11t-36.5 -13t-34.5 -15.5t-33 -19t-27 -21.5t-23 -25.5t-14 -29t-5.5 -34zM785.5 764q0.5 -5 1.5 -13t3 -13t7 -9t12 -4q6 0 38 8t44 12 q19 19 20 21q2 36 10.5 138.5t12.5 129.5q0 6 9 53.5t9 53.5l1 15q1 14 1 20q0 33 -30.5 60.5t-63.5 27.5h-10q-4 -3 -12.5 -19t-10.5 -22v-82q-3 -41 -22 -165t-19 -192v-8q-1 -7 -0.5 -12z" />
<glyph unicode="&#xb7;" d="M505 558q-1 40 19.5 76t61.5 50q59 27 112.5 1t81.5 -83q0 -52 -28.5 -101.5t-69.5 -76.5q-45 -24 -89 -6t-73 61q-14 39 -15 79z" />
<glyph unicode="&#xb8;" d="M336 -512q0 28 21.5 43.5t52.5 15.5q26 0 28 -2q6 -2 15 -15t6 -17h141q88 7 162 18q6 3 22 21.5t19 25.5q2 17 2 25q0 20 -3 35.5t-13 28t-17 20t-26 16.5t-29 13t-37 13l-39 13q-3 1 -21 7.5t-20 6.5q-17 17 -20 17q-5 2 -41.5 8.5t-38.5 7.5q-8 3 -31.5 22t-30.5 27 q-2 0 -2 15q0 20 9 38.5t31 46.5t24 31l41 47l20 82h39q102 0 102 -57q0 -18 -30.5 -47t-30.5 -57q0 -14 18 -50q23 -31 101 -52t102 -46q6 -3 22 -28t19 -35l21 -82q0 -3 8.5 -9t11.5 -6q0 -13 -7.5 -51t-12.5 -47q-3 -7 -26.5 -32t-35.5 -34q-14 -11 -30 -20t-36.5 -15.5 t-35.5 -10.5t-41.5 -7.5t-38.5 -4.5l-42 -3.5t-38 -3.5q-6 0 -69.5 -7.5t-71.5 -6.5q-13 0 -80 30q-21 10 -32 31t-11 41z" />
<glyph unicode="&#xba;" d="M369 956q0 68 29.5 134t76.5 104q35 26 90 41l25 6q16 2 31 2h25t25 -4t20 -4.5t23 -7t20 -7.5t24 -10h-2l24 -8q100 -43 121 -168q12 -37 12 -94q0 -52 -6 -90q-4 -32 -4 -43l-2 -4q-104 -177 -250 -160q-76 1 -137.5 52.5t-105.5 125.5q-39 56 -39 135zM518 946 q14 -82 57 -131q15 -6 29 -20q24 -20 43 -23q72 -5 131 76q16 14 2 106q-4 32 -4 41q-4 55 -49.5 84t-110.5 21q-20 4 -67 -29h2q-5 -8 -14 -12l2 4q-13 -20 -17 -76q0 -21 -4 -41z" />
<glyph unicode="&#xbb;" d="M162 801v17v17.5t1 15.5t2.5 16t4.5 13.5t8 13.5t11.5 10.5t16 10.5t21.5 7q40 -22 102.5 -82t102.5 -82q27 -44 75.5 -86.5t107 -87.5t90.5 -80q1 -2 2 -6.5t3 -15.5t2.5 -20.5t-0.5 -19.5t-5 -14q5 -18 -1 -31t-28 -32t-25 -23q-129 -48 -280 -170q-21 -4 -47.5 -15 t-44 -18.5t-43.5 -5.5t-52 19q-16 32 -13 56.5t14 39.5t32 27.5t40 19.5t39.5 16t29.5 17q27 26 90 64t86 61q-106 110 -293 282q-5 5 -21.5 33t-21.5 33h-6zM559 754v15.5v15.5t0.5 13.5t2 14.5t3.5 12t5.5 12.5t8.5 10t11.5 10t15 7.5t19.5 7q40 -22 102 -80t102 -81 q27 -45 76 -88.5t109 -89.5t92 -80q8 -13 12 -25t2.5 -24t-2.5 -19.5t-8.5 -20t-10 -16.5t-14 -17.5t-12.5 -15.5l-45 -30q-112 -47 -256 -160q-21 -4 -47.5 -15.5t-44.5 -19.5t-44 -6.5t-52 18.5q-16 31 -12.5 55.5t13.5 38.5t30.5 26t39.5 19t39.5 16.5t30.5 18.5 q26 24 88.5 65t87.5 65q-130 136 -293 282q-5 5 -21.5 33t-21.5 33h-6z" />
<glyph unicode="&#xbf;" d="M207 248q0 80 2 82q1 11 17 75.5t24 92.5q0 1 4.5 10t8.5 18t7 13q7 12 60 82l125 124q8 7 46.5 22t57.5 21q11 2 52 2t53 -2l18 41q1 1 11.5 10.5t20 18.5t11.5 12q0 1 28.5 59t34.5 64q7 10 39 42.5t43 39.5q1 0 4.5 2t4.5 2q25 0 49 -34t24 -60q0 -16 -6 -27.5 t-18 -25.5t-17 -21l-63 -104l-60 -143q-4 -7 -20 -22t-23 -21h-40q-10 -1 -63 -10t-62 -9q-58 -19 -62 -22q-15 -9 -47 -33t-35 -29q-15 -22 -47.5 -85.5t-36.5 -80.5q0 -1 -1.5 -19.5t-3 -41t-1.5 -33.5q0 -6 3 -46t3 -46q8 -11 17 -19.5t15.5 -15t17.5 -11.5t16 -8.5 t19 -5.5t18 -3.5t21.5 -2t20.5 -0.5h24.5h25.5q11 0 34 0.5t41 1.5h19q13 3 86 28t102 36l19 20q1 0 6 1t6 1q6 0 11.5 -2t9.5 -4t9 -8t7 -8.5t7.5 -10.5t6.5 -10q2 -8 2 -10q0 -1 -1 -5t-1 -5q-6 -16 -22 -47.5t-19 -34.5q-6 -7 -38 -23.5t-44 -19.5q-25 -7 -112 -22.5 t-117 -18.5q-4 -2 -90 -2q-3 0 -29 -0.5t-36 0t-30.5 2.5t-35.5 7.5t-27 13.5q-62 41 -83 108.5t-21 159.5zM468 -8q0 -12 9 -12q7 2 7 10t-7 10q-8 3 -9 -8zM602 0q3 -9 19.5 -9t19.5 9q3 7 -9 9q-21 5 -29 -4q-2 -2 -1 -5zM766 1409q0 4 41 61q21 21 22 21q111 61 123 61 q6 1 38.5 -6t43.5 -12q6 -4 22 -21t19 -22q-7 -100 -18 -166q-12 -59 -37.5 -92t-77.5 -33q-58 0 -92 39.5t-62 106.5q-6 11 -14 35.5t-8 27.5z" />
<glyph unicode="&#xc0;" d="M23 76l32 37l23 49q0 6 33 39q10 13 15.5 28t7.5 24l1 9q7 14 23 78l32 49q1 3 0 20.5t0 18.5q1 3 6.5 12t11 17.5t5.5 9.5q2 6 17 39.5t18 36.5q7 21 63 129q5 8 16.5 27t17.5 32.5t11 32.5q4 4 23 100q1 1 6.5 13t5.5 14q2 1 5.5 24.5t4.5 24.5q0 3 5.5 14t7.5 13 q0 5 9.5 38t12.5 39q6 12 31 37q5 3 13.5 18t8.5 21q8 12 25.5 51.5t20.5 51.5q1 1 5.5 17.5t4.5 19.5l14 14q2 3 10.5 24.5t10.5 24.5v12q6 13 12 13q32 16 76 16q11 0 22 -9.5t17 -19.5t15.5 -28.5t12.5 -22.5q13 -8 15 -10q0 -7 8 -40t12 -38q5 -16 30.5 -75.5 t35.5 -76.5l10 -12q34 -103 35 -104l22 -37q17 -46 33 -105q10 -30 10 -51l35 -49q20 -59 31 -76q0 -5 4.5 -20t7.5 -19l20 -53l15 -57q3 -1 13.5 -30t24 -69t29 -79t31.5 -63.5t27 -18.5q0 -9 8 -43.5t12 -46.5q1 -3 16.5 -19.5t16.5 -19.5q1 -1 3 -13.5t4.5 -28t4.5 -22.5 v-12q-5 -11 -17 -31.5t-15 -21.5h-66q-3 0 -86 13t-94 13h-99q-23 3 -46 29t-23 51q0 28 16 47t42.5 27t47.5 11t43 3q18 0 47 -7t43 -7h9q-6 24 -31 57.5t-29 40.5q0 9 -10 29v10l-47 117q-17 9 -21 49l-333 -25h-56l-24 -12l-99 -10q-8 -1 -24 -4t-28.5 -5.5t-14.5 -2.5 q-8 -4 -23 -27q-3 -11 -9 -67t-13 -72q-3 -6 -18.5 -30t-25 -44t-9.5 -37q6 0 32 -2t31 -2q60 12 90 12h4q27 0 44.5 -32.5t17.5 -63.5v-4q-39 -49 -45 -51q-1 -3 -35 -8t-53 -5h-89q-15 0 -61 5t-61 8q-5 5 -17.5 13.5t-15.5 8.5q-2 3 -16.5 13t-16.5 16q-22 55 -22 78z M178 1890v6l6 5q3 5 13.5 21t17 26.5t6.5 11.5q14 12 45 -4l27 -12q13 -4 43 -27q2 0 21.5 -6.5t23.5 -9.5l53 -54q2 -12 4 -14l252 -201l37 -41q1 -2 8 -10.5t8.5 -11t7 -10.5t6.5 -11t4.5 -10t3.5 -12t0.5 -11.5t-1 -12.5t-4.5 -13l-2 -6q-1 -2 -11 -9l-10 -8 q-64 -32 -67 -32q-13 3 -49 39q-1 1 -33.5 27t-34.5 30q-3 1 -109.5 85t-107.5 85q-14 20 -53.5 48.5t-51.5 39.5q-2 0 -13.5 19t-14.5 26q-25 50 -25 57zM432 571h328l82 25q8 19 12 27v12q-9 34 -34 76t-34 73q-2 4 -13 39t-13 39q0 3 -7 17t-12 20q-3 4 -13.5 53 t-14.5 54q0 1 -5.5 5t-5.5 5q-5 10 -22 78q-6 12 -33 39q-19 -14 -29.5 -30t-20 -44t-17.5 -43q-13 -8 -15 -10q0 -21 -6 -27q-7 -18 -24 -102q0 -1 -10.5 -18t-10.5 -19v-54q0 -3 -11 -18t-14 -18q0 -5 -4.5 -28t-5.5 -24q0 -2 -5.5 -7t-6.5 -5q-35 -80 -35 -115z" />
<glyph unicode="&#xc1;" d="M23 76l32 37l23 49q0 6 33 39q10 13 15.5 28t7.5 24l1 9q7 14 23 78l32 49q1 3 0 20.5t0 18.5q1 3 6.5 12t11 17.5t5.5 9.5q2 6 17 39.5t18 36.5q7 21 63 129q5 8 16.5 27t17.5 32.5t11 32.5q4 4 23 100q1 1 6.5 13t5.5 14q2 1 5.5 24.5t4.5 24.5q0 3 5.5 14t7.5 13 q0 5 9.5 38t12.5 39q6 12 31 37q5 3 13.5 18t8.5 21q8 12 25.5 51.5t20.5 51.5q1 1 5.5 17.5t4.5 19.5l14 14q2 3 10.5 24.5t10.5 24.5v12q6 13 12 13q32 16 76 16q11 0 22 -9.5t17 -19.5t15.5 -28.5t12.5 -22.5q13 -8 15 -10q0 -7 8 -40t12 -38q5 -16 30.5 -75.5 t35.5 -76.5l10 -12q34 -103 35 -104l22 -37q17 -46 33 -105q10 -30 10 -51l35 -49q20 -59 31 -76q0 -5 4.5 -20t7.5 -19l20 -53l15 -57q3 -1 13.5 -30t24 -69t29 -79t31.5 -63.5t27 -18.5q0 -9 8 -43.5t12 -46.5q1 -3 16.5 -19.5t16.5 -19.5q1 -1 3 -13.5t4.5 -28t4.5 -22.5 v-12q-5 -11 -17 -31.5t-15 -21.5h-66q-3 0 -86 13t-94 13h-99q-23 3 -46 29t-23 51q0 28 16 47t42.5 27t47.5 11t43 3q18 0 47 -7t43 -7h9q-6 24 -31 57.5t-29 40.5q0 9 -10 29v10l-47 117q-17 9 -21 49l-333 -25h-56l-24 -12l-99 -10q-8 -1 -24 -4t-28.5 -5.5t-14.5 -2.5 q-8 -4 -23 -27q-3 -11 -9 -67t-13 -72q-3 -6 -18.5 -30t-25 -44t-9.5 -37q6 0 32 -2t31 -2q60 12 90 12h4q27 0 44.5 -32.5t17.5 -63.5v-4q-39 -49 -45 -51q-1 -3 -35 -8t-53 -5h-89q-15 0 -61 5t-61 8q-5 5 -17.5 13.5t-15.5 8.5q-2 3 -16.5 13t-16.5 16q-22 55 -22 78z M432 571h328l82 25q8 19 12 27v12q-9 34 -34 76t-34 73q-2 4 -13 39t-13 39q0 3 -7 17t-12 20q-3 4 -13.5 53t-14.5 54q0 1 -5.5 5t-5.5 5q-5 10 -22 78q-6 12 -33 39q-19 -14 -29.5 -30t-20 -44t-17.5 -43q-13 -8 -15 -10q0 -21 -6 -27q-7 -18 -24 -102q0 -1 -10.5 -18 t-10.5 -19v-54q0 -3 -11 -18t-14 -18q0 -5 -4.5 -28t-5.5 -24q0 -2 -5.5 -7t-6.5 -5q-35 -80 -35 -115zM563.5 1521.5q1.5 8.5 3 14t7 14.5t8.5 12.5t11.5 13.5t10.5 13q2 1 10.5 10t18 19.5t10.5 11.5q3 1 68.5 48.5t132.5 96.5t69 50l5 14l59 53q45 15 47 17q2 1 21.5 12 t23.5 12q4 4 31 13q33 16 47 4q0 -3 39 -58l6 -6v-4q0 -7 -25 -57q-2 -3 -9.5 -14t-13.5 -20t-7 -9q-15 -13 -56.5 -39.5t-56.5 -46.5q-1 -1 -115.5 -83t-117.5 -83q-2 -3 -36.5 -28.5t-35.5 -26.5q-7 -7 -27.5 -22.5t-25.5 -16.5q-16 4 -72 32l-21 15q0 4 -2 6 q-5 9 -7 16.5t-0.5 16z" />
<glyph unicode="&#xc2;" d="M23 76l32 37l23 49q0 6 33 39q10 13 15.5 28t7.5 24l1 9q7 14 23 78l32 49q1 3 0 20.5t0 18.5q1 3 6.5 12t11 17.5t5.5 9.5q2 6 17 39.5t18 36.5q7 21 63 129q5 8 16.5 27t17.5 32.5t11 32.5q4 4 23 100q1 1 6.5 13t5.5 14q2 1 5.5 24.5t4.5 24.5q0 3 5.5 14t7.5 13 q0 5 9.5 38t12.5 39q6 12 31 37q5 3 13.5 18t8.5 21q8 12 25.5 51.5t20.5 51.5q1 1 5.5 17.5t4.5 19.5l14 14q2 3 10.5 24.5t10.5 24.5v12q6 13 12 13q32 16 76 16q11 0 22 -9.5t17 -19.5t15.5 -28.5t12.5 -22.5q13 -8 15 -10q0 -7 8 -40t12 -38q5 -16 30.5 -75.5 t35.5 -76.5l10 -12q34 -103 35 -104l22 -37q17 -46 33 -105q10 -30 10 -51l35 -49q20 -59 31 -76q0 -5 4.5 -20t7.5 -19l20 -53l15 -57q3 -1 13.5 -30t24 -69t29 -79t31.5 -63.5t27 -18.5q0 -9 8 -43.5t12 -46.5q1 -3 16.5 -19.5t16.5 -19.5q1 -1 3 -13.5t4.5 -28t4.5 -22.5 v-12q-5 -11 -17 -31.5t-15 -21.5h-66q-3 0 -86 13t-94 13h-99q-23 3 -46 29t-23 51q0 28 16 47t42.5 27t47.5 11t43 3q18 0 47 -7t43 -7h9q-6 24 -31 57.5t-29 40.5q0 9 -10 29v10l-47 117q-17 9 -21 49l-333 -25h-56l-24 -12l-99 -10q-8 -1 -24 -4t-28.5 -5.5t-14.5 -2.5 q-8 -4 -23 -27q-3 -11 -9 -67t-13 -72q-3 -6 -18.5 -30t-25 -44t-9.5 -37q6 0 32 -2t31 -2q60 12 90 12h4q27 0 44.5 -32.5t17.5 -63.5v-4q-39 -49 -45 -51q-1 -3 -35 -8t-53 -5h-89q-15 0 -61 5t-61 8q-5 5 -17.5 13.5t-15.5 8.5q-2 3 -16.5 13t-16.5 16q-22 55 -22 78z M215 1407q0 2 6 13.5t10 15.5q11 11 17 14q14 10 34 21t31 22l64 72q2 0 18 7t17 7l32 43l265 229h6q16 0 49 -21.5t43 -35.5q16 -32 16 -43l17 -29l49 -100l16 -43q37 -59 39 -61q1 -1 10 -8.5t16.5 -14t8.5 -8.5q18 -49 33 -115q-25 -29 -68 -29q-18 0 -33.5 7.5t-23.5 16 t-21.5 25t-19.5 23.5l-5 4q-5 4 -8.5 7.5t-3.5 5.5l-16 55q-3 13 -33 74q-10 17 -23.5 44t-22 43.5t-9.5 16.5h-33q-3 0 -85 -70.5t-130 -113.5q-5 -4 -34.5 -38.5t-30.5 -35.5q-10 -8 -49 -36.5t-50 -35.5h-16q-37 0 -49 15q-6 7 -18.5 29.5t-14.5 27.5zM432 571h328l82 25 q8 19 12 27v12q-9 34 -34 76t-34 73q-2 4 -13 39t-13 39q0 3 -7 17t-12 20q-3 4 -13.5 53t-14.5 54q0 1 -5.5 5t-5.5 5q-5 10 -22 78q-6 12 -33 39q-19 -14 -29.5 -30t-20 -44t-17.5 -43q-13 -8 -15 -10q0 -21 -6 -27q-7 -18 -24 -102q0 -1 -10.5 -18t-10.5 -19v-54 q0 -3 -11 -18t-14 -18q0 -5 -4.5 -28t-5.5 -24q0 -2 -5.5 -7t-6.5 -5q-35 -80 -35 -115z" />
<glyph unicode="&#xc3;" d="M23 76l32 37l23 49q0 6 33 39q10 13 15.5 28t7.5 24l1 9q7 14 23 78l32 49q1 3 0 20.5t0 18.5q1 3 6.5 12t11 17.5t5.5 9.5q2 6 17 39.5t18 36.5q7 21 63 129q5 8 16.5 27t17.5 32.5t11 32.5q4 4 23 100q1 1 6.5 13t5.5 14q2 1 5.5 24.5t4.5 24.5q0 3 5.5 14t7.5 13 q0 5 9.5 38t12.5 39q6 12 31 37q5 3 13.5 18t8.5 21q8 12 25.5 51.5t20.5 51.5q1 1 5.5 17.5t4.5 19.5l14 14q2 3 10.5 24.5t10.5 24.5v12q6 13 12 13q32 16 76 16q11 0 22 -9.5t17 -19.5t15.5 -28.5t12.5 -22.5q13 -8 15 -10q0 -7 8 -40t12 -38q5 -16 30.5 -75.5 t35.5 -76.5l10 -12q34 -103 35 -104l22 -37q17 -46 33 -105q10 -30 10 -51l35 -49q20 -59 31 -76q0 -5 4.5 -20t7.5 -19l20 -53l15 -57q3 -1 13.5 -30t24 -69t29 -79t31.5 -63.5t27 -18.5q0 -9 8 -43.5t12 -46.5q1 -3 16.5 -19.5t16.5 -19.5q1 -1 3 -13.5t4.5 -28t4.5 -22.5 v-12q-5 -11 -17 -31.5t-15 -21.5h-66q-3 0 -86 13t-94 13h-99q-23 3 -46 29t-23 51q0 28 16 47t42.5 27t47.5 11t43 3q18 0 47 -7t43 -7h9q-6 24 -31 57.5t-29 40.5q0 9 -10 29v10l-47 117q-17 9 -21 49l-333 -25h-56l-24 -12l-99 -10q-8 -1 -24 -4t-28.5 -5.5t-14.5 -2.5 q-8 -4 -23 -27q-3 -11 -9 -67t-13 -72q-3 -6 -18.5 -30t-25 -44t-9.5 -37q6 0 32 -2t31 -2q60 12 90 12h4q27 0 44.5 -32.5t17.5 -63.5v-4q-39 -49 -45 -51q-1 -3 -35 -8t-53 -5h-89q-15 0 -61 5t-61 8q-5 5 -17.5 13.5t-15.5 8.5q-2 3 -16.5 13t-16.5 16q-22 55 -22 78z M193 1556v21q0 24 28 80l8 16l41 68q74 84 92 98q29 10 35 12l-2 -2q5 1 18 5.5t23 8t13 3.5h22q24 0 38.5 -3.5t37.5 -19.5q55 -163 149 -252q4 0 19 13q27 16 47.5 47t29.5 54t25 69l17 43l6 6v16l2 45q64 0 94 -6q9 -4 30.5 -21t28.5 -28v-17q0 -1 -1 -6.5t-1 -7.5 q-3 -18 -12 -33q-7 -23 -27.5 -68t-25.5 -52q-70 -128 -156 -170l-57 -25h-19q-55 17 -86 41q-16 8 -20 16q-2 1 -27 39q-48 57 -71 96q-1 1 -13 19l-4 12q-5 5 -22 39q-11 -2 -21.5 -9t-21.5 -20t-18 -22t-19 -27t-15 -22l-10 -19v-4l-4 -63l4 10q-1 -8 -4 -14.5t-7 -10.5 t-9.5 -7t-10 -4.5t-11 -2t-10 -0.5h-9h-6.5l-31 2q-7 4 -30 25.5t-27 31.5zM432 571h328l82 25q8 19 12 27v12q-9 34 -34 76t-34 73q-2 4 -13 39t-13 39q0 3 -7 17t-12 20q-3 4 -13.5 53t-14.5 54q0 1 -5.5 5t-5.5 5q-5 10 -22 78q-6 12 -33 39q-19 -14 -29.5 -30t-20 -44 t-17.5 -43q-13 -8 -15 -10q0 -21 -6 -27q-7 -18 -24 -102q0 -1 -10.5 -18t-10.5 -19v-54q0 -3 -11 -18t-14 -18q0 -5 -4.5 -28t-5.5 -24q0 -2 -5.5 -7t-6.5 -5q-35 -80 -35 -115z" />
<glyph unicode="&#xc4;" d="M23 76l32 37l23 49q0 6 33 39q10 13 15.5 28t7.5 24l1 9q7 14 23 78l32 49q1 3 0 20.5t0 18.5q1 3 6.5 12t11 17.5t5.5 9.5q2 6 17 39.5t18 36.5q7 21 63 129q5 8 16.5 27t17.5 32.5t11 32.5q4 4 23 100q1 1 6.5 13t5.5 14q2 1 5.5 24.5t4.5 24.5q0 3 5.5 14t7.5 13 q0 5 9.5 38t12.5 39q6 12 31 37q5 3 13.5 18t8.5 21q8 12 25.5 51.5t20.5 51.5q1 1 5.5 17.5t4.5 19.5l14 14q2 3 10.5 24.5t10.5 24.5v12q6 13 12 13q32 16 76 16q11 0 22 -9.5t17 -19.5t15.5 -28.5t12.5 -22.5q13 -8 15 -10q0 -7 8 -40t12 -38q5 -16 30.5 -75.5 t35.5 -76.5l10 -12q34 -103 35 -104l22 -37q17 -46 33 -105q10 -30 10 -51l35 -49q20 -59 31 -76q0 -5 4.5 -20t7.5 -19l20 -53l15 -57q3 -1 13.5 -30t24 -69t29 -79t31.5 -63.5t27 -18.5q0 -9 8 -43.5t12 -46.5q1 -3 16.5 -19.5t16.5 -19.5q1 -1 3 -13.5t4.5 -28t4.5 -22.5 v-12q-5 -11 -17 -31.5t-15 -21.5h-66q-3 0 -86 13t-94 13h-99q-23 3 -46 29t-23 51q0 28 16 47t42.5 27t47.5 11t43 3q18 0 47 -7t43 -7h9q-6 24 -31 57.5t-29 40.5q0 9 -10 29v10l-47 117q-17 9 -21 49l-333 -25h-56l-24 -12l-99 -10q-8 -1 -24 -4t-28.5 -5.5t-14.5 -2.5 q-8 -4 -23 -27q-3 -11 -9 -67t-13 -72q-3 -6 -18.5 -30t-25 -44t-9.5 -37q6 0 32 -2t31 -2q60 12 90 12h4q27 0 44.5 -32.5t17.5 -63.5v-4q-39 -49 -45 -51q-1 -3 -35 -8t-53 -5h-89q-15 0 -61 5t-61 8q-5 5 -17.5 13.5t-15.5 8.5q-2 3 -16.5 13t-16.5 16q-22 55 -22 78z M217 1612q0 34 2.5 54.5t17 42.5t42.5 30q62 24 98 24q130 0 158 -65q5 -15 12 -55t6 -48q0 -1 -10.5 -16t-25 -36.5t-21.5 -31.5q-18 -18 -23 -18q0 -2 -59 -2q-58 0 -58 2q-3 0 -33.5 16t-43.5 25q-11 6 -35.5 22.5t-24.5 18.5q-2 2 -2 37zM432 571h328l82 25q8 19 12 27 v12q-9 34 -34 76t-34 73q-2 4 -13 39t-13 39q0 3 -7 17t-12 20q-3 4 -13.5 53t-14.5 54q0 1 -5.5 5t-5.5 5q-5 10 -22 78q-6 12 -33 39q-19 -14 -29.5 -30t-20 -44t-17.5 -43q-13 -8 -15 -10q0 -21 -6 -27q-7 -18 -24 -102q0 -1 -10.5 -18t-10.5 -19v-54q0 -3 -11 -18 t-14 -18q0 -5 -4.5 -28t-5.5 -24q0 -2 -5.5 -7t-6.5 -5q-35 -80 -35 -115zM711 1610q0 9 15 41t24 43q8 14 39 47.5t38 36.5q38 2 52 2q8 0 23.5 -0.5t28.5 -1.5h13q28 -4 73.5 -66t45.5 -90q0 -1 -1 -6t-1 -6q0 -7 -17 -41q-6 -6 -25.5 -27t-34.5 -37t-19 -18 q-9 -6 -39 -14t-39 -7q-9 2 -47 17.5t-52 23.5q-10 4 -33 21t-26 22q-6 4 -13 29t-5 31z" />
<glyph unicode="&#xc5;" d="M23 76l32 37l23 49q0 6 33 39q10 13 15.5 28t7.5 24l1 9q7 14 23 78l32 49q1 3 0 20.5t0 18.5q1 3 6.5 12t11 17.5t5.5 9.5q2 6 17 39.5t18 36.5q7 21 63 129q5 8 16.5 27t17.5 32.5t11 32.5q4 4 23 100q1 1 6.5 13t5.5 14q2 1 5.5 24.5t4.5 24.5q0 3 5.5 14t7.5 13 q0 5 9.5 38t12.5 39q6 12 31 37q5 3 13.5 18t8.5 21q8 12 25.5 51.5t20.5 51.5q1 1 5.5 17.5t4.5 19.5l14 14q2 3 10.5 24.5t10.5 24.5v12q6 13 12 13q32 16 76 16q11 0 22 -9.5t17 -19.5t15.5 -28.5t12.5 -22.5q13 -8 15 -10q0 -7 8 -40t12 -38q5 -16 30.5 -75.5 t35.5 -76.5l10 -12q34 -103 35 -104l22 -37q17 -46 33 -105q10 -30 10 -51l35 -49q20 -59 31 -76q0 -5 4.5 -20t7.5 -19l20 -53l15 -57q3 -1 13.5 -30t24 -69t29 -79t31.5 -63.5t27 -18.5q0 -9 8 -43.5t12 -46.5q1 -3 16.5 -19.5t16.5 -19.5q1 -1 3 -13.5t4.5 -28t4.5 -22.5 v-12q-5 -11 -17 -31.5t-15 -21.5h-66q-3 0 -86 13t-94 13h-99q-23 3 -46 29t-23 51q0 28 16 47t42.5 27t47.5 11t43 3q18 0 47 -7t43 -7h9q-6 24 -31 57.5t-29 40.5q0 9 -10 29v10l-47 117q-17 9 -21 49l-333 -25h-56l-24 -12l-99 -10q-8 -1 -24 -4t-28.5 -5.5t-14.5 -2.5 q-8 -4 -23 -27q-3 -11 -9 -67t-13 -72q-3 -6 -18.5 -30t-25 -44t-9.5 -37q6 0 32 -2t31 -2q60 12 90 12h4q27 0 44.5 -32.5t17.5 -63.5v-4q-39 -49 -45 -51q-1 -3 -35 -8t-53 -5h-89q-15 0 -61 5t-61 8q-5 5 -17.5 13.5t-15.5 8.5q-2 3 -16.5 13t-16.5 16q-22 55 -22 78z M285 1751q0 41 37 94q15 15 18 21v14q3 9 16.5 29.5t18.5 23.5q8 8 46 21t42 16q13 5 44 25.5t48 25.5q74 19 115 19h26l144 -35q54 -18 90.5 -80.5t36.5 -120.5q0 -123 -56 -184q-12 -17 -68 -71t-75 -68q-52 -9 -88 -19h-18q-95 13 -107 19q-4 0 -36.5 16t-35.5 16 q-51 17 -55 21q-14 12 -16 14q-88 98 -107 125q3 21 -8.5 41.5t-11.5 36.5zM432 571h328l82 25q8 19 12 27v12q-9 34 -34 76t-34 73q-2 4 -13 39t-13 39q0 3 -7 17t-12 20q-3 4 -13.5 53t-14.5 54q0 1 -5.5 5t-5.5 5q-5 10 -22 78q-6 12 -33 39q-19 -14 -29.5 -30t-20 -44 t-17.5 -43q-13 -8 -15 -10q0 -21 -6 -27q-7 -18 -24 -102q0 -1 -10.5 -18t-10.5 -19v-54q0 -3 -11 -18t-14 -18q0 -5 -4.5 -28t-5.5 -24q0 -2 -5.5 -7t-6.5 -5q-35 -80 -35 -115zM446 1731q0 -23 3 -23q2 -5 29 -33.5t40 -38.5q45 -34 152 -34h16.5h15t12.5 0.5t13 2.5 t11.5 5.5t13.5 9.5q3 2 15.5 13t18.5 16t17 16t17 19t12 19t8 21q6 14 13 49.5t5 38.5q0 4 -14 18t-21 15q-13 7 -71 21q-42 14 -56 14q-2 2 -37 2q-34 0 -34 -2q-4 -1 -142 -68q-37 -20 -37 -81z" />
<glyph unicode="&#xc6;" d="M-20 135q0 2 20 82q55 282 91 401q15 51 32 97q24 61 76.5 168.5t68.5 142.5q3 3 12 28t11 33l18 41q73 169 103 248q5 7 21.5 23.5t21.5 19.5q14 5 45 12.5t37 6.5q3 0 19 -15.5t24 -25.5q16 -23 20 -41q14 -2 102 -2q99 0 105 2q43 5 145.5 34t159.5 29h45l43 -43 q28 -35 41 -61v-12q0 -27 -20 -50q-6 -8 -22 -24.5t-19 -18.5q-10 -1 -33 15t-31 28h-102q-211 0 -291 -22q-1 -1 -12.5 -8.5t-26.5 -17.5t-22 -15l-21 -21q3 -12 23 -80t37.5 -129t21.5 -81q3 -12 7 -36.5t8 -40.5t12 -33.5t24 -26.5t39 -9q5 0 19 1t16 1q153 21 248 41 q2 1 12.5 6.5t19.5 10.5t11 4q6 -3 22 -27t19 -35q4 -8 4 -47q0 -33 -4 -37q-3 -3 -35.5 -19t-48.5 -22q-16 -7 -82 -20q-20 -1 -114 3.5t-105 4.5q0 -6 -5 -55t-4 -58q3 -22 19 -101t22 -103q2 0 15 -1t16 -1q5 0 18 1l13 1q6 0 62.5 9t62.5 9h125l82 23h22q34 0 48 -33 t14 -74q0 -28 -25.5 -42.5t-58.5 -16.5q-273 -21 -291 -21q-28 -4 -75.5 -34.5t-80.5 -30.5q-32 0 -59.5 26t-30.5 60q-2 12 -11 113.5t-11 113.5q-3 18 -19 82.5t-22 83.5q-9 0 -62 1t-63 1q-15 0 -44.5 -0.5t-53.5 -1t-25 -0.5q-4 0 -37 -9t-45 -14q-37 -5 -64 -18 q-10 -3 -20 -23q-13 -37 -25.5 -110.5t-22 -133t-35 -120.5t-63.5 -90q-29 24 -61 63q-5 4 -12.5 20.5t-7.5 20.5zM309 743q0 -22 60.5 -36.5t95.5 -14.5q50 0 135 23q0 2 1 14.5t1 15.5q0 79 -32.5 201.5t-73.5 181.5h-9q-21 0 -36 -22.5t-26.5 -61.5t-12.5 -40 q-5 -16 -40 -103.5t-40 -103.5l-23 -41v-13z" />
<glyph unicode="&#xc7;" d="M125 410v200q0 3 2.5 16.5t5.5 29.5t4 22q57 239 166 338l39 24q3 2 50 27.5t52 28.5q1 0 7 6t6 8h37q3 0 14.5 5t13.5 7l142 54h12q12 1 27 1.5t22 0.5q11 0 44 -1t34 -1q4 0 23.5 -4.5t27.5 -8.5q1 -1 12 -6.5t13 -5.5q12 -5 32 -11t31 -10t26 -13t27 -21q13 6 13 18v8 q-2 12 -7.5 75t-5.5 73v14q3 6 11.5 19t16.5 22.5t9 9.5q6 6 37 6q33 0 39 -6q4 0 23.5 -19.5t27.5 -31.5v-14q-1 -6 -5.5 -33.5t-7 -39.5t-8 -33.5t-13 -37.5t-17.5 -30l-4 -242l-2 -41v-229q-23 -29 -31 -41q-9 -11 -13 -13t-18 -2q-32 0 -45 15q-3 1 -7.5 13.5t-4.5 14.5 q-3 4 -12 13t-13 16.5t-4 17.5q0 9 8.5 26.5t8.5 27.5q0 12 -8.5 24t-8.5 23q0 1 1 7t1 7q20 80 27 94l12 13v14q-20 34 -51.5 60t-56 38.5t-72.5 34.5l-53 17h-4q-12 0 -27.5 -1.5t-33.5 -9t-21 -18.5q-11 1 -51 -4t-54 -8q-142 -73 -178 -95q-12 -12 -12 -14l-12 -27h-15 l-12 -14q-4 -9 -19.5 -42t-27.5 -60.5t-14 -32.5q-3 -4 -15 -44.5t-14 -49.5q0 -3 -5 -20.5t-7 -20.5v-27q24 -100 24 -121l39 -92l14 -43q23 2 25 0q2 0 4.5 -5.5t4.5 -13t3 -8.5q88 -92 181 -94h145h30h35t33.5 0.5t37 1.5t33.5 3t35.5 5t30.5 7q3 0 23.5 7.5t46 17 t35.5 12.5q2 2 12.5 8t11.5 6q13 2 15 2q1 0 6 -1t6 -1q12 -3 31.5 -13.5t19.5 -13.5v-121q0 -10 -16 -15t-37 -7t-25 -4l-12 -7q-13 -7 -24 -12.5t-13 -5.5q-45 -18 -63 -18h-90q-3 0 -11.5 -5.5t-17.5 -12t-10 -7.5q-29 -2 -35 -2q-21 0 -52 7t-48 7q-11 0 -15 -2 q-12 -15 -12 -38q0 -14 18 -50q23 -31 101 -52t102 -46q6 -3 22 -28t19 -35l21 -82q0 -3 8.5 -9t11.5 -6q0 -13 -7.5 -51t-12.5 -47q-3 -7 -26.5 -32t-35.5 -34q-14 -11 -30 -20t-36.5 -15.5t-35.5 -10.5t-41.5 -7.5t-38.5 -4.5l-42 -3.5t-38 -3.5q-6 0 -69.5 -7.5 t-71.5 -6.5q-13 0 -80 30q-21 10 -32 31t-11 41q0 28 21.5 43.5t52.5 15.5q26 0 28 -2q6 -2 15 -15t6 -17h141q88 7 162 18q6 3 22 21.5t19 25.5q2 17 2 25q0 20 -3 35.5t-13 28t-17 20t-26 16.5t-29 13t-37 13l-39 13q-3 1 -21 7.5t-20 6.5q-17 17 -20 17q-5 2 -41.5 8.5 t-38.5 7.5q-8 3 -31.5 22t-30.5 27q-2 0 -2 15q0 20 9 38.5t31 46.5t24 31q0 1 18 23l-10 -2q-120 15 -127 18q-6 0 -64 51q-1 1 -13.5 14.5t-24.5 25.5t-15 14q0 1 -11 6.5t-13 5.5q0 1 -11.5 18.5t-15.5 24.5q-15 43 -76 160q9 58 -12 82z" />
<glyph unicode="&#xc8;" d="M14 82q0 7 27 24t39 19q3 1 11 1t17.5 -0.5t10.5 -0.5q15 5 24 14h121q46 0 66 41v148q0 6 -6.5 48t-6.5 46v29q0 3 6.5 38.5t6.5 38.5v285q0 3 -6 26.5t-7 28.5q0 1 -7.5 6t-8.5 7v6q0 13 16 33q-27 14 -53 14h-12q-2 -2 -19 -8t-20 -6q-3 -1 -43.5 -6.5t-44.5 -6.5 q-2 -2 -14 -8t-15 -6h-10q-28 14 -47 41t-19 59q0 30 29 47l47 41q6 2 42 8t38 7q12 10 12 14q4 0 26 1t26 1q6 0 18.5 -0.5t22 -1t10.5 -0.5t12.5 -7t13.5 -7h23q3 0 15 6t14 8q36 8 107 12.5t108 12.5q4 0 13 6.5t11 9.5q27 1 140 13t118 12h39q1 0 11.5 6t11.5 6 q42 14 53 14q2 1 30 14.5t33 14.5h91q24 -25 31 -62.5t3 -70t2 -70.5l25 -53v-55q-1 -7 -3.5 -23t-4.5 -29t-2 -14q-4 -6 -23.5 -27t-27.5 -26q-5 -2 -7 -2q-18 0 -32 41q-2 6 -7.5 41t-5.5 39q-1 5 -18.5 40t-20.5 44q-3 1 -8 6.5t-10 11.5l-6 6h-39q-48 -12 -66 -12 q-5 -3 -53.5 -7.5t-60.5 -4.5q-2 -1 -25 -8.5t-24 -8.5q-6 -1 -19.5 -6t-19.5 -6q-8 -2 -52.5 -7t-52.5 -5q-8 -3 -32.5 -9t-30.5 -6q-76 -30 -76 -41l12 -229h21q18 0 38.5 3t33.5 6t39 9.5t36 8.5l17 7q16 7 20 9h191l16 -16q0 -5 12 -41q1 0 5.5 -12.5t4.5 -14.5 q0 -1 -2 -6.5t-4.5 -12t-3.5 -8.5l-28 -26q-69 -23 -101 -27q-5 -1 -45 0t-45 0q-7 -1 -56.5 -18.5t-60.5 -22.5l-88 -12v-324q12 -2 44.5 -4.5t67.5 -4.5t42 -3h78q2 0 37 -6t41 -6h32q33 0 95 11t88 13q16 1 47.5 -2.5t42.5 -3.5q0 2 3.5 16.5t2.5 16.5q-1 4 -13.5 33.5 t-13.5 33.5q-3 25 -8 97t-4 92q-12 18 -12 24q0 4 4.5 20.5t7.5 20.5q23 72 74 72l28 -2q16 -3 52 -27q5 -5 7.5 -13t3.5 -19.5t1.5 -19.5t0 -20.5t-0.5 -13.5v-49q0 -7 -12 -67q0 -2 -8 -14.5t-7 -14.5q0 -1 13.5 -18.5t13.5 -18.5v-45v-12.5v-12.5t-0.5 -11t-1 -10.5 t-2 -9t-3.5 -9.5l-5 -7.5t-6.5 -7t-9 -5.5t-11.5 -5h-10l-15 -12q0 -17 -5.5 -58.5t-10.5 -52.5q0 -6 -15.5 -21.5t-21.5 -15.5h-197q-4 0 -55.5 -9t-56.5 -9h-205q-3 0 -33 -6.5t-33 -6.5q-8 -1 -43.5 -1t-44.5 1q-1 -5 -3.5 -7.5t-6.5 -3.5t-6.5 -1.5t-8 0t-7.5 0.5 q-9 0 -25 6t-25 6h-10q-2 -2 -23.5 -7t-27.5 -5l-13 -1q-14 0 -30.5 -0.5t-24.5 -0.5q-5 0 -15.5 1t-16.5 1q-21 20 -75.5 22.5t-76.5 20.5q-2 0 -4.5 6t-4.5 12t-3 7q-3 3 -11 19.5t-10 21.5q-2 6 -2 8zM221 1696v6l6 4q3 5 13.5 21t17 26.5t6.5 11.5q14 12 45 -4l27 -12 q13 -4 43 -27q2 0 21.5 -6.5t23.5 -9.5l53 -53q2 -13 4 -15l252 -200l37 -41q1 -1 7.5 -9.5t7.5 -10t6.5 -9.5t6.5 -10l4.5 -9t4 -10.5t2 -10t0.5 -11.5t-2 -11t-4 -12l-2 -6q-1 -2 -11 -9l-10 -7q-2 -1 -19.5 -10.5t-30.5 -16t-17 -6.5q-13 3 -49 39q-1 1 -33.5 27 t-34.5 30q-3 1 -109.5 85t-107.5 85q-14 20 -53.5 48.5t-51.5 39.5q-2 0 -13.5 19t-14.5 26q-25 50 -25 58z" />
<glyph unicode="&#xc9;" d="M14 82q0 7 27 24t39 19q3 1 11 1t17.5 -0.5t10.5 -0.5q15 5 24 14h121q46 0 66 41v148q0 6 -6.5 48t-6.5 46v29q0 3 6.5 38.5t6.5 38.5v285q0 3 -6 26.5t-7 28.5q0 1 -7.5 6t-8.5 7v6q0 13 16 33q-27 14 -53 14h-12q-2 -2 -19 -8t-20 -6q-3 -1 -43.5 -6.5t-44.5 -6.5 q-2 -2 -14 -8t-15 -6h-10q-28 14 -47 41t-19 59q0 30 29 47l47 41q6 2 42 8t38 7q12 10 12 14q4 0 26 1t26 1q6 0 18.5 -0.5t22 -1t10.5 -0.5t12.5 -7t13.5 -7h23q3 0 15 6t14 8q36 8 107 12.5t108 12.5q4 0 13 6.5t11 9.5q27 1 140 13t118 12h39q1 0 11.5 6t11.5 6 q42 14 53 14q2 1 30 14.5t33 14.5h91q24 -25 31 -62.5t3 -70t2 -70.5l25 -53v-55q-1 -7 -3.5 -23t-4.5 -29t-2 -14q-4 -6 -23.5 -27t-27.5 -26q-5 -2 -7 -2q-18 0 -32 41q-2 6 -7.5 41t-5.5 39q-1 5 -18.5 40t-20.5 44q-3 1 -8 6.5t-10 11.5l-6 6h-39q-48 -12 -66 -12 q-5 -3 -53.5 -7.5t-60.5 -4.5q-2 -1 -25 -8.5t-24 -8.5q-6 -1 -19.5 -6t-19.5 -6q-8 -2 -52.5 -7t-52.5 -5q-8 -3 -32.5 -9t-30.5 -6q-76 -30 -76 -41l12 -229h21q18 0 38.5 3t33.5 6t39 9.5t36 8.5l17 7q16 7 20 9h191l16 -16q0 -5 12 -41q1 0 5.5 -12.5t4.5 -14.5 q0 -1 -2 -6.5t-4.5 -12t-3.5 -8.5l-28 -26q-69 -23 -101 -27q-5 -1 -45 0t-45 0q-7 -1 -56.5 -18.5t-60.5 -22.5l-88 -12v-324q12 -2 44.5 -4.5t67.5 -4.5t42 -3h78q2 0 37 -6t41 -6h32q33 0 95 11t88 13q16 1 47.5 -2.5t42.5 -3.5q0 2 3.5 16.5t2.5 16.5q-1 4 -13.5 33.5 t-13.5 33.5q-3 25 -8 97t-4 92q-12 18 -12 24q0 4 4.5 20.5t7.5 20.5q23 72 74 72l28 -2q16 -3 52 -27q5 -5 7.5 -13t3.5 -19.5t1.5 -19.5t0 -20.5t-0.5 -13.5v-49q0 -7 -12 -67q0 -2 -8 -14.5t-7 -14.5q0 -1 13.5 -18.5t13.5 -18.5v-45v-12.5v-12.5t-0.5 -11t-1 -10.5 t-2 -9t-3.5 -9.5l-5 -7.5t-6.5 -7t-9 -5.5t-11.5 -5h-10l-15 -12q0 -17 -5.5 -58.5t-10.5 -52.5q0 -6 -15.5 -21.5t-21.5 -15.5h-197q-4 0 -55.5 -9t-56.5 -9h-205q-3 0 -33 -6.5t-33 -6.5q-8 -1 -43.5 -1t-44.5 1q-1 -5 -3.5 -7.5t-6.5 -3.5t-6.5 -1.5t-8 0t-7.5 0.5 q-9 0 -25 6t-25 6h-10q-2 -2 -23.5 -7t-27.5 -5l-13 -1q-14 0 -30.5 -0.5t-24.5 -0.5q-5 0 -15.5 1t-16.5 1q-21 20 -75.5 22.5t-76.5 20.5q-2 0 -4.5 6t-4.5 12t-3 7q-3 3 -11 19.5t-10 21.5q-2 6 -2 8zM459.5 1308.5q1.5 8.5 3 14t7 14.5t8.5 12.5t11.5 13.5t10.5 13 q2 1 10.5 10t18 19.5t10.5 11.5q3 1 68.5 48.5t132.5 96.5t69 50l4 14l59 53q47 15 48 17q2 1 21.5 12t23.5 12q5 4 30 13q33 16 47 4q0 -3 39 -58l6 -6v-4q0 -9 -24 -57q-2 -3 -10 -14t-14 -20t-7 -9q-15 -13 -56 -39.5t-56 -46.5q-1 -1 -116 -83t-118 -83 q-2 -3 -36.5 -28.5t-35.5 -26.5q-7 -7 -27.5 -22.5t-25.5 -16.5q-16 4 -72 32l-20 15q0 4 -2 6q-5 9 -7 16.5t-0.5 16z" />
<glyph unicode="&#xca;" d="M14 82q0 7 27 24t39 19q3 1 11 1t17.5 -0.5t10.5 -0.5q15 5 24 14h121q46 0 66 41v148q0 6 -6.5 48t-6.5 46v29q0 3 6.5 38.5t6.5 38.5v285q0 3 -6 26.5t-7 28.5q0 1 -7.5 6t-8.5 7v6q0 13 16 33q-27 14 -53 14h-12q-2 -2 -19 -8t-20 -6q-3 -1 -43.5 -6.5t-44.5 -6.5 q-2 -2 -14 -8t-15 -6h-10q-28 14 -47 41t-19 59q0 30 29 47l47 41q6 2 42 8t38 7q12 10 12 14q4 0 26 1t26 1q6 0 18.5 -0.5t22 -1t10.5 -0.5t12.5 -7t13.5 -7h23q3 0 15 6t14 8q36 8 107 12.5t108 12.5q4 0 13 6.5t11 9.5q27 1 140 13t118 12h39q1 0 11.5 6t11.5 6 q42 14 53 14q2 1 30 14.5t33 14.5h91q24 -25 31 -62.5t3 -70t2 -70.5l25 -53v-55q-1 -7 -3.5 -23t-4.5 -29t-2 -14q-4 -6 -23.5 -27t-27.5 -26q-5 -2 -7 -2q-18 0 -32 41q-2 6 -7.5 41t-5.5 39q-1 5 -18.5 40t-20.5 44q-3 1 -8 6.5t-10 11.5l-6 6h-39q-48 -12 -66 -12 q-5 -3 -53.5 -7.5t-60.5 -4.5q-2 -1 -25 -8.5t-24 -8.5q-6 -1 -19.5 -6t-19.5 -6q-8 -2 -52.5 -7t-52.5 -5q-8 -3 -32.5 -9t-30.5 -6q-76 -30 -76 -41l12 -229h21q18 0 38.5 3t33.5 6t39 9.5t36 8.5l17 7q16 7 20 9h191l16 -16q0 -5 12 -41q1 0 5.5 -12.5t4.5 -14.5 q0 -1 -2 -6.5t-4.5 -12t-3.5 -8.5l-28 -26q-69 -23 -101 -27q-5 -1 -45 0t-45 0q-7 -1 -56.5 -18.5t-60.5 -22.5l-88 -12v-324q12 -2 44.5 -4.5t67.5 -4.5t42 -3h78q2 0 37 -6t41 -6h32q33 0 95 11t88 13q16 1 47.5 -2.5t42.5 -3.5q0 2 3.5 16.5t2.5 16.5q-1 4 -13.5 33.5 t-13.5 33.5q-3 25 -8 97t-4 92q-12 18 -12 24q0 4 4.5 20.5t7.5 20.5q23 72 74 72l28 -2q16 -3 52 -27q5 -5 7.5 -13t3.5 -19.5t1.5 -19.5t0 -20.5t-0.5 -13.5v-49q0 -7 -12 -67q0 -2 -8 -14.5t-7 -14.5q0 -1 13.5 -18.5t13.5 -18.5v-45v-12.5v-12.5t-0.5 -11t-1 -10.5 t-2 -9t-3.5 -9.5l-5 -7.5t-6.5 -7t-9 -5.5t-11.5 -5h-10l-15 -12q0 -17 -5.5 -58.5t-10.5 -52.5q0 -6 -15.5 -21.5t-21.5 -15.5h-197q-4 0 -55.5 -9t-56.5 -9h-205q-3 0 -33 -6.5t-33 -6.5q-8 -1 -43.5 -1t-44.5 1q-1 -5 -3.5 -7.5t-6.5 -3.5t-6.5 -1.5t-8 0t-7.5 0.5 q-9 0 -25 6t-25 6h-10q-2 -2 -23.5 -7t-27.5 -5l-13 -1q-14 0 -30.5 -0.5t-24.5 -0.5q-5 0 -15.5 1t-16.5 1q-21 20 -75.5 22.5t-76.5 20.5q-2 0 -4.5 6t-4.5 12t-3 7q-3 3 -11 19.5t-10 21.5q-2 6 -2 8zM201 1339q0 2 6 13.5t10 15.5q12 12 16 14q14 10 34.5 21t31.5 22 l63 72q2 0 18 7t17 7l33 43l264 230h6q16 0 49.5 -22t43.5 -36q16 -32 16 -43l16 -28l49 -101l17 -43q37 -59 39 -61q1 -1 10 -8.5t16.5 -14t8.5 -8.5q16 -44 32 -114q-25 -29 -67 -29q-18 0 -33.5 8t-23.5 15.5t-22 25t-20 23.5l-5 4q-4 3 -7.5 6.5t-3.5 5.5l-16 55 q-3 13 -33 74q-10 17 -23.5 44t-22 43.5t-9.5 16.5h-33q-3 0 -85 -70.5t-130 -113.5q-5 -4 -35 -38.5t-31 -35.5q-47 -39 -98 -71h-16q-38 0 -50 14q-6 7 -18 29.5t-14 27.5z" />
<glyph unicode="&#xcb;" d="M14 82q0 7 27 24t39 19q3 1 11 1t17.5 -0.5t10.5 -0.5q15 5 24 14h121q46 0 66 41v148q0 6 -6.5 48t-6.5 46v29q0 3 6.5 38.5t6.5 38.5v285q0 3 -6 26.5t-7 28.5q0 1 -7.5 6t-8.5 7v6q0 13 16 33q-27 14 -53 14h-12q-2 -2 -19 -8t-20 -6q-3 -1 -43.5 -6.5t-44.5 -6.5 q-2 -2 -14 -8t-15 -6h-10q-28 14 -47 41t-19 59q0 30 29 47l47 41q6 2 42 8t38 7q12 10 12 14q4 0 26 1t26 1q6 0 18.5 -0.5t22 -1t10.5 -0.5t12.5 -7t13.5 -7h23q3 0 15 6t14 8q36 8 107 12.5t108 12.5q4 0 13 6.5t11 9.5q27 1 140 13t118 12h39q1 0 11.5 6t11.5 6 q42 14 53 14q2 1 30 14.5t33 14.5h91q24 -25 31 -62.5t3 -70t2 -70.5l25 -53v-55q-1 -7 -3.5 -23t-4.5 -29t-2 -14q-4 -6 -23.5 -27t-27.5 -26q-5 -2 -7 -2q-18 0 -32 41q-2 6 -7.5 41t-5.5 39q-1 5 -18.5 40t-20.5 44q-3 1 -8 6.5t-10 11.5l-6 6h-39q-48 -12 -66 -12 q-5 -3 -53.5 -7.5t-60.5 -4.5q-2 -1 -25 -8.5t-24 -8.5q-6 -1 -19.5 -6t-19.5 -6q-8 -2 -52.5 -7t-52.5 -5q-8 -3 -32.5 -9t-30.5 -6q-76 -30 -76 -41l12 -229h21q18 0 38.5 3t33.5 6t39 9.5t36 8.5l17 7q16 7 20 9h191l16 -16q0 -5 12 -41q1 0 5.5 -12.5t4.5 -14.5 q0 -1 -2 -6.5t-4.5 -12t-3.5 -8.5l-28 -26q-69 -23 -101 -27q-5 -1 -45 0t-45 0q-7 -1 -56.5 -18.5t-60.5 -22.5l-88 -12v-324q12 -2 44.5 -4.5t67.5 -4.5t42 -3h78q2 0 37 -6t41 -6h32q33 0 95 11t88 13q16 1 47.5 -2.5t42.5 -3.5q0 2 3.5 16.5t2.5 16.5q-1 4 -13.5 33.5 t-13.5 33.5q-3 25 -8 97t-4 92q-12 18 -12 24q0 4 4.5 20.5t7.5 20.5q23 72 74 72l28 -2q16 -3 52 -27q5 -5 7.5 -13t3.5 -19.5t1.5 -19.5t0 -20.5t-0.5 -13.5v-49q0 -7 -12 -67q0 -2 -8 -14.5t-7 -14.5q0 -1 13.5 -18.5t13.5 -18.5v-45v-12.5v-12.5t-0.5 -11t-1 -10.5 t-2 -9t-3.5 -9.5l-5 -7.5t-6.5 -7t-9 -5.5t-11.5 -5h-10l-15 -12q0 -17 -5.5 -58.5t-10.5 -52.5q0 -6 -15.5 -21.5t-21.5 -15.5h-197q-4 0 -55.5 -9t-56.5 -9h-205q-3 0 -33 -6.5t-33 -6.5q-8 -1 -43.5 -1t-44.5 1q-1 -5 -3.5 -7.5t-6.5 -3.5t-6.5 -1.5t-8 0t-7.5 0.5 q-9 0 -25 6t-25 6h-10q-2 -2 -23.5 -7t-27.5 -5l-13 -1q-14 0 -30.5 -0.5t-24.5 -0.5q-5 0 -15.5 1t-16.5 1q-21 20 -75.5 22.5t-76.5 20.5q-2 0 -4.5 6t-4.5 12t-3 7q-3 3 -11 19.5t-10 21.5q-2 6 -2 8zM209 1452q0 35 2.5 55t16.5 42t42 30q64 25 99 25q129 0 157 -66 q5 -15 12.5 -54.5t6.5 -47.5q0 -1 -11 -16t-25.5 -36.5t-21.5 -31.5q-19 -19 -22 -19q0 -2 -59 -2q-58 0 -58 2q-3 0 -34 16t-44 25q-7 4 -21.5 13.5t-26 18t-11.5 9.5q-2 2 -2 37zM702 1450q0 9 15 41t24 43q8 14 39.5 47.5t38.5 36.5q37 2 51 2q8 0 24 -0.5t29 -1.5h13 q28 -4 73.5 -66t45.5 -90q0 -1 -1 -6t-1 -6q0 -7 -17 -41q-6 -6 -25.5 -27t-35 -37t-19.5 -18q-9 -6 -38.5 -13.5t-38.5 -6.5q-9 2 -47 17.5t-52 23.5q-10 4 -33 21t-26 22q-6 4 -13.5 28.5t-5.5 30.5z" />
<glyph unicode="&#xcc;" d="M263.5 49q-0.5 7 0 10t1.5 8t4.5 8.5t9.5 6.5q74 37 90 41h61q2 0 14 6t13 6q10 1 44.5 1t45.5 -1q-33 24 -39 53l-12 160v82q0 9 -6.5 87.5t-6.5 86.5v150q0 5 6.5 53t6.5 53v68l26 176q0 3 5 33t5 34q1 4 0 21l-2 18q-6 0 -54 9t-58 8q-5 -1 -31 -19.5t-31 -23.5 q-6 -3 -12.5 -7t-11 -6t-8.5 -2l-7 2q-4 2 -10.5 8.5t-12 12.5t-10.5 12l-5 6q-5 35 -5 47q0 4 2.5 24.5t2.5 23.5q19 27 67 55.5t84 38.5q32 -3 135.5 -3t132.5 3l181 26q1 0 12 7.5t12 7.5q3 0 20 -7.5t19 -7.5q3 0 20.5 7.5t18.5 7.5q10 -9 12 -15l29 -51q0 -3 -7 -21.5 t-7 -21.5v-12q-29 -36 -39 -41l-117 -27h-39l-88 -12q0 -1 -6 -6.5t-8 -5.5q-2 -14 -25 -84q-1 -2 -5.5 -38.5t-6.5 -41.5q0 -2 -5.5 -20t-6.5 -19v-53q-10 -78 -15 -94q0 -4 -4 -21t-6 -20v-27l-14 -96q0 -1 -0.5 -15t-1 -30.5t-0.5 -22.5q0 -8 0.5 -23.5t0.5 -28.5l1 -13 q7 -22 14 -29q-11 -194 37 -404h12q24 0 71.5 7.5t71.5 7.5h9q16 -1 45.5 -7t31.5 -8q18 -5 28.5 -27.5t10.5 -43.5l-2 -8q0 -7 -2 -20.5t-4.5 -23.5t-3.5 -10q-4 -6 -29 -16t-34 -10h-193q-3 0 -31 -7.5t-32 -7.5h-101q-16 0 -65 -14q-24 -12 -39 -12q-3 0 -20 6t-19 6 l-76 14q-6 3 -20 19t-17 22q-2 17 -2 25q0 3 -0.5 10zM303 1976v6l6 5q3 5 13.5 21t17 26.5t6.5 11.5q14 12 45 -4l27 -12q13 -4 43 -27q2 0 21.5 -6.5t23.5 -9.5l53 -54q2 -12 4 -14l252 -201l37 -41q1 -2 8 -10.5t8.5 -11t7 -10.5t6.5 -11t4.5 -10t3.5 -12t0.5 -11.5 t-1 -12.5t-4.5 -13l-2 -6q-1 -2 -11 -9l-10 -8q-64 -32 -67 -32q-5 1 -23.5 16t-26.5 23q-1 1 -33 27t-34 30q-3 1 -109.5 85t-107.5 85q-14 20 -53.5 48.5t-51.5 39.5q-2 0 -13.5 19t-14.5 26q-25 50 -25 57z" />
<glyph unicode="&#xcd;" d="M263.5 49q-0.5 7 0 10t1.5 8t4.5 8.5t9.5 6.5q74 37 90 41h61q2 0 14 6t13 6q10 1 44.5 1t45.5 -1q-33 24 -39 53l-12 160v82q0 9 -6.5 87.5t-6.5 86.5v150q0 5 6.5 53t6.5 53v68l26 176q0 3 5 33t5 34q1 4 0 21l-2 18q-6 0 -54 9t-58 8q-5 -1 -31 -19.5t-31 -23.5 q-6 -3 -12.5 -7t-11 -6t-8.5 -2l-7 2q-4 2 -10.5 8.5t-12 12.5t-10.5 12l-5 6q-5 35 -5 47q0 4 2.5 24.5t2.5 23.5q19 27 67 55.5t84 38.5q32 -3 135.5 -3t132.5 3l181 26q1 0 12 7.5t12 7.5q3 0 20 -7.5t19 -7.5q3 0 20.5 7.5t18.5 7.5q10 -9 12 -15l29 -51q0 -3 -7 -21.5 t-7 -21.5v-12q-29 -36 -39 -41l-117 -27h-39l-88 -12q0 -1 -6 -6.5t-8 -5.5q-2 -14 -25 -84q-1 -2 -5.5 -38.5t-6.5 -41.5q0 -2 -5.5 -20t-6.5 -19v-53q-10 -78 -15 -94q0 -4 -4 -21t-6 -20v-27l-14 -96q0 -1 -0.5 -15t-1 -30.5t-0.5 -22.5q0 -8 0.5 -23.5t0.5 -28.5l1 -13 q7 -22 14 -29q-11 -194 37 -404h12q24 0 71.5 7.5t71.5 7.5h9q16 -1 45.5 -7t31.5 -8q18 -5 28.5 -27.5t10.5 -43.5l-2 -8q0 -7 -2 -20.5t-4.5 -23.5t-3.5 -10q-4 -6 -29 -16t-34 -10h-193q-3 0 -31 -7.5t-32 -7.5h-101q-16 0 -65 -14q-24 -12 -39 -12q-3 0 -20 6t-19 6 l-76 14q-6 3 -20 19t-17 22q-2 17 -2 25q0 3 -0.5 10zM389.5 1550.5q1.5 8.5 3 14t7 14.5t8.5 12.5t11.5 13.5t10.5 13q2 1 10.5 10t18 19.5t10.5 11.5q3 1 68.5 48.5t132.5 96t69 49.5l4 15l60 53q47 15 47 16q3 1 22.5 12.5t22.5 12.5q3 2 31 12q33 16 47 4q0 -2 39 -57 l6 -6v-4q0 -8 -25 -58q-2 -3 -9.5 -14t-13.5 -20t-7 -9q-15 -13 -56.5 -39.5t-56.5 -46.5q-1 -1 -116 -82.5t-118 -82.5q-2 -4 -36 -29.5t-35 -26.5q-7 -7 -27.5 -22.5t-25.5 -16.5q-12 3 -72 33l-21 14q0 5 -2 7q-5 9 -7 16.5t-0.5 16z" />
<glyph unicode="&#xce;" d="M229 1573q0 2 6.5 13.5t10.5 15.5q12 12 16 14q14 10 34.5 21t31.5 22l63 72q2 0 18 7t17 7l33 43l264 229h6q16 0 49 -21.5t43 -35.5q17 -34 17 -43l16 -29l49 -100l17 -43q3 -5 11.5 -20t15.5 -26.5t11 -15.5q1 -1 17.5 -14.5t17.5 -15.5q18 -49 33 -115 q-25 -29 -68 -29q-18 0 -33.5 7.5t-23.5 16t-21.5 25t-19.5 23.5l-4 3q-5 4 -8.5 7.5t-3.5 5.5l-17 56q-3 15 -32 73q-9 17 -23.5 44t-23 44t-9.5 17h-32q-3 0 -85 -70.5t-130 -113.5q-5 -4 -35 -38.5t-31 -35.5q-52 -43 -98 -72h-17q-37 0 -49 15q-6 7 -18.5 29.5 t-14.5 27.5zM263.5 49q-0.5 7 0 10t1.5 8t4.5 8.5t9.5 6.5q74 37 90 41h61q2 0 14 6t13 6q10 1 44.5 1t45.5 -1q-33 24 -39 53l-12 160v82q0 9 -6.5 87.5t-6.5 86.5v150q0 5 6.5 53t6.5 53v68l26 176q0 3 5 33t5 34q1 4 0 21l-2 18q-6 0 -54 9t-58 8q-5 -1 -31 -19.5 t-31 -23.5q-6 -3 -12.5 -7t-11 -6t-8.5 -2l-7 2q-4 2 -10.5 8.5t-12 12.5t-10.5 12l-5 6q-5 35 -5 47q0 4 2.5 24.5t2.5 23.5q19 27 67 55.5t84 38.5q32 -3 135.5 -3t132.5 3l181 26q1 0 12 7.5t12 7.5q3 0 20 -7.5t19 -7.5q3 0 20.5 7.5t18.5 7.5q10 -9 12 -15l29 -51 q0 -3 -7 -21.5t-7 -21.5v-12q-29 -36 -39 -41l-117 -27h-39l-88 -12q0 -1 -6 -6.5t-8 -5.5q-2 -14 -25 -84q-1 -2 -5.5 -38.5t-6.5 -41.5q0 -2 -5.5 -20t-6.5 -19v-53q-10 -78 -15 -94q0 -4 -4 -21t-6 -20v-27l-14 -96q0 -1 -0.5 -15t-1 -30.5t-0.5 -22.5q0 -8 0.5 -23.5 t0.5 -28.5l1 -13q7 -22 14 -29q-11 -194 37 -404h12q24 0 71.5 7.5t71.5 7.5h9q16 -1 45.5 -7t31.5 -8q18 -5 28.5 -27.5t10.5 -43.5l-2 -8q0 -7 -2 -20.5t-4.5 -23.5t-3.5 -10q-4 -6 -29 -16t-34 -10h-193q-3 0 -31 -7.5t-32 -7.5h-101q-16 0 -65 -14q-24 -12 -39 -12 q-3 0 -20 6t-19 6l-76 14q-6 3 -20 19t-17 22q-2 17 -2 25q0 3 -0.5 10z" />
<glyph unicode="&#xcf;" d="M219 1673q0 34 2.5 54.5t17 42.5t42.5 30q64 25 98 25q130 0 158 -66q5 -15 12 -54.5t6 -47.5q0 -1 -10.5 -16t-25 -36.5t-21.5 -31.5q-19 -19 -23 -19q0 -2 -59 -2q-58 0 -58 2q-3 0 -33.5 16t-43.5 25q-11 6 -35.5 22.5t-24.5 18.5q-2 2 -2 37zM263.5 49q-0.5 7 0 10 t1.5 8t4.5 8.5t9.5 6.5q74 37 90 41h61q2 0 14 6t13 6q10 1 44.5 1t45.5 -1q-33 24 -39 53l-12 160v82q0 9 -6.5 87.5t-6.5 86.5v150q0 5 6.5 53t6.5 53v68l26 176q0 3 5 33t5 34q1 4 0 21l-2 18q-6 0 -54 9t-58 8q-5 -1 -31 -19.5t-31 -23.5q-6 -3 -12.5 -7t-11 -6t-8.5 -2 l-7 2q-4 2 -10.5 8.5t-12 12.5t-10.5 12l-5 6q-5 35 -5 47q0 4 2.5 24.5t2.5 23.5q19 27 67 55.5t84 38.5q32 -3 135.5 -3t132.5 3l181 26q1 0 12 7.5t12 7.5q3 0 20 -7.5t19 -7.5q3 0 20.5 7.5t18.5 7.5q10 -9 12 -15l29 -51q0 -3 -7 -21.5t-7 -21.5v-12q-29 -36 -39 -41 l-117 -27h-39l-88 -12q0 -1 -6 -6.5t-8 -5.5q-2 -14 -25 -84q-1 -2 -5.5 -38.5t-6.5 -41.5q0 -2 -5.5 -20t-6.5 -19v-53q-10 -78 -15 -94q0 -4 -4 -21t-6 -20v-27l-14 -96q0 -1 -0.5 -15t-1 -30.5t-0.5 -22.5q0 -8 0.5 -23.5t0.5 -28.5l1 -13q7 -22 14 -29q-11 -194 37 -404 h12q24 0 71.5 7.5t71.5 7.5h9q16 -1 45.5 -7t31.5 -8q18 -5 28.5 -27.5t10.5 -43.5l-2 -8q0 -7 -2 -20.5t-4.5 -23.5t-3.5 -10q-4 -6 -29 -16t-34 -10h-193q-3 0 -31 -7.5t-32 -7.5h-101q-16 0 -65 -14q-24 -12 -39 -12q-3 0 -20 6t-19 6l-76 14q-6 3 -20 19t-17 22 q-2 17 -2 25q0 3 -0.5 10zM713 1671q0 9 15 41t24 43q8 14 39 47.5t38 36.5q38 2 52 2q8 0 23.5 -0.5t28.5 -0.5l13 -1q28 -4 73.5 -66t45.5 -90q0 -1 -1 -6t-1 -6q0 -9 -16 -41q-6 -6 -25.5 -27t-35 -37t-19.5 -18q-9 -6 -39 -13.5t-39 -6.5q-9 2 -46.5 17.5t-51.5 23.5 q-10 4 -33.5 21t-26.5 22q-6 4 -13 28.5t-5 30.5z" />
<glyph unicode="&#xd1;" d="M18 -88q3 3 16 16.5t23.5 24.5t14.5 14q5 5 37 13l114 14q2 4 2 6q0 8 -6 23t-6 24v14q0 2 5 20.5t5 20.5q2 0 2 72q0 60 -2 62q0 5 -11.5 35t-12.5 32l-13 68v26q0 18 -12 54v81q0 6 -13.5 68t-13.5 68q-3 25 -3 113t3 114l-12 12v164q0 15 -12 51q0 2 -5.5 8t-8.5 7 l-18 12q-18 12 -19 14q-9 12 -25 68v14q0 41 76 41l37 -2q25 -5 39 -12q3 -4 13 -35t11 -31q24 -50 92 -135q2 -5 11 -22.5t12 -20.5q6 -3 40.5 -39.5t37.5 -38.5l51 -26q4 -5 26 -28.5t25 -27.5q2 -2 14 -6.5t13 -5.5q3 -3 12 -21.5t12 -19.5q17 -9 127 -27q14 -7 78 -55 q0 -1 5.5 -3.5t13 -5t8.5 -3.5q0 -4 4.5 -16t7.5 -13q23 -35 51 -37v13q-2 6 -7 51.5t-5 54.5l-14 162q0 2 -6.5 26t-6.5 27v21q0 13 6.5 34.5t6.5 30.5v8q-25 75 -25 80q-1 4 0 28.5t0 27.5q-1 2 -6 4.5t-11.5 4.5t-7.5 3h-51q-29 6 -41 14q-7 6 -27.5 32t-23.5 34v43 q45 33 96 43t121 10q41 0 119.5 -7t118.5 -7h69q3 6 18.5 16t22.5 10q4 0 24 -10t28 -16q2 -7 2 -13q0 -31 -25 -63t-53 -45q-61 -27 -66 -27q-14 -2 -83 3t-74 5q0 -5 1 -40.5t1.5 -60.5t-0.5 -42q0 -4 -6.5 -34.5t-6.5 -33.5l5 -14q5 -15 9.5 -32.5t4.5 -26.5 q0 -7 0.5 -25t0.5 -34l1 -15q0 -5 6 -53.5t6 -53.5v-67q0 -5 1 -81.5t5 -94.5q0 -1 6.5 -19.5t6.5 -19.5q0 -3 -6.5 -27.5t-6.5 -27.5v-109q0 -8 16.5 -127t18.5 -133q17 -43 11.5 -84.5t-27.5 -60.5q-5 0 -7 -2.5t-1 -5t1.5 -5t-0.5 -3t-6 2.5q0 -2 -11 -0.5t-21 3 t-13 -0.5q-7 -14 -10 -14t-14.5 5.5t-14.5 8.5q-29 24 -40 47t-11 62q0 19 15 39v340q0 10 -5 31t-8 26q-3 2 -19.5 7t-19.5 5q-23 10 -74.5 64.5t-66.5 64.5q-2 1 -12.5 13.5t-12.5 13.5t-14 4t-23.5 6.5t-15.5 5.5q-2 0 -30 18t-31 19q-85 42 -103 56q-3 1 -18.5 19 t-17.5 21q-3 2 -14.5 10t-17.5 12t-17.5 10.5t-19.5 10t-17.5 6.5t-16.5 3q0 -8 -1 -44.5t-1.5 -61.5t0.5 -42q0 -3 7 -33t7 -34v-93l23 -161l14 -43q21 -73 25 -172v-54q5 -21 12 -28q2 -1 27 0.5t26 -0.5q8 -3 22.5 -18.5t14.5 -22.5q0 -1 -4.5 -13.5t-11 -29t-8.5 -23.5 q-10 -29 -27 -55q0 -3 -5.5 -26.5t-6.5 -24.5q-7 -15 -19.5 -25.5t-30 -15.5t-30 -7.5t-33.5 -4.5t-27 -3q-5 -2 -32 -8t-31 -6l-33 -1q-33 -1 -45 -1q-5 0 -38.5 1t-39.5 1q-7 4 -23 54t-16 63v4zM141 1548v21q0 22 29 80l8 16l41 68q74 84 92 98q29 10 35 12l-2 -2 q5 2 17.5 6t22.5 7.5t13 3.5h23q24 0 38.5 -3.5t37.5 -19.5q55 -163 149 -252q5 0 19 12q27 16 47.5 47t29.5 54t25 69l16 43l6 7v16l3 45q64 0 94 -6q9 -4 30.5 -21t28.5 -28v-17q0 -1 -1 -6.5t-1 -7.5q-3 -18 -12 -33q-7 -23 -27.5 -68.5t-25.5 -52.5q-70 -128 -156 -170 l-57 -24h-19q-55 17 -86 41q-16 8 -20 16q-1 1 -27 39q-51 62 -72 96q-2 2 -6.5 10t-5.5 9l-4 12q-7 7 -23 39q-11 -2 -21.5 -9.5t-21 -20t-17.5 -22t-18.5 -26t-15.5 -22.5l-10 -19v-4l-4 -63l4 10q-1 -8 -4 -14.5t-7 -10.5t-9.5 -7t-10 -4.5t-11.5 -2t-10.5 -0.5h-9h-6.5 l-30 2q-7 4 -30.5 26t-27.5 31z" />
<glyph unicode="&#xd2;" d="M20 592v26q24 118 29 136q18 105 62 174q1 2 25.5 27t25.5 28q2 2 8 21t6 20q0 3 49 68q18 21 48 32t44 33l175 94q40 -7 98.5 11t85.5 18l37 -2q5 -2 25 -12.5t24 -14.5q1 -1 14 -12.5t15 -11.5q30 -20 100 -47.5t102 -49.5q1 -2 13.5 -12t29.5 -22.5t23 -18.5 q27 -25 47.5 -86.5t28.5 -75.5l51 -79q0 -2 5.5 -7.5t6.5 -5.5l12 -28v-41q3 -10 28.5 -58t25.5 -78q0 -10 -6.5 -62.5t-10.5 -72.5q0 -4 -4.5 -25t-7.5 -28q-1 0 -5.5 -12.5t-4.5 -14.5q-2 -3 -13.5 -39.5t-13.5 -39.5q-3 -6 -19.5 -28.5t-19.5 -25.5q-4 -6 -22.5 -33 t-25.5 -37.5t-22.5 -30.5t-28.5 -35t-28 -28l-39 -24l-78 -82l-38 -27q-11 -12 -11 -14q-21 -12 -72 -37.5t-57 -27.5l-14 -1q-14 -1 -31 -2.5t-24 -1.5q-12 0 -47.5 2.5t-36.5 2.5q-9 1 -38 11t-38 15q-27 19 -110.5 81t-106.5 81q-2 1 -13.5 12t-13.5 12q-1 4 -11.5 21.5 t-12.5 19.5q-1 2 -19.5 15t-19.5 14q-61 55 -105 133l-47 94v41q0 4 -7 28l-7 24v43q0 3 -7.5 26.5t-7.5 26.5zM176 592q0 -3 6 -26.5t6 -26.5q1 -9 4 -35t5 -39.5t7 -34t14 -37t22 -31.5q8 -10 58 -62.5t54 -57.5q3 0 15 -5.5t14 -7.5q0 -4 12 -28q1 -2 7 -7t6 -6 q3 -3 24.5 -13.5t26.5 -12.5l51 -56q1 -1 18.5 -6t18.5 -6q3 -1 13 -13.5t11 -12.5l16 -8t23.5 -12.5t12.5 -6.5t19.5 -2t25.5 -2q5 0 18 2l14 2l179 94q27 27 28 27l39 26q11 10 23 23.5t19.5 22t21 27t17 23.5t18.5 28t16 24q32 61 63 108q0 2 3 23.5t6 47t4 36.5v33 q0 126 -27 170q-2 3 -12 14t-13 12q-36 43 -39 56q-12 24 -12 41q-2 4 -24 45.5t-27 48.5q-1 1 -12.5 12t-14.5 12q-5 6 -100 54q-1 0 -15 9.5t-17.5 13t-10.5 13t-8 19.5q-5 -5 -10.5 -8.5t-14 -4.5t-13.5 -1.5t-15.5 0t-12.5 0.5q-19 0 -54 7t-54 7h-21q-2 -2 -12 -7 t-12 -5q-7 -3 -44.5 -15.5t-47.5 -13.5q-19 -14 -23 -14q-2 -1 -19 0t-20 0q-3 -2 -28 -23t-35 -31l-17.5 -17.5t-29 -29.5t-19.5 -20q3 -2 3 -13t-3 -14q0 -3 -9.5 -12.5t-12.5 -11.5l-27 -54q-3 -6 -13.5 -24.5t-14 -25.5l-11 -22t-11 -24.5t-8 -23.5t-6.5 -27 q-12 -46 -12 -84zM334 1782v6l6 4q3 5 13.5 21t17 26.5t6.5 11.5q14 12 45 -4l27 -12q13 -4 43 -27q2 0 21.5 -6.5t23.5 -9.5l53 -53q2 -13 4 -15l252 -200l37 -41q33 -44 37 -64q4 -19 -5 -39l-2 -6q-1 -2 -11 -9l-9 -7q-66 -33 -68 -33q-13 3 -49 39q-1 1 -33 27t-34 30 q-3 1 -109.5 85t-107.5 85q-14 20 -53.5 48.5t-51.5 39.5q-2 0 -14 19t-15 26q-24 48 -24 58z" />
<glyph unicode="&#xd3;" d="M20 592v26q24 118 29 136q18 105 62 174q1 2 25.5 27t25.5 28q2 2 8 21t6 20q0 3 49 68q18 21 48 32t44 33l175 94q40 -7 98.5 11t85.5 18l37 -2q5 -2 25 -12.5t24 -14.5q1 -1 14 -12.5t15 -11.5q30 -20 100 -47.5t102 -49.5q1 -2 13.5 -12t29.5 -22.5t23 -18.5 q27 -25 47.5 -86.5t28.5 -75.5l51 -79q0 -2 5.5 -7.5t6.5 -5.5l12 -28v-41q3 -10 28.5 -58t25.5 -78q0 -10 -6.5 -62.5t-10.5 -72.5q0 -4 -4.5 -25t-7.5 -28q-1 0 -5.5 -12.5t-4.5 -14.5q-2 -3 -13.5 -39.5t-13.5 -39.5q-3 -6 -19.5 -28.5t-19.5 -25.5q-4 -6 -22.5 -33 t-25.5 -37.5t-22.5 -30.5t-28.5 -35t-28 -28l-39 -24l-78 -82l-38 -27q-11 -12 -11 -14q-21 -12 -72 -37.5t-57 -27.5l-14 -1q-14 -1 -31 -2.5t-24 -1.5q-12 0 -47.5 2.5t-36.5 2.5q-9 1 -38 11t-38 15q-27 19 -110.5 81t-106.5 81q-2 1 -13.5 12t-13.5 12q-1 4 -11.5 21.5 t-12.5 19.5q-1 2 -19.5 15t-19.5 14q-61 55 -105 133l-47 94v41q0 4 -7 28l-7 24v43q0 3 -7.5 26.5t-7.5 26.5zM176 592q0 -3 6 -26.5t6 -26.5q1 -9 4 -35t5 -39.5t7 -34t14 -37t22 -31.5q8 -10 58 -62.5t54 -57.5q3 0 15 -5.5t14 -7.5q0 -4 12 -28q1 -2 7 -7t6 -6 q3 -3 24.5 -13.5t26.5 -12.5l51 -56q1 -1 18.5 -6t18.5 -6q3 -1 13 -13.5t11 -12.5l16 -8t23.5 -12.5t12.5 -6.5t19.5 -2t25.5 -2q5 0 18 2l14 2l179 94q27 27 28 27l39 26q11 10 23 23.5t19.5 22t21 27t17 23.5t18.5 28t16 24q32 61 63 108q0 2 3 23.5t6 47t4 36.5v33 q0 126 -27 170q-2 3 -12 14t-13 12q-36 43 -39 56q-12 24 -12 41q-2 4 -24 45.5t-27 48.5q-1 1 -12.5 12t-14.5 12q-5 6 -100 54q-1 0 -15 9.5t-17.5 13t-10.5 13t-8 19.5q-5 -5 -10.5 -8.5t-14 -4.5t-13.5 -1.5t-15.5 0t-12.5 0.5q-19 0 -54 7t-54 7h-21q-2 -2 -12 -7 t-12 -5q-7 -3 -44.5 -15.5t-47.5 -13.5q-19 -14 -23 -14q-2 -1 -19 0t-20 0q-3 -2 -28 -23t-35 -31l-17.5 -17.5t-29 -29.5t-19.5 -20q3 -2 3 -13t-3 -14q0 -3 -9.5 -12.5t-12.5 -11.5l-27 -54q-3 -6 -13.5 -24.5t-14 -25.5l-11 -22t-11 -24.5t-8 -23.5t-6.5 -27 q-12 -46 -12 -84zM373.5 1421.5q1.5 8.5 3 14t7 14.5t8.5 12.5t11.5 13.5t10.5 13q2 1 10.5 10t18 19.5t10.5 11.5q3 1 68.5 48.5t132.5 96t69 49.5l4 15l59 53l48 16q3 1 22.5 12.5t22.5 12.5q3 3 30 12q33 16 47 4q0 -2 39 -57l6 -6v-4q0 -10 -24 -58q-2 -3 -10 -14 t-14 -20t-7 -9q-15 -13 -56 -39.5t-56 -46.5q-1 -1 -116 -82.5t-118 -82.5q-2 -4 -36.5 -29.5t-35.5 -26.5q-7 -7 -27.5 -22.5t-25.5 -16.5q-12 3 -72 33l-20 14q0 5 -2 7q-5 9 -7 16.5t-0.5 16z" />
<glyph unicode="&#xd4;" d="M20 592v26q24 118 29 136q18 105 62 174q1 2 25.5 27t25.5 28q2 2 8 21t6 20q0 3 49 68q18 21 48 32t44 33l175 94q40 -7 98.5 11t85.5 18l37 -2q5 -2 25 -12.5t24 -14.5q1 -1 14 -12.5t15 -11.5q30 -20 100 -47.5t102 -49.5q1 -2 13.5 -12t29.5 -22.5t23 -18.5 q27 -25 47.5 -86.5t28.5 -75.5l51 -79q0 -2 5.5 -7.5t6.5 -5.5l12 -28v-41q3 -10 28.5 -58t25.5 -78q0 -10 -6.5 -62.5t-10.5 -72.5q0 -4 -4.5 -25t-7.5 -28q-1 0 -5.5 -12.5t-4.5 -14.5q-2 -3 -13.5 -39.5t-13.5 -39.5q-3 -6 -19.5 -28.5t-19.5 -25.5q-4 -6 -22.5 -33 t-25.5 -37.5t-22.5 -30.5t-28.5 -35t-28 -28l-39 -24l-78 -82l-38 -27q-11 -12 -11 -14q-21 -12 -72 -37.5t-57 -27.5l-14 -1q-14 -1 -31 -2.5t-24 -1.5q-12 0 -47.5 2.5t-36.5 2.5q-9 1 -38 11t-38 15q-27 19 -110.5 81t-106.5 81q-2 1 -13.5 12t-13.5 12q-1 4 -11.5 21.5 t-12.5 19.5q-1 2 -19.5 15t-19.5 14q-61 55 -105 133l-47 94v41q0 4 -7 28l-7 24v43q0 3 -7.5 26.5t-7.5 26.5zM176 592q0 -3 6 -26.5t6 -26.5q1 -9 4 -35t5 -39.5t7 -34t14 -37t22 -31.5q8 -10 58 -62.5t54 -57.5q3 0 15 -5.5t14 -7.5q0 -4 12 -28q1 -2 7 -7t6 -6 q3 -3 24.5 -13.5t26.5 -12.5l51 -56q1 -1 18.5 -6t18.5 -6q3 -1 13 -13.5t11 -12.5l16 -8t23.5 -12.5t12.5 -6.5t19.5 -2t25.5 -2q5 0 18 2l14 2l179 94q27 27 28 27l39 26q11 10 23 23.5t19.5 22t21 27t17 23.5t18.5 28t16 24q32 61 63 108q0 2 3 23.5t6 47t4 36.5v33 q0 126 -27 170q-2 3 -12 14t-13 12q-36 43 -39 56q-12 24 -12 41q-2 4 -24 45.5t-27 48.5q-1 1 -12.5 12t-14.5 12q-5 6 -100 54q-1 0 -15 9.5t-17.5 13t-10.5 13t-8 19.5q-5 -5 -10.5 -8.5t-14 -4.5t-13.5 -1.5t-15.5 0t-12.5 0.5q-19 0 -54 7t-54 7h-21q-2 -2 -12 -7 t-12 -5q-7 -3 -44.5 -15.5t-47.5 -13.5q-19 -14 -23 -14q-2 -1 -19 0t-20 0q-3 -2 -28 -23t-35 -31l-17.5 -17.5t-29 -29.5t-19.5 -20q3 -2 3 -13t-3 -14q0 -3 -9.5 -12.5t-12.5 -11.5l-27 -54q-3 -6 -13.5 -24.5t-14 -25.5l-11 -22t-11 -24.5t-8 -23.5t-6.5 -27 q-12 -46 -12 -84zM238 1397q0 2 6 13t10 15q14 14 16 15q14 10 34.5 21t31.5 22l63 71q2 0 18 7.5t17 7.5l33 43l264 229h6q16 0 49 -21.5t43 -35.5q17 -34 17 -43l16 -29l49 -100l17 -43q38 -61 39 -62t9.5 -8t16 -13.5t8.5 -8.5q18 -49 33 -115q-25 -29 -67 -29 q-18 0 -33.5 8t-23.5 15.5t-22 25t-20 23.5l-4 3q-5 4 -8.5 7.5t-3.5 5.5l-16 56q-2 12 -33 73q-10 17 -23.5 44l-22 44t-9.5 17h-33q-3 0 -84.5 -70.5t-130.5 -114.5q-5 -4 -35 -38t-31 -35q-52 -43 -98 -72h-17q-37 0 -49 14q-5 7 -17.5 30t-14.5 28z" />
<glyph unicode="&#xd5;" d="M20 592v26q24 118 29 136q18 105 62 174q1 2 25.5 27t25.5 28q2 2 8 21t6 20q0 3 49 68q18 21 48 32t44 33l175 94q40 -7 98.5 11t85.5 18l37 -2q5 -2 25 -12.5t24 -14.5q1 -1 14 -12.5t15 -11.5q30 -20 100 -47.5t102 -49.5q1 -2 13.5 -12t29.5 -22.5t23 -18.5 q27 -25 47.5 -86.5t28.5 -75.5l51 -79q0 -2 5.5 -7.5t6.5 -5.5l12 -28v-41q3 -10 28.5 -58t25.5 -78q0 -10 -6.5 -62.5t-10.5 -72.5q0 -4 -4.5 -25t-7.5 -28q-1 0 -5.5 -12.5t-4.5 -14.5q-2 -3 -13.5 -39.5t-13.5 -39.5q-3 -6 -19.5 -28.5t-19.5 -25.5q-4 -6 -22.5 -33 t-25.5 -37.5t-22.5 -30.5t-28.5 -35t-28 -28l-39 -24l-78 -82l-38 -27q-11 -12 -11 -14q-21 -12 -72 -37.5t-57 -27.5l-14 -1q-14 -1 -31 -2.5t-24 -1.5q-12 0 -47.5 2.5t-36.5 2.5q-9 1 -38 11t-38 15q-27 19 -110.5 81t-106.5 81q-2 1 -13.5 12t-13.5 12q-1 4 -11.5 21.5 t-12.5 19.5q-1 2 -19.5 15t-19.5 14q-61 55 -105 133l-47 94v41q0 4 -7 28l-7 24v43q0 3 -7.5 26.5t-7.5 26.5zM176 592q0 -3 6 -26.5t6 -26.5q1 -9 4 -35t5 -39.5t7 -34t14 -37t22 -31.5q8 -10 58 -62.5t54 -57.5q3 0 15 -5.5t14 -7.5q0 -4 12 -28q1 -2 7 -7t6 -6 q3 -3 24.5 -13.5t26.5 -12.5l51 -56q1 -1 18.5 -6t18.5 -6q3 -1 13 -13.5t11 -12.5l16 -8t23.5 -12.5t12.5 -6.5t19.5 -2t25.5 -2q5 0 18 2l14 2l179 94q27 27 28 27l39 26q11 10 23 23.5t19.5 22t21 27t17 23.5t18.5 28t16 24q32 61 63 108q0 2 3 23.5t6 47t4 36.5v33 q0 126 -27 170q-2 3 -12 14t-13 12q-36 43 -39 56q-12 24 -12 41q-2 4 -24 45.5t-27 48.5q-1 1 -12.5 12t-14.5 12q-5 6 -100 54q-1 0 -15 9.5t-17.5 13t-10.5 13t-8 19.5q-5 -5 -10.5 -8.5t-14 -4.5t-13.5 -1.5t-15.5 0t-12.5 0.5q-19 0 -54 7t-54 7h-21q-2 -2 -12 -7 t-12 -5q-7 -3 -44.5 -15.5t-47.5 -13.5q-19 -14 -23 -14q-2 -1 -19 0t-20 0q-3 -2 -28 -23t-35 -31l-17.5 -17.5t-29 -29.5t-19.5 -20q3 -2 3 -13t-3 -14q0 -3 -9.5 -12.5t-12.5 -11.5l-27 -54q-3 -6 -13.5 -24.5t-14 -25.5l-11 -22t-11 -24.5t-8 -23.5t-6.5 -27 q-12 -46 -12 -84zM197 1464v21q0 24 28 80l8 16l41 68q72 82 93 98q28 10 34 12l-2 -2q5 1 18 5.5t23 8t13 3.5h22q24 0 38.5 -3.5t37.5 -19.5q55 -163 149 -252q5 0 19 12q27 16 47.5 47t29.5 54t25 69l17 43l6 7v16l2 45q64 0 94 -6q9 -4 30.5 -21t28.5 -28v-17 q0 -1 -1 -6.5t-1 -7.5q-3 -18 -12 -33q-7 -23 -27.5 -68.5t-25.5 -52.5q-70 -128 -156 -170l-57 -24h-19q-55 17 -86 41q-16 8 -20 16q-2 1 -27 39q-48 57 -71 96q-1 1 -13 19l-4 12q-5 5 -22 39q-11 -2 -21.5 -9t-21.5 -20t-18 -22t-19 -27t-15 -22l-10 -19v-4l-4 -63l4 10 q-1 -8 -4 -14.5t-7 -10.5t-9.5 -7t-10 -4.5t-11 -2t-10 -0.5h-9h-6.5l-31 2q-7 4 -30 25.5t-27 31.5z" />
<glyph unicode="&#xd6;" d="M20 592v26q24 118 29 136q18 105 62 174q1 2 25.5 27t25.5 28q2 2 8 21t6 20q0 3 49 68q18 21 48 32t44 33l175 94q40 -7 98.5 11t85.5 18l37 -2q5 -2 25 -12.5t24 -14.5q1 -1 14 -12.5t15 -11.5q30 -20 100 -47.5t102 -49.5q1 -2 13.5 -12t29.5 -22.5t23 -18.5 q27 -25 47.5 -86.5t28.5 -75.5l51 -79q0 -2 5.5 -7.5t6.5 -5.5l12 -28v-41q3 -10 28.5 -58t25.5 -78q0 -10 -6.5 -62.5t-10.5 -72.5q0 -4 -4.5 -25t-7.5 -28q-1 0 -5.5 -12.5t-4.5 -14.5q-2 -3 -13.5 -39.5t-13.5 -39.5q-3 -6 -19.5 -28.5t-19.5 -25.5q-4 -6 -22.5 -33 t-25.5 -37.5t-22.5 -30.5t-28.5 -35t-28 -28l-39 -24l-78 -82l-38 -27q-11 -12 -11 -14q-21 -12 -72 -37.5t-57 -27.5l-14 -1q-14 -1 -31 -2.5t-24 -1.5q-12 0 -47.5 2.5t-36.5 2.5q-9 1 -38 11t-38 15q-27 19 -110.5 81t-106.5 81q-2 1 -13.5 12t-13.5 12q-1 4 -11.5 21.5 t-12.5 19.5q-1 2 -19.5 15t-19.5 14q-61 55 -105 133l-47 94v41q0 4 -7 28l-7 24v43q0 3 -7.5 26.5t-7.5 26.5zM176 592q0 -3 6 -26.5t6 -26.5q1 -9 4 -35t5 -39.5t7 -34t14 -37t22 -31.5q8 -10 58 -62.5t54 -57.5q3 0 15 -5.5t14 -7.5q0 -4 12 -28q1 -2 7 -7t6 -6 q3 -3 24.5 -13.5t26.5 -12.5l51 -56q1 -1 18.5 -6t18.5 -6q3 -1 13 -13.5t11 -12.5l16 -8t23.5 -12.5t12.5 -6.5t19.5 -2t25.5 -2q5 0 18 2l14 2l179 94q27 27 28 27l39 26q11 10 23 23.5t19.5 22t21 27t17 23.5t18.5 28t16 24q32 61 63 108q0 2 3 23.5t6 47t4 36.5v33 q0 126 -27 170q-2 3 -12 14t-13 12q-36 43 -39 56q-12 24 -12 41q-2 4 -24 45.5t-27 48.5q-1 1 -12.5 12t-14.5 12q-5 6 -100 54q-1 0 -15 9.5t-17.5 13t-10.5 13t-8 19.5q-5 -5 -10.5 -8.5t-14 -4.5t-13.5 -1.5t-15.5 0t-12.5 0.5q-19 0 -54 7t-54 7h-21q-2 -2 -12 -7 t-12 -5q-7 -3 -44.5 -15.5t-47.5 -13.5q-19 -14 -23 -14q-2 -1 -19 0t-20 0q-3 -2 -28 -23t-35 -31l-17.5 -17.5t-29 -29.5t-19.5 -20q3 -2 3 -13t-3 -14q0 -3 -9.5 -12.5t-12.5 -11.5l-27 -54q-3 -6 -13.5 -24.5t-14 -25.5l-11 -22t-11 -24.5t-8 -23.5t-6.5 -27 q-12 -46 -12 -84zM178 1503q0 34 2.5 54.5t17 42.5t42.5 30q64 25 98 25q130 0 158 -66q5 -15 12 -54.5t6 -47.5q0 -1 -10.5 -16t-25 -36.5t-21.5 -31.5q-19 -19 -23 -19q0 -2 -59 -2q-58 0 -58 2q-3 0 -33.5 16t-43.5 25q-11 6 -35.5 22.5t-24.5 18.5q-2 2 -2 37zM672 1501 q0 9 15 41t24 43q8 14 39 47.5t38 36.5q38 2 52 2q8 0 23.5 -0.5t28.5 -0.5l13 -1q28 -4 73.5 -66t45.5 -90q0 -1 -1 -6t-1 -6q0 -9 -16 -41q-6 -6 -25.5 -27t-35 -37t-19.5 -18q-9 -6 -39 -13.5t-39 -6.5q-9 2 -46.5 17.5t-51.5 23.5q-10 4 -33.5 21t-26.5 22 q-6 4 -13 28.5t-5 30.5z" />
</font>
</defs>
</svg>
